<?xml version="1.0" encoding="UTF-8" standalone="no"?>
<svg
   xmlns="http://www.w3.org/2000/svg"
   version="1.1"
   viewBox="0 0 96 21"
   height="21"
   width="96">
  <path d="m 0,20 0,-1 20,0 20,0 0,-9.5 0,-9.5 1,0 1,0 0,10.5 0,10.5 -21,0 -21,0 0,-1 z m 56,-9.5 0,-10.5 1,0 1,0 0,9.5 0,9.5 19,0 19,0 0,1 0,1 -20,0 -20,0 0,-10.5 z m -56,-4.5 0,-1 12,0 12,0 0,-2.5 0,-2.5 1,0 1,0 0,3.5 0,3.5 -13,0 -13,0 0,-1 z m 72,-2.5 0,-3.5 1,0 1,0 0,2.5 0,2.5 11,0 11,0 0,1 0,1 -12,0 -12,0 0,-3.5 z"
        style="fill:#000000" />
</svg>
