<?xml version="1.0" encoding="UTF-8" standalone="no"?>
<svg
   xmlns:dc="http://purl.org/dc/elements/1.1/"
   xmlns:cc="http://creativecommons.org/ns#"
   xmlns:rdf="http://www.w3.org/1999/02/22-rdf-syntax-ns#"
   xmlns:svg="http://www.w3.org/2000/svg"
   xmlns="http://www.w3.org/2000/svg"
   version="1.1"
   id="svg4136"
   viewBox="0 0 96 20.999999"
   height="21"
   width="96">
  <defs
     id="defs4138" />
  <metadata
     id="metadata4141">
    <rdf:RDF>
      <cc:Work
         rdf:about="">
        <dc:format>image/svg+xml</dc:format>
        <dc:type
           rdf:resource="http://purl.org/dc/dcmitype/StillImage" />
        <dc:title></dc:title>
      </cc:Work>
    </rdf:RDF>
  </metadata>
  <g
     transform="translate(-43.514448,-422.59875)"
     id="layer1">
    <path
       id="path4973"
       d="m 43.514448,442.59875 0,-1 20,0 20,0 0,-9.5 0,-9.5 1,0 1,0 0,10.5 0,10.5 -21,0 -21,0 0,-1 z m 56,-9.5 0,-10.5 1.000002,0 1,0 0,9.5 0,9.5 19,0 19,0 0,1 0,1 -20,0 -20.000002,0 0,-10.5 z m -56,-4.5 0,-1 12,0 12,0 0,-2.5 0,-2.5 1,0 1,0 0,3.5 0,3.5 -13,0 -13,0 0,-1 z m 72.000002,-2.5 0,-3.5 1,0 1,0 0,2.5 0,2.5 11,0 11,0 0,1 0,1 -12,0 -12,0 0,-3.5 z"
       style="fill:#000000" />
  </g>
</svg>
