<?xml version="1.0" encoding="UTF-8" standalone="no"?>
<svg
   xmlns="http://www.w3.org/2000/svg"
   version="1.1"
   viewBox="0 0 144 49"
   height="49"
   width="144">
  <path d="m 0,48 0,-1 28,0 28,0 0,-23.5 0,-23.5 1,0 1,0 0,24.5 0,24.5 -29,0 -29,0 0,-1 z m 72,-23.5 0,-24.5 1,0 1,0 0,23.5 0,23.5 35,0 35,0 0,1 0,1 -36,0 -36,0 0,-24.5 z m -72,9.5 0,-1 20,0 20,0 0,-16.5 0,-16.5 1,0 1,0 0,17.5 0,17.5 -21,0 -21,0 0,-1 z m 88,-16.5 0,-17.5 1,0 1,0 0,16.5 0,16.5 27,0 27,0 0,1 0,1 -28,0 -28,0 0,-17.5 z m -88,2.5 0,-1 12,0 12,0 0,-9.5 0,-9.5 1,0 1,0 0,10.5 0,10.5 -13,0 -13,0 0,-1 z m 104,-9.5 0,-10.5 1,0 1,0 0,9.5 0,9.5 19,0 19,0 0,1 0,1 -20,0 -20,0 0,-10.5 z m -104,-4.5 0,-1 4,0 4,0 0,-2.5 0,-2.5 1,0 1,0 0,3.5 0,3.5 -5,0 -5,0 0,-1 z m 136,-2.5 0,-3.5 1,0 1,0 0,2.5 0,2.5 3,0 3,0 0,1 0,1 -4,0 -4,0 0,-3.5 z"
        style="fill:#000000" />
</svg>
