<?xml version="1.0" encoding="UTF-8" standalone="no"?>
<svg
   xmlns:dc="http://purl.org/dc/elements/1.1/"
   xmlns:cc="http://creativecommons.org/ns#"
   xmlns:rdf="http://www.w3.org/1999/02/22-rdf-syntax-ns#"
   xmlns:svg="http://www.w3.org/2000/svg"
   xmlns="http://www.w3.org/2000/svg"
   version="1.1"
   id="svg4136"
   viewBox="0 0 144 48.999998"
   height="49"
   width="144">
  <defs
     id="defs4138" />
  <metadata
     id="metadata4141">
    <rdf:RDF>
      <cc:Work
         rdf:about="">
        <dc:format>image/svg+xml</dc:format>
        <dc:type
           rdf:resource="http://purl.org/dc/dcmitype/StillImage" />
        <dc:title></dc:title>
      </cc:Work>
    </rdf:RDF>
  </metadata>
  <g
     transform="translate(-21.157295,-516.9559)"
     id="layer1">
    <path
       id="path4890"
       d="m 21.157295,564.9559 0,-1 28,0 28,0 0,-23.5 0,-23.5 1,0 1,0 0,24.5 0,24.5 -29,0 -29,0 0,-1 z m 71.999998,-23.5 0,-24.5 1,0 1,0 0,23.5 0,23.5 34.999997,0 35,0 0,1 0,1 -36,0 -35.999997,0 0,-24.5 z m -71.999998,9.5 0,-1 20,0 20,0 0,-16.5 0,-16.5 1,0 1,0 0,17.5 0,17.5 -21,0 -21,0 0,-1 z m 87.999995,-16.5 0,-17.5 1,0 1,0 0,16.5 0,16.5 27,0 27,0 0,1 0,1 -28,0 -28,0 0,-17.5 z m -87.999995,2.5 0,-1 12,0 12,0 0,-9.5 0,-9.5 1,0 1,0 0,10.5 0,10.5 -13,0 -13,0 0,-1 z m 103.999995,-9.5 0,-10.5 1,0 1,0 0,9.5 0,9.5 19,0 19,0 0,1 0,1 -20,0 -20,0 0,-10.5 z m -103.999995,-4.5 0,-1 4,0 4,0 0,-2.5 0,-2.5 1,0 1,0 0,3.5 0,3.5 -5,0 -5,0 0,-1 z m 135.999995,-2.5 0,-3.5 1,0 1,0 0,2.5 0,2.5 3,0 3,0 0,1 0,1 -4,0 -4,0 0,-3.5 z"
       style="fill:#000000" />
  </g>
</svg>
