<?xml version="1.0" encoding="UTF-8" standalone="no"?>
<!-- Created with Inkscape (http://www.inkscape.org/) -->

<svg
   xmlns:dc="http://purl.org/dc/elements/1.1/"
   xmlns:cc="http://creativecommons.org/ns#"
   xmlns:rdf="http://www.w3.org/1999/02/22-rdf-syntax-ns#"
   xmlns:svg="http://www.w3.org/2000/svg"
   xmlns="http://www.w3.org/2000/svg"
   xmlns:sodipodi="http://sodipodi.sourceforge.net/DTD/sodipodi-0.dtd"
   xmlns:inkscape="http://www.inkscape.org/namespaces/inkscape"
   width="15.714844"
   height="15.714844"
   viewBox="0 0 15.714844 15.714844"
   id="svg6813"
   version="1.1"
   inkscape:version="0.91 r13725"
   sodipodi:docname="clock.svg">
  <defs
     id="defs6815" />
  <sodipodi:namedview
     id="base"
     pagecolor="#ffffff"
     bordercolor="#666666"
     borderopacity="1.0"
     inkscape:pageopacity="0.0"
     inkscape:pageshadow="2"
     inkscape:zoom="22.4"
     inkscape:cx="4.055313"
     inkscape:cy="5.5717074"
     inkscape:document-units="px"
     inkscape:current-layer="layer1"
     showgrid="false"
     units="px"
     inkscape:window-width="1440"
     inkscape:window-height="851"
     inkscape:window-x="0"
     inkscape:window-y="1"
     inkscape:window-maximized="1"
     fit-margin-top="0"
     fit-margin-left="0"
     fit-margin-right="0"
     fit-margin-bottom="0" />
  <metadata
     id="metadata6818">
    <rdf:RDF>
      <cc:Work
         rdf:about="">
        <dc:format>image/svg+xml</dc:format>
        <dc:type
           rdf:resource="http://purl.org/dc/dcmitype/StillImage" />
        <dc:title></dc:title>
      </cc:Work>
    </rdf:RDF>
  </metadata>
  <g
     inkscape:label="Layer 1"
     inkscape:groupmode="layer"
     id="layer1"
     transform="translate(-0.14257812,-1036.5048)">
    <path
       style="opacity:1;fill:#000000;fill-opacity:1;stroke:none;stroke-width:0.5;stroke-miterlimit:4;stroke-dasharray:none;stroke-opacity:1"
       d="M 8,0.14257812 A 7.8571429,7.8571429 0 0 0 0.14257812,8 7.8571429,7.8571429 0 0 0 8,15.857422 7.8571429,7.8571429 0 0 0 15.857422,8 7.8571429,7.8571429 0 0 0 8,0.14257812 Z M 8,2.1953125 A 5.8035717,5.8035717 0 0 1 13.804688,8 5.8035717,5.8035717 0 0 1 8,13.802734 5.8035717,5.8035717 0 0 1 2.1972656,8 5.8035717,5.8035717 0 0 1 8,2.1953125 Z M 6.90625,3.3222656 6.84375,8.1953125 A 1.057445,1.057445 0 0 0 7.4296875,9.15625 L 10.986328,10.927734 11.929688,9.0332031 8.9667969,7.5585938 9.0214844,3.3496094 6.90625,3.3222656 Z"
       transform="translate(0,1036.3622)"
       id="path4146"
       inkscape:connector-curvature="0" />
  </g>
</svg>
