<?xml version="1.0" encoding="UTF-8" standalone="no"?>
<!-- Created with Inkscape (http://www.inkscape.org/) -->

<svg
   xmlns:dc="http://purl.org/dc/elements/1.1/"
   xmlns:cc="http://creativecommons.org/ns#"
   xmlns:rdf="http://www.w3.org/1999/02/22-rdf-syntax-ns#"
   xmlns:svg="http://www.w3.org/2000/svg"
   xmlns="http://www.w3.org/2000/svg"
   xmlns:sodipodi="http://sodipodi.sourceforge.net/DTD/sodipodi-0.dtd"
   xmlns:inkscape="http://www.inkscape.org/namespaces/inkscape"
   width="13.16992"
   height="13.17"
   viewBox="0 0 13.16992 13.17"
   id="svg6813"
   version="1.1"
   inkscape:version="0.91 r13725"
   sodipodi:docname="gear.svg">
  <defs
     id="defs6815" />
  <sodipodi:namedview
     id="base"
     pagecolor="#ffffff"
     bordercolor="#666666"
     borderopacity="1.0"
     inkscape:pageopacity="0.0"
     inkscape:pageshadow="2"
     inkscape:zoom="15.839192"
     inkscape:cx="-5.1089655"
     inkscape:cy="4.2992854"
     inkscape:document-units="px"
     inkscape:current-layer="layer1"
     showgrid="false"
     units="px"
     inkscape:window-width="1440"
     inkscape:window-height="851"
     inkscape:window-x="0"
     inkscape:window-y="1"
     inkscape:window-maximized="1"
     fit-margin-top="0"
     fit-margin-left="0"
     fit-margin-right="0"
     fit-margin-bottom="0" />
  <metadata
     id="metadata6818">
    <rdf:RDF>
      <cc:Work
         rdf:about="">
        <dc:format>image/svg+xml</dc:format>
        <dc:type
           rdf:resource="http://purl.org/dc/dcmitype/StillImage" />
        <dc:title></dc:title>
      </cc:Work>
    </rdf:RDF>
  </metadata>
  <g
     inkscape:label="Layer 1"
     inkscape:groupmode="layer"
     id="layer1"
     transform="translate(-1.4150399,-1037.7772)">
    <path
       inkscape:connector-curvature="0"
       style="opacity:1;fill:#000000;fill-opacity:1;stroke:none;stroke-width:0.5;stroke-miterlimit:4;stroke-dasharray:none;stroke-opacity:1"
       d="m 6.5947299,1037.7772 0,1.7871 a 5.0034118,5.0034118 0 0 0 -0.9961,0.4103 l -1.26172,-1.2618 -1.98632,1.9864 1.26367,1.2636 a 5.0034118,5.0034118 0 0 0 -0.41211,0.9942 l -1.78711,0 0,2.8105 1.78711,0 a 5.0034118,5.0034118 0 0 0 0.41015,0.9961 l -1.26171,1.2617 1.98632,1.9864 1.26563,-1.2637 a 5.0034118,5.0034118 0 0 0 0.99219,0.4141 l 0,1.7851 2.81054,0 0,-1.7871 A 5.0034118,5.0034118 0 0 0 10.40137,1048.75 l 1.26172,1.2617 1.98632,-1.9864 -1.26367,-1.2636 a 5.0034118,5.0034118 0 0 0 0.41406,-0.9942 l 1.78516,0 0,-2.8105 -1.78711,0 a 5.0034118,5.0034118 0 0 0 -0.41015,-0.9961 l 1.26171,-1.2617 -1.98632,-1.9864 -1.26368,1.2636 a 5.0034118,5.0034118 0 0 0 -0.9941401,-0.4121 l 0,-1.7871 -2.81054,0 z m 1.40429,3.6797 a 2.9041884,2.9041884 0 0 1 2.9043001,2.9043 2.9041884,2.9041884 0 0 1 -2.9043001,2.9043 2.9041884,2.9041884 0 0 1 -2.90429,-2.9043 2.9041884,2.9041884 0 0 1 2.90429,-2.9043 z"
       id="path5829" />
  </g>
</svg>
