<?xml version="1.0" encoding="UTF-8" standalone="no"?>
<!-- Created with Inkscape (http://www.inkscape.org/) -->

<svg
   xmlns:dc="http://purl.org/dc/elements/1.1/"
   xmlns:cc="http://creativecommons.org/ns#"
   xmlns:rdf="http://www.w3.org/1999/02/22-rdf-syntax-ns#"
   xmlns:svg="http://www.w3.org/2000/svg"
   xmlns="http://www.w3.org/2000/svg"
   xmlns:sodipodi="http://sodipodi.sourceforge.net/DTD/sodipodi-0.dtd"
   xmlns:inkscape="http://www.inkscape.org/namespaces/inkscape"
   width="23.461782"
   height="10.998177"
   viewBox="0 0 23.461782 10.998177"
   id="svg6813"
   version="1.1"
   inkscape:version="0.91 r13725"
   sodipodi:docname="key.svg">
  <defs
     id="defs6815" />
  <sodipodi:namedview
     id="base"
     pagecolor="#ffffff"
     bordercolor="#666666"
     borderopacity="1.0"
     inkscape:pageopacity="0.0"
     inkscape:pageshadow="2"
     inkscape:zoom="15.839192"
     inkscape:cx="5.2546083"
     inkscape:cy="3.2133687"
     inkscape:document-units="px"
     inkscape:current-layer="layer1"
     showgrid="false"
     units="px"
     inkscape:window-width="1440"
     inkscape:window-height="851"
     inkscape:window-x="0"
     inkscape:window-y="1"
     inkscape:window-maximized="1"
     fit-margin-top="0"
     fit-margin-left="0"
     fit-margin-right="0"
     fit-margin-bottom="0" />
  <metadata
     id="metadata6818">
    <rdf:RDF>
      <cc:Work
         rdf:about="">
        <dc:format>image/svg+xml</dc:format>
        <dc:type
           rdf:resource="http://purl.org/dc/dcmitype/StillImage" />
        <dc:title />
      </cc:Work>
    </rdf:RDF>
  </metadata>
  <g
     inkscape:label="Layer 1"
     inkscape:groupmode="layer"
     id="layer1"
     transform="translate(-0.26910837,-1038.8631)">
    <path
       style="fill:#000000;fill-opacity:1;fill-rule:evenodd;stroke:none;stroke-linecap:square;stroke-miterlimit:10;stroke-opacity:1"
       d="M 5.5 0 C 2.4629379 0 0 2.4629 0 5.5 C 1.7763568e-15 8.5371 2.4629379 10.998047 5.5 10.998047 C 7.9337129 10.998047 9.9925886 9.4155706 10.716797 7.2246094 L 14.185547 7.2246094 L 14.185547 9.3730469 C 14.185547 9.6907469 14.442004 9.9472656 14.759766 9.9472656 L 17.0625 9.9472656 C 17.215094 9.9472656 17.36085 9.8871969 17.46875 9.7792969 C 17.576649 9.6713969 17.636719 9.5255469 17.636719 9.3730469 L 17.636719 7.2246094 L 20.009766 7.2246094 L 20.009766 9.3730469 C 20.009766 9.6907469 20.26818 9.9472656 20.585938 9.9472656 L 22.886719 9.9472656 C 23.039313 9.9472656 23.185069 9.8871969 23.292969 9.7792969 C 23.400868 9.6713969 23.460938 9.5255469 23.460938 9.3730469 L 23.460938 4.4003906 C 23.460937 4.1350701 23.27936 3.9200494 23.035156 3.8535156 C 22.95007 3.805919 22.857035 3.7734375 22.757812 3.7734375 L 10.714844 3.7734375 C 10.447815 2.9666232 9.9989281 2.2234926 9.3867188 1.6113281 C 8.3554385 0.58002813 6.9584489 0 5.5 0 z M 5.5 3.6152344 C 6.5409207 3.6152344 7.3847656 4.4591 7.3847656 5.5 C 7.3847656 6.5409 6.5409207 7.3847656 5.5 7.3847656 C 4.4590746 7.3847656 3.6152344 6.5409 3.6152344 5.5 C 3.6152344 4.4591 4.4590746 3.6152344 5.5 3.6152344 z "
       transform="translate(0.26910837,1038.8631)"
       id="path4298" />
  </g>
</svg>
