<?xml version="1.0" encoding="UTF-8" standalone="no"?>
<!-- Created with Inkscape (http://www.inkscape.org/) -->

<svg
   xmlns:dc="http://purl.org/dc/elements/1.1/"
   xmlns:cc="http://creativecommons.org/ns#"
   xmlns:rdf="http://www.w3.org/1999/02/22-rdf-syntax-ns#"
   xmlns:svg="http://www.w3.org/2000/svg"
   xmlns="http://www.w3.org/2000/svg"
   xmlns:sodipodi="http://sodipodi.sourceforge.net/DTD/sodipodi-0.dtd"
   xmlns:inkscape="http://www.inkscape.org/namespaces/inkscape"
   width="23.152344"
   height="11.148438"
   viewBox="0 0 23.152344 11.148438"
   id="svg6813"
   version="1.1"
   inkscape:version="0.91 r13725"
   sodipodi:docname="route.svg">
  <defs
     id="defs6815" />
  <sodipodi:namedview
     id="base"
     pagecolor="#ffffff"
     bordercolor="#666666"
     borderopacity="1.0"
     inkscape:pageopacity="0.0"
     inkscape:pageshadow="2"
     inkscape:zoom="31.678384"
     inkscape:cx="13.875588"
     inkscape:cy="5.8138857"
     inkscape:document-units="px"
     inkscape:current-layer="layer1"
     showgrid="false"
     units="px"
     inkscape:window-width="1440"
     inkscape:window-height="851"
     inkscape:window-x="0"
     inkscape:window-y="1"
     inkscape:window-maximized="1"
     fit-margin-top="0"
     fit-margin-left="0"
     fit-margin-right="0"
     fit-margin-bottom="0" />
  <metadata
     id="metadata6818">
    <rdf:RDF>
      <cc:Work
         rdf:about="">
        <dc:format>image/svg+xml</dc:format>
        <dc:type
           rdf:resource="http://purl.org/dc/dcmitype/StillImage" />
        <dc:title></dc:title>
      </cc:Work>
    </rdf:RDF>
  </metadata>
  <g
     inkscape:label="Layer 1"
     inkscape:groupmode="layer"
     id="layer1"
     transform="translate(-0.42382812,-1038.788)">
    <path
       style="color:#000000;font-style:normal;font-variant:normal;font-weight:normal;font-stretch:normal;font-size:medium;line-height:normal;font-family:sans-serif;text-indent:0;text-align:start;text-decoration:none;text-decoration-line:none;text-decoration-style:solid;text-decoration-color:#000000;letter-spacing:normal;word-spacing:normal;text-transform:none;direction:ltr;block-progression:tb;writing-mode:lr-tb;baseline-shift:baseline;text-anchor:start;white-space:normal;clip-rule:nonzero;display:inline;overflow:visible;visibility:visible;opacity:1;isolation:auto;mix-blend-mode:normal;color-interpolation:sRGB;color-interpolation-filters:linearRGB;solid-color:#000000;solid-opacity:1;fill:#000000;fill-opacity:1;fill-rule:evenodd;stroke:none;stroke-width:1.7003479;stroke-linecap:butt;stroke-linejoin:round;stroke-miterlimit:10;stroke-dasharray:none;stroke-dashoffset:0;stroke-opacity:1;color-rendering:auto;image-rendering:auto;shape-rendering:auto;text-rendering:auto;enable-background:accumulate"
       d="m 20.789062,2.4257812 c -1.539248,0 -2.787109,1.2478094 -2.787109,2.7871094 0,0.5186747 0.151648,0.9981633 0.398438,1.4140625 L 15.070312,9.9980469 9.6601562,4.4511719 A 0.85025897,0.85025897 0 0 0 9.0507812,4.1933594 l 0,0.00391 A 0.85025897,0.85025897 0 0 0 8.4589844,4.4394531 L 4.4785156,8.3203125 C 4.0881424,8.1198333 3.6579418,8 3.2109375,8 1.6716907,8 0.42382812,9.2478094 0.42382812,10.787109 c 0,1.5392 1.24786258,2.78711 2.78710938,2.78711 1.5392439,0 2.7871094,-1.24791 2.7871094,-2.78711 0,-0.44554 -0.1191563,-0.8742831 -0.3183594,-1.2636715 L 9.0371094,6.25 14.458984,11.808594 a 0.85025897,0.85025897 0 0 0 1.212891,0 L 19.667969,7.7617188 C 20.011653,7.9132855 20.389313,8 20.789062,8 c 1.539248,0 2.78711,-1.2479094 2.78711,-2.7871094 0,-0.7392 -0.293733,-1.4480031 -0.816406,-1.9707031 -0.522674,-0.5227 -1.23153,-0.8164063 -1.970704,-0.8164063 z"
       transform="translate(0,1036.3622)"
       id="path4801"
       inkscape:connector-curvature="0" />
  </g>
</svg>
