<?xml version="1.0" encoding="UTF-8" standalone="no"?>
<!-- Created with Inkscape (http://www.inkscape.org/) -->

<svg
   xmlns:dc="http://purl.org/dc/elements/1.1/"
   xmlns:cc="http://creativecommons.org/ns#"
   xmlns:rdf="http://www.w3.org/1999/02/22-rdf-syntax-ns#"
   xmlns:svg="http://www.w3.org/2000/svg"
   xmlns="http://www.w3.org/2000/svg"
   xmlns:sodipodi="http://sodipodi.sourceforge.net/DTD/sodipodi-0.dtd"
   xmlns:inkscape="http://www.inkscape.org/namespaces/inkscape"
   width="15.673756"
   height="15.672615"
   viewBox="0 0 15.673756 15.672615"
   id="svg6813"
   version="1.1"
   inkscape:version="0.91 r13725"
   sodipodi:docname="search.svg">
  <defs
     id="defs6815" />
  <sodipodi:namedview
     id="base"
     pagecolor="#ffffff"
     bordercolor="#666666"
     borderopacity="1.0"
     inkscape:pageopacity="0.0"
     inkscape:pageshadow="2"
     inkscape:zoom="15.839192"
     inkscape:cx="4.0347686"
     inkscape:cy="5.5505854"
     inkscape:document-units="px"
     inkscape:current-layer="layer1"
     showgrid="false"
     units="px"
     inkscape:window-width="1440"
     inkscape:window-height="851"
     inkscape:window-x="0"
     inkscape:window-y="1"
     inkscape:window-maximized="1"
     fit-margin-top="0"
     fit-margin-left="0"
     fit-margin-right="0"
     fit-margin-bottom="0" />
  <metadata
     id="metadata6818">
    <rdf:RDF>
      <cc:Work
         rdf:about="">
        <dc:format>image/svg+xml</dc:format>
        <dc:type
           rdf:resource="http://purl.org/dc/dcmitype/StillImage" />
        <dc:title></dc:title>
      </cc:Work>
    </rdf:RDF>
  </metadata>
  <g
     inkscape:label="Layer 1"
     inkscape:groupmode="layer"
     id="layer1"
     transform="translate(-0.16312245,-1036.5259)">
    <path
       style="opacity:1;fill:#000000;fill-opacity:1;stroke:none;stroke-width:1.70000005;stroke-miterlimit:4;stroke-dasharray:none;stroke-opacity:1"
       d="m 1.9460876,1038.3077 a 6,6.0500002 45 0 0 -0.0359,8.5212 6,6.0500002 45 0 0 8.1925004,0.2679 l 0.46818,0.4682 -0.39085,0.3908 4.24264,4.2427 1.41422,-1.4142 -4.24264,-4.2427 -0.39223,0.3922 -0.47095,-0.4709 a 6,6.0500002 45 0 0 -0.26516,-8.1897 6,6.0500002 45 0 0 -8.5198004,0.034 z m 1.41421,1.4142 a 3.9999983,4.0333328 45 0 1 5.68033,-0.024 3.9999983,4.0333328 45 0 1 -0.0235,5.6803 3.9999983,4.0333328 45 0 1 -5.68033,0.024 3.9999983,4.0333328 45 0 1 0.0235,-5.6803 z"
       id="path6782"
       inkscape:connector-curvature="0" />
  </g>
</svg>
