<svg xmlns="http://www.w3.org/2000/svg" width="13.17" height="13.17"><path fill="red" d="M5.18 0v1.79a5 5 0 0 0-1 .4L2.92.95.94 2.92 2.2 4.2a5 5 0 0 0-.41.99H0v2.81h1.79a5 5 0 0 0 .4 1L.95 10.25l1.98 1.98 1.27-1.26a5 5 0 0 0 .99.41v1.79h2.81v-1.79a5 5 0 0 0 1-.4l1.26 1.25 1.98-1.98-1.26-1.27a5 5 0 0 0 .41-.99h1.79V5.18h-1.79a5 5 0 0 0-.4-1l1.25-1.26L10.25.94 8.98 2.2A5 5 0 0 0 8 1.79V0H5.18zm1.4 3.68a2.9 2.9 0 0 1 2.9 2.9 2.9 2.9 0 0 1-2.9 2.9 2.9 2.9 0 0 1-2.9-2.9 2.9 2.9 0 0 1 2.9-2.9z"/></svg>
