<?xml version = "1.0" encoding="utf-8"?>
<svg version="1.1" baseProfile="full" xmlns="http://www.w3.org/2000/svg" xmlns:xlink="http://www.w3.org/1999/xlink" width="205" height="211" viewBox="0 0 205 211" clip="0 205 0 211"><defs><clipPath id="did1"><path d="M1031.17,-357l-0.333252,-0.5l0.333252,-0.5h0.666748l0.333252,-0.5h0.666748l0.333252,0.5h0.666748l0.333252,0.5l-0.333252,0.5l0.333252,0.5l-0.333252,0.5h-0.666748l-0.333252,0.5h-0.666748l-0.333252,-0.5h-0.666748l-0.333252,-0.5l0.333252,-0.5Z"/></clipPath><clipPath id="did2"><path d="M1023.17,-359l-0.333374,-0.5l0.333374,-0.5h0.666626l0.333313,0.5h0.666748l0.333252,-0.5h0.666748l0.333252,0.5h0.666748l0.333252,-0.5h0.666748l0.333252,0.5h0.666748l0.333252,-0.5h0.666748l0.333252,0.5h0.666748l0.333252,-0.5h0.666748l0.333252,0.5h0.666748l0.333252,-0.5h0.666748l0.333252,0.5h0.666748l0.333252,-0.5h0.666748l0.333252,0.5h0.666748l0.333252,-0.5h0.666748l0.333252,0.5h0.666748l0.333252,-0.5h0.666748l0.333252,0.5h0.666748l0.333252,-0.5h0.666748l0.333252,0.5h0.666748l0.333252,-0.5h0.666748l0.333252,0.5h0.666748l0.333252,-0.5h0.666748l0.333252,0.5h0.666748l0.333252,-0.5h0.666748l0.333252,0.5h0.666748l0.333252,-0.5h0.666748l0.333252,0.5h0.666748l0.333252,-0.5h0.666748l0.333252,0.5h0.666748l0.333252,-0.5h0.666748l0.333252,0.5h0.666748l0.333252,0.5l-0.333252,0.5l0.333252,0.5l-0.333252,0.5l0.333252,0.5l-0.333252,0.5l0.333252,0.5l-0.333252,0.5l0.333252,0.5l-0.333252,0.5l0.333252,0.5l-0.333252,0.5l0.333252,0.5l-0.333252,0.5l0.333252,0.5l-0.333252,0.5l0.333252,0.5l-0.333252,0.5l0.333252,0.5l-0.333252,0.5l0.333252,0.5l-0.333252,0.5l0.333252,0.5l-0.333252,0.5l0.333252,0.5l-0.333252,0.5l0.333252,0.5l-0.333252,0.5l0.333252,0.5l-0.333252,0.5l0.333252,0.5l-0.333252,0.5l0.333252,0.5l-0.333252,0.5l0.333252,0.5l-0.333252,0.5l0.333252,0.5l-0.333252,0.5l0.333252,0.5l-0.333252,0.5l0.333252,0.5l-0.333252,0.5l0.333252,0.5l-0.333252,0.5l0.333252,0.5l-0.333252,0.5l0.333252,0.5l-0.333252,0.5l0.333252,0.5l-0.333252,0.5l0.333252,0.5l-0.333252,0.5l0.333252,0.5l-0.333252,0.5l0.333252,0.5l-0.333252,0.5l0.333252,0.5l-0.333252,0.5l0.333252,0.5l-0.333252,0.5l0.333252,0.5l-0.333252,0.5l0.333252,0.5l-0.333252,0.5l0.333252,0.5l-0.333252,0.5l0.333252,0.5l-0.333252,0.5l0.333252,0.5l-0.333252,0.5l0.333252,0.5l-0.333252,0.5l0.333252,0.5l-0.333252,0.5l0.333252,0.5l-0.333252,0.5l0.333252,0.5l-0.333252,0.5l0.333252,0.5l-0.333252,0.5h-0.666748l-0.333252,-0.5h-0.666748l-0.333252,0.5h-0.666748l-0.333252,-0.5h-0.666748l-0.333252,0.5h-0.666748l-0.333252,-0.5h-0.666748l-0.333252,0.5h-0.666748l-0.333252,-0.5h-0.666748l-0.333252,0.5h-0.666748l-0.333252,-0.5h-0.666748l-0.333252,0.5h-0.666748l-0.333252,-0.5h-0.666748l-0.333252,0.5h-0.666748l-0.333252,-0.5h-0.666748l-0.333252,0.5h-0.666748l-0.333252,-0.5h-0.666748l-0.333252,0.5h-0.666748l-0.333252,-0.5h-0.666748l-0.333252,0.5h-0.666748l-0.333252,-0.5h-0.666748l-0.333252,0.5h-0.666748l-0.333252,-0.5h-0.666748l-0.333252,0.5h-0.666748l-0.333252,-0.5h-0.666748l-0.333252,0.5h-0.666748l-0.333252,-0.5h-0.666748l-0.333252,0.5h-0.666748l-0.333252,-0.5h-0.666748l-0.333252,0.5h-0.666748l-0.333252,-0.5h-0.666748l-0.333252,0.5h-0.666748l-0.333313,-0.5h-0.666626l-0.333374,-0.5l0.333374,-0.5l-0.333374,-0.5l0.333374,-0.5l-0.333374,-0.5l0.333374,-0.5l-0.333374,-0.5l0.333374,-0.5l-0.333374,-0.5l0.333374,-0.5l-0.333374,-0.5l0.333374,-0.5l-0.333374,-0.5l0.333374,-0.5l-0.333374,-0.5l0.333374,-0.5l-0.333374,-0.5l0.333374,-0.5l-0.333374,-0.5l0.333374,-0.5l-0.333374,-0.5l0.333374,-0.5l-0.333374,-0.5l0.333374,-0.5l-0.333374,-0.5l0.333374,-0.5l-0.333374,-0.5l0.333374,-0.5l-0.333374,-0.5l0.333374,-0.5l-0.333374,-0.5l0.333374,-0.5l-0.333374,-0.5l0.333374,-0.5l-0.333374,-0.5l0.333374,-0.5l-0.333374,-0.5l0.333374,-0.5l-0.333374,-0.5l0.333374,-0.5l-0.333374,-0.5l0.333374,-0.5l-0.333374,-0.5l0.333374,-0.5l-0.333374,-0.5l0.333374,-0.5l-0.333374,-0.5l0.333374,-0.5l-0.333374,-0.5l0.333374,-0.5l-0.333374,-0.5l0.333374,-0.5l-0.333374,-0.5l0.333374,-0.5l-0.333374,-0.5l0.333374,-0.5l-0.333374,-0.5l0.333374,-0.5l-0.333374,-0.5l0.333374,-0.5l-0.333374,-0.5l0.333374,-0.5l-0.333374,-0.5l0.333374,-0.5l-0.333374,-0.5l0.333374,-0.5l-0.333374,-0.5l0.333374,-0.5l-0.333374,-0.5l0.333374,-0.5l-0.333374,-0.5l0.333374,-0.5l-0.333374,-0.5l0.333374,-0.5l-0.333374,-0.5l0.333374,-0.5l-0.333374,-0.5l0.333374,-0.5Z"/></clipPath><clipPath id="did3"><path d="M1023.17,-359l-0.333374,-0.5l0.333374,-0.5h0.666626l0.333313,0.5h0.666748l0.333252,-0.5h0.666748l0.333252,0.5h0.666748l0.333252,-0.5h0.666748l0.333252,0.5h0.666748l0.333252,-0.5h0.666748l0.333252,0.5h0.666748l0.333252,-0.5h0.666748l0.333252,0.5h0.666748l0.333252,-0.5h0.666748l0.333252,0.5h0.666748l0.333252,-0.5h0.666748l0.333252,0.5h0.666748l0.333252,-0.5h0.666748l0.333252,0.5h0.666748l0.333252,-0.5h0.666748l0.333252,0.5h0.666748l0.333252,-0.5h0.666748l0.333252,0.5h0.666748l0.333252,-0.5h0.666748l0.333252,0.5h0.666748l0.333252,-0.5h0.666748l0.333252,0.5h0.666748l0.333252,-0.5h0.666748l0.333252,0.5h0.666748l0.333252,-0.5h0.666748l0.333252,0.5h0.666748l0.333252,-0.5h0.666748l0.333252,0.5h0.666748l0.333252,-0.5h0.666748l0.333252,0.5h0.666748l0.333252,0.5l-0.333252,0.5l0.333252,0.5l-0.333252,0.5l0.333252,0.5l-0.333252,0.5l0.333252,0.5l-0.333252,0.5l0.333252,0.5l-0.333252,0.5l0.333252,0.5l-0.333252,0.5l0.333252,0.5l-0.333252,0.5l0.333252,0.5l-0.333252,0.5l0.333252,0.5l-0.333252,0.5l0.333252,0.5l-0.333252,0.5l0.333252,0.5l-0.333252,0.5l0.333252,0.5l-0.333252,0.5l0.333252,0.5l-0.333252,0.5l0.333252,0.5l-0.333252,0.5l0.333252,0.5l-0.333252,0.5l0.333252,0.5l-0.333252,0.5l0.333252,0.5l-0.333252,0.5l0.333252,0.5l-0.333252,0.5l0.333252,0.5l-0.333252,0.5l0.333252,0.5l-0.333252,0.5l0.333252,0.5l-0.333252,0.5l0.333252,0.5l-0.333252,0.5l0.333252,0.5l-0.333252,0.5l0.333252,0.5l-0.333252,0.5l0.333252,0.5l-0.333252,0.5l0.333252,0.5l-0.333252,0.5l0.333252,0.5l-0.333252,0.5l0.333252,0.5l-0.333252,0.5l0.333252,0.5l-0.333252,0.5l0.333252,0.5l-0.333252,0.5l0.333252,0.5l-0.333252,0.5l0.333252,0.5l-0.333252,0.5l0.333252,0.5l-0.333252,0.5l0.333252,0.5l-0.333252,0.5l0.333252,0.5l-0.333252,0.5l0.333252,0.5l-0.333252,0.5l0.333252,0.5l-0.333252,0.5l0.333252,0.5l-0.333252,0.5l0.333252,0.5l-0.333252,0.5l0.333252,0.5l-0.333252,0.5h-0.666748l-0.333252,-0.5h-0.666748l-0.333252,0.5h-0.666748l-0.333252,-0.5h-0.666748l-0.333252,0.5h-0.666748l-0.333252,-0.5h-0.666748l-0.333252,0.5h-0.666748l-0.333252,-0.5h-0.666748l-0.333252,0.5h-0.666748l-0.333252,-0.5h-0.666748l-0.333252,0.5h-0.666748l-0.333252,-0.5h-0.666748l-0.333252,0.5h-0.666748l-0.333252,-0.5h-0.666748l-0.333252,0.5h-0.666748l-0.333252,-0.5h-0.666748l-0.333252,0.5h-0.666748l-0.333252,-0.5h-0.666748l-0.333252,0.5h-0.666748l-0.333252,-0.5h-0.666748l-0.333252,0.5h-0.666748l-0.333252,-0.5h-0.666748l-0.333252,0.5h-0.666748l-0.333252,-0.5h-0.666748l-0.333252,0.5h-0.666748l-0.333252,-0.5h-0.666748l-0.333252,0.5h-0.666748l-0.333252,-0.5h-0.666748l-0.333252,0.5h-0.666748l-0.333252,-0.5h-0.666748l-0.333252,0.5h-0.666748l-0.333313,-0.5h-0.666626l-0.333374,-0.5l0.333374,-0.5l-0.333374,-0.5l0.333374,-0.5l-0.333374,-0.5l0.333374,-0.5l-0.333374,-0.5l0.333374,-0.5l-0.333374,-0.5l0.333374,-0.5l-0.333374,-0.5l0.333374,-0.5l-0.333374,-0.5l0.333374,-0.5l-0.333374,-0.5l0.333374,-0.5l-0.333374,-0.5l0.333374,-0.5l-0.333374,-0.5l0.333374,-0.5l-0.333374,-0.5l0.333374,-0.5l-0.333374,-0.5l0.333374,-0.5l-0.333374,-0.5l0.333374,-0.5l-0.333374,-0.5l0.333374,-0.5l-0.333374,-0.5l0.333374,-0.5l-0.333374,-0.5l0.333374,-0.5l-0.333374,-0.5l0.333374,-0.5l-0.333374,-0.5l0.333374,-0.5l-0.333374,-0.5l0.333374,-0.5l-0.333374,-0.5l0.333374,-0.5l-0.333374,-0.5l0.333374,-0.5l-0.333374,-0.5l0.333374,-0.5l-0.333374,-0.5l0.333374,-0.5l-0.333374,-0.5l0.333374,-0.5l-0.333374,-0.5l0.333374,-0.5l-0.333374,-0.5l0.333374,-0.5l-0.333374,-0.5l0.333374,-0.5l-0.333374,-0.5l0.333374,-0.5l-0.333374,-0.5l0.333374,-0.5l-0.333374,-0.5l0.333374,-0.5l-0.333374,-0.5l0.333374,-0.5l-0.333374,-0.5l0.333374,-0.5l-0.333374,-0.5l0.333374,-0.5l-0.333374,-0.5l0.333374,-0.5l-0.333374,-0.5l0.333374,-0.5l-0.333374,-0.5l0.333374,-0.5l-0.333374,-0.5l0.333374,-0.5l-0.333374,-0.5l0.333374,-0.5l-0.333374,-0.5l0.333374,-0.5Z"/></clipPath><clipPath id="did4"><path d="M1031.17,-352l-0.333252,-0.5l0.333252,-0.5h0.666748l0.333252,-0.5h0.666748l0.333252,-0.5h0.666748l0.333252,-0.5h0.666748l0.333252,0.5l-0.333252,0.5l0.333252,0.5l-0.333252,0.5l0.333252,0.5l-0.333252,0.5h-0.666748l-0.333252,0.5h-0.666748l-0.333252,0.5h-0.666748l-0.333252,0.5h-0.666748l-0.333252,-0.5l0.333252,-0.5l-0.333252,-0.5l0.333252,-0.5Z"/></clipPath><clipPath id="did5"><path d="M1031.17,-357l-0.333252,-0.5l0.333252,-0.5h0.666748l0.333252,-0.5h0.666748l0.333252,0.5h0.666748l0.333252,0.5l-0.333252,0.5l0.333252,0.5l-0.333252,0.5h-0.666748l-0.333252,0.5h-0.666748l-0.333252,-0.5h-0.666748l-0.333252,-0.5l0.333252,-0.5Z"/></clipPath></defs><g fill="None" stroke="None" transform="matrix(1,0,0,1,0,0) matrix(55.4256,0,0,64,-57124.4,22953.6)"><g clip-path="url(#did1)"><rect x="1030.65" y="-358.65" width="3.7" height="3.3" fill="rgb(230,231,232)"/><path d="M1028.83,-359.5v0l0.333252,0.5h0.666748l0.333252,-0.5" stroke="rgb(0,0,0)" stroke-width="0.015625"/><path d="M1028.83,-358.5v0l0.333252,0.5h0.666748l0.333252,-0.5" stroke="rgb(0,0,0)" stroke-width="0.015625"/><path d="M1028.83,-357.5v0l0.333252,0.5h0.666748l0.333252,-0.5" stroke="rgb(0,0,0)" stroke-width="0.015625"/><path d="M1028.83,-356.5v0l0.333252,0.5h0.666748l0.333252,-0.5" stroke="rgb(0,0,0)" stroke-width="0.015625"/><path d="M1028.83,-355.5v0l0.333252,0.5h0.666748l0.333252,-0.5" stroke="rgb(0,0,0)" stroke-width="0.015625"/><path d="M1028.83,-354.5v0l0.333252,0.5h0.666748l0.333252,-0.5" stroke="rgb(0,0,0)" stroke-width="0.015625"/><path d="M1029.83,-359v0l0.333252,0.5h0.666748l0.333252,-0.5" stroke="rgb(0,0,0)" stroke-width="0.015625"/><path d="M1029.83,-358v0l0.333252,0.5h0.666748l0.333252,-0.5" stroke="rgb(0,0,0)" stroke-width="0.015625"/><path d="M1029.83,-357v0l0.333252,0.5h0.666748l0.333252,-0.5" stroke="rgb(0,0,0)" stroke-width="0.015625"/><path d="M1029.83,-356v0l0.333252,0.5h0.666748l0.333252,-0.5" stroke="rgb(0,0,0)" stroke-width="0.015625"/><path d="M1029.83,-355v0l0.333252,0.5h0.666748l0.333252,-0.5" stroke="rgb(0,0,0)" stroke-width="0.015625"/><path d="M1029.83,-354v0l0.333252,0.5h0.666748l0.333252,-0.5" stroke="rgb(0,0,0)" stroke-width="0.015625"/><path d="M1030.83,-359.5v0l0.333252,0.5h0.666748l0.333252,-0.5" stroke="rgb(0,0,0)" stroke-width="0.015625"/><path d="M1030.83,-358.5v0l0.333252,0.5h0.666748l0.333252,-0.5" stroke="rgb(0,0,0)" stroke-width="0.015625"/><path d="M1030.83,-357.5v0l0.333252,0.5h0.666748l0.333252,-0.5" stroke="rgb(0,0,0)" stroke-width="0.015625"/><path d="M1030.83,-356.5v0l0.333252,0.5h0.666748l0.333252,-0.5" stroke="rgb(0,0,0)" stroke-width="0.015625"/><path d="M1030.83,-355.5v0l0.333252,0.5h0.666748l0.333252,-0.5" stroke="rgb(0,0,0)" stroke-width="0.015625"/><path d="M1030.83,-354.5v0l0.333252,0.5h0.666748l0.333252,-0.5" stroke="rgb(0,0,0)" stroke-width="0.015625"/><path d="M1031.83,-359v0l0.333252,0.5h0.666748l0.333252,-0.5" stroke="rgb(0,0,0)" stroke-width="0.015625"/><path d="M1031.83,-358v0l0.333252,0.5h0.666748l0.333252,-0.5" stroke="rgb(0,0,0)" stroke-width="0.015625"/><path d="M1031.83,-357v0l0.333252,0.5h0.666748l0.333252,-0.5" stroke="rgb(0,0,0)" stroke-width="0.015625"/><path d="M1031.83,-356v0l0.333252,0.5h0.666748l0.333252,-0.5" stroke="rgb(0,0,0)" stroke-width="0.015625"/><path d="M1031.83,-355v0l0.333252,0.5h0.666748l0.333252,-0.5" stroke="rgb(0,0,0)" stroke-width="0.015625"/><path d="M1031.83,-354v0l0.333252,0.5h0.666748l0.333252,-0.5" stroke="rgb(0,0,0)" stroke-width="0.015625"/><path d="M1032.83,-359.5v0l0.333252,0.5h0.666748l0.333252,-0.5" stroke="rgb(0,0,0)" stroke-width="0.015625"/><path d="M1032.83,-358.5v0l0.333252,0.5h0.666748l0.333252,-0.5" stroke="rgb(0,0,0)" stroke-width="0.015625"/><path d="M1032.83,-357.5v0l0.333252,0.5h0.666748l0.333252,-0.5" stroke="rgb(0,0,0)" stroke-width="0.015625"/><path d="M1032.83,-356.5v0l0.333252,0.5h0.666748l0.333252,-0.5" stroke="rgb(0,0,0)" stroke-width="0.015625"/><path d="M1032.83,-355.5v0l0.333252,0.5h0.666748l0.333252,-0.5" stroke="rgb(0,0,0)" stroke-width="0.015625"/><path d="M1032.83,-354.5v0l0.333252,0.5h0.666748l0.333252,-0.5" stroke="rgb(0,0,0)" stroke-width="0.015625"/><path d="M1033.83,-359v0l0.333252,0.5h0.666748l0.333252,-0.5" stroke="rgb(0,0,0)" stroke-width="0.015625"/><path d="M1033.83,-358v0l0.333252,0.5h0.666748l0.333252,-0.5" stroke="rgb(0,0,0)" stroke-width="0.015625"/><path d="M1033.83,-357v0l0.333252,0.5h0.666748l0.333252,-0.5" stroke="rgb(0,0,0)" stroke-width="0.015625"/><path d="M1033.83,-356v0l0.333252,0.5h0.666748l0.333252,-0.5" stroke="rgb(0,0,0)" stroke-width="0.015625"/><path d="M1033.83,-355v0l0.333252,0.5h0.666748l0.333252,-0.5" stroke="rgb(0,0,0)" stroke-width="0.015625"/><path d="M1033.83,-354v0l0.333252,0.5h0.666748l0.333252,-0.5" stroke="rgb(0,0,0)" stroke-width="0.015625"/><g transform="translate(1028.5,-359) scale(1.1547 1)"><text font-family="Calibri" font-size="0.35" font-weight="bold" text-anchor="middle" x="0" y="-0.0648731" fill="rgb(47,79,79)">WORLD</text><text font-family="Calibri" font-size="0.35" font-weight="bold" text-anchor="middle" x="0" y="0.362373" fill="rgb(47,79,79)">CHARACTERISTICS</text></g><text transform="translate(1028.5,-355) scale(1.1547 1)" font-family="Calibri" font-size="0.35" font-weight="bold" text-anchor="middle" x="0" y="0.14875" fill="rgb(47,79,79)">POPULATION</text><text transform="translate(1036.5,-359) scale(1.1547 1)" font-family="Calibri" font-size="0.35" font-weight="bold" text-anchor="middle" x="0" y="0.14875" fill="rgb(47,79,79)">TRAVEL ZONES</text><text transform="translate(1036.5,-355) scale(1.1547 1)" font-family="Calibri" font-size="0.35" font-weight="bold" text-anchor="middle" x="0" y="0.14875" fill="rgb(47,79,79)">BASES</text><text transform="translate(1032.5,-359) scale(1.1547 1)" font-family="Calibri" font-size="0.35" font-weight="bold" text-anchor="middle" x="0" y="0.14875" fill="rgb(47,79,79)">MAP LEGEND</text><g transform="translate(1032.5,-358) scale(1.1547 1)"><text font-family="Calibri" font-size="0.21" font-weight="bold" text-anchor="middle" x="0" y="-0.0389238" fill="rgb(47,79,79)">STARPORT</text><text font-family="Calibri" font-size="0.21" font-weight="bold" text-anchor="middle" x="0" y="0.217424" fill="rgb(47,79,79)">TYPE</text></g><text transform="translate(1033.5,-357.5) scale(1.1547 1)" font-family="Calibri" font-size="0.21" font-weight="bold" text-anchor="middle" x="0" y="0.08925" fill="rgb(47,79,79)">GAS GIANT</text><g transform="translate(1033.5,-356.5) scale(1.1547 1)"><text font-family="Calibri" font-size="0.21" font-weight="bold" text-anchor="middle" x="0" y="-0.0389238" fill="rgb(47,79,79)"/><text font-family="Calibri" font-size="0.21" font-weight="bold" text-anchor="middle" x="0" y="0.217424" fill="rgb(47,79,79)">ALLEGIANCE</text></g><g transform="translate(1032.5,-356) scale(1.1547 1)"><text font-family="Calibri" font-size="0.21" font-weight="bold" text-anchor="middle" x="0" y="-0.0389238" fill="rgb(47,79,79)">WORLD</text><text font-family="Calibri" font-size="0.21" font-weight="bold" text-anchor="middle" x="0" y="0.217424" fill="rgb(47,79,79)">NAME</text></g><g transform="translate(1031.5,-356.5) scale(1.1547 1)"><text font-family="Calibri" font-size="0.21" font-weight="bold" text-anchor="middle" x="0" y="-0.0389238" fill="rgb(47,79,79)">X-BOAT</text><text font-family="Calibri" font-size="0.21" font-weight="bold" text-anchor="middle" x="0" y="0.217424" fill="rgb(47,79,79)">ROUTE</text></g><text transform="translate(1031.5,-357.5) scale(1.1547 1)" font-family="Calibri" font-size="0.21" font-weight="bold" text-anchor="middle" x="0" y="0.08925" fill="rgb(47,79,79)">BASES</text><g transform="translate(1033.5,-354.5) scale(1.1547 1)"><text font-family="Calibri" font-size="0.21" font-weight="bold" text-anchor="middle" x="0" y="-0.0389238" fill="rgb(47,79,79)">NO</text><text font-family="Calibri" font-size="0.21" font-weight="bold" text-anchor="middle" x="0" y="0.217424" fill="rgb(47,79,79)">GAS GIANT</text></g><g transform="translate(1031.5,-354.5) scale(1.1547 1)"><text font-family="Calibri" font-size="0.21" font-weight="bold" text-anchor="middle" x="0" y="-0.0389238" fill="rgb(47,79,79)">TRAVEL</text><text font-family="Calibri" font-size="0.21" font-weight="bold" text-anchor="middle" x="0" y="0.217424" fill="rgb(47,79,79)">ZONE</text></g><text transform="translate(1031.5,-353.5) scale(1.1547 1)" font-family="Calibri" font-size="0.21" font-weight="bold" text-anchor="middle" x="0" y="0.08925" fill="rgb(47,79,79)">BORDER</text><g transform="translate(1032.5,-357) scale(1.1547 1)"><path transform="scale(0.866025 1) scale(0.95 0.95)" d="M-0.333333,-0.5h0.666667l0.333333,0.5l-0.333333,0.5h-0.666667l-0.333333,-0.5l0.333333,-0.5Z" stroke="rgb(128,198,118)" stroke-width="0.05"/><text font-family="Calibri" font-size="0.21" text-anchor="middle" x="0" y="-0.3115" fill="rgb(0,0,0)">1003</text></g><g clip-path="url(#did3)"><path clip-path="url(#did4)" d="M1031.17,-352l-0.333252,-0.5l0.333252,-0.5h0.666748l0.333252,-0.5h0.666748l0.333252,-0.5h0.666748l0.333252,-0.5h0.666748l0.333252,0.5l-0.333252,0.5l0.333252,0.5l-0.333252,0.5l0.333252,0.5l-0.333252,0.5h-0.666748l-0.333252,0.5h-0.666748l-0.333252,0.5h-0.666748l-0.333252,0.5h-0.666748l-0.333252,-0.5l0.333252,-0.5l-0.333252,-0.5l0.333252,-0.5Z" stroke="rgb(227,39,54)" stroke-width="0.11" stroke-dasharray="0.11 0.11"/></g></g><g transform="translate(1032.5,-357) scale(1.1547 1)"><g transform="translate(0,-0.23)"><circle r="0.05" cx="0" cy="0" fill="rgb(0,0,0)"/><ellipse transform="rotate(-30)" rx="0.0875" ry="0.02" cx="0" cy="0" stroke="rgb(0,0,0)" stroke-width="0.0125"/></g><text font-family="Calibri" font-size="0.21" font-style="italic" text-anchor="middle" x="0.175" y="0.25925" fill="rgb(0,0,0)">A-0</text><text font-family="Arial" font-size="0.21" font-weight="bold" text-anchor="middle" x="-0.22" y="-0.12075" fill="rgb(0,0,0)">★</text><circle transform="translate(-0.11,0.16)" r="0.11" cx="0" cy="0" stroke="rgb(169,169,169)" stroke-width="0.03125" fill="rgb(189,183,107)"/><text font-family="Calibri" font-size="0.21" text-anchor="middle" x="0" y="0.04925" fill="rgb(0,0,0)">LACIPYT</text></g><line clip-path="url(#did5)" x1="1031.72" y1="-356.612" x2="1032.28" y2="-356.888" stroke="rgb(4,129,4)" stroke-width="0.08"/></g></svg>