<?xml version = "1.0" encoding="utf-8"?>
<svg version="1.1" baseProfile="full" xmlns="http://www.w3.org/2000/svg" xmlns:xlink="http://www.w3.org/1999/xlink" width="205" height="211"><defs><clipPath id="did1"><path d="M1031.17,-357l-0.333252,-0.5l0.333252,-0.5h0.666748l0.333252,-0.5h0.666748l0.333252,0.5h0.666748l0.333252,0.5l-0.333252,0.5l0.333252,0.5l-0.333252,0.5h-0.666748l-0.333252,0.5h-0.666748l-0.333252,-0.5h-0.666748l-0.333252,-0.5l0.333252,-0.5Z"/></clipPath><clipPath id="did2"><path d="M1023.17,-359l-0.333374,-0.5l0.333374,-0.5h0.666626l0.333313,0.5h0.666748l0.333252,-0.5h0.666748l0.333252,0.5h0.666748l0.333252,-0.5h0.666748l0.333252,0.5h0.666748l0.333252,-0.5h0.666748l0.333252,0.5h0.666748l0.333252,-0.5h0.666748l0.333252,0.5h0.666748l0.333252,-0.5h0.666748l0.333252,0.5h0.666748l0.333252,-0.5h0.666748l0.333252,0.5h0.666748l0.333252,-0.5h0.666748l0.333252,0.5h0.666748l0.333252,-0.5h0.666748l0.333252,0.5h0.666748l0.333252,-0.5h0.666748l0.333252,0.5h0.666748l0.333252,-0.5h0.666748l0.333252,0.5h0.666748l0.333252,-0.5h0.666748l0.333252,0.5h0.666748l0.333252,-0.5h0.666748l0.333252,0.5h0.666748l0.333252,-0.5h0.666748l0.333252,0.5h0.666748l0.333252,-0.5h0.666748l0.333252,0.5h0.666748l0.333252,-0.5h0.666748l0.333252,0.5h0.666748l0.333252,0.5l-0.333252,0.5l0.333252,0.5l-0.333252,0.5l0.333252,0.5l-0.333252,0.5l0.333252,0.5l-0.333252,0.5l0.333252,0.5l-0.333252,0.5l0.333252,0.5l-0.333252,0.5l0.333252,0.5l-0.333252,0.5l0.333252,0.5l-0.333252,0.5l0.333252,0.5l-0.333252,0.5l0.333252,0.5l-0.333252,0.5l0.333252,0.5l-0.333252,0.5l0.333252,0.5l-0.333252,0.5l0.333252,0.5l-0.333252,0.5l0.333252,0.5l-0.333252,0.5l0.333252,0.5l-0.333252,0.5l0.333252,0.5l-0.333252,0.5l0.333252,0.5l-0.333252,0.5l0.333252,0.5l-0.333252,0.5l0.333252,0.5l-0.333252,0.5l0.333252,0.5l-0.333252,0.5l0.333252,0.5l-0.333252,0.5l0.333252,0.5l-0.333252,0.5l0.333252,0.5l-0.333252,0.5l0.333252,0.5l-0.333252,0.5l0.333252,0.5l-0.333252,0.5l0.333252,0.5l-0.333252,0.5l0.333252,0.5l-0.333252,0.5l0.333252,0.5l-0.333252,0.5l0.333252,0.5l-0.333252,0.5l0.333252,0.5l-0.333252,0.5l0.333252,0.5l-0.333252,0.5l0.333252,0.5l-0.333252,0.5l0.333252,0.5l-0.333252,0.5l0.333252,0.5l-0.333252,0.5l0.333252,0.5l-0.333252,0.5l0.333252,0.5l-0.333252,0.5l0.333252,0.5l-0.333252,0.5l0.333252,0.5l-0.333252,0.5l0.333252,0.5l-0.333252,0.5l0.333252,0.5l-0.333252,0.5h-0.666748l-0.333252,-0.5h-0.666748l-0.333252,0.5h-0.666748l-0.333252,-0.5h-0.666748l-0.333252,0.5h-0.666748l-0.333252,-0.5h-0.666748l-0.333252,0.5h-0.666748l-0.333252,-0.5h-0.666748l-0.333252,0.5h-0.666748l-0.333252,-0.5h-0.666748l-0.333252,0.5h-0.666748l-0.333252,-0.5h-0.666748l-0.333252,0.5h-0.666748l-0.333252,-0.5h-0.666748l-0.333252,0.5h-0.666748l-0.333252,-0.5h-0.666748l-0.333252,0.5h-0.666748l-0.333252,-0.5h-0.666748l-0.333252,0.5h-0.666748l-0.333252,-0.5h-0.666748l-0.333252,0.5h-0.666748l-0.333252,-0.5h-0.666748l-0.333252,0.5h-0.666748l-0.333252,-0.5h-0.666748l-0.333252,0.5h-0.666748l-0.333252,-0.5h-0.666748l-0.333252,0.5h-0.666748l-0.333252,-0.5h-0.666748l-0.333252,0.5h-0.666748l-0.333252,-0.5h-0.666748l-0.333252,0.5h-0.666748l-0.333313,-0.5h-0.666626l-0.333374,-0.5l0.333374,-0.5l-0.333374,-0.5l0.333374,-0.5l-0.333374,-0.5l0.333374,-0.5l-0.333374,-0.5l0.333374,-0.5l-0.333374,-0.5l0.333374,-0.5l-0.333374,-0.5l0.333374,-0.5l-0.333374,-0.5l0.333374,-0.5l-0.333374,-0.5l0.333374,-0.5l-0.333374,-0.5l0.333374,-0.5l-0.333374,-0.5l0.333374,-0.5l-0.333374,-0.5l0.333374,-0.5l-0.333374,-0.5l0.333374,-0.5l-0.333374,-0.5l0.333374,-0.5l-0.333374,-0.5l0.333374,-0.5l-0.333374,-0.5l0.333374,-0.5l-0.333374,-0.5l0.333374,-0.5l-0.333374,-0.5l0.333374,-0.5l-0.333374,-0.5l0.333374,-0.5l-0.333374,-0.5l0.333374,-0.5l-0.333374,-0.5l0.333374,-0.5l-0.333374,-0.5l0.333374,-0.5l-0.333374,-0.5l0.333374,-0.5l-0.333374,-0.5l0.333374,-0.5l-0.333374,-0.5l0.333374,-0.5l-0.333374,-0.5l0.333374,-0.5l-0.333374,-0.5l0.333374,-0.5l-0.333374,-0.5l0.333374,-0.5l-0.333374,-0.5l0.333374,-0.5l-0.333374,-0.5l0.333374,-0.5l-0.333374,-0.5l0.333374,-0.5l-0.333374,-0.5l0.333374,-0.5l-0.333374,-0.5l0.333374,-0.5l-0.333374,-0.5l0.333374,-0.5l-0.333374,-0.5l0.333374,-0.5l-0.333374,-0.5l0.333374,-0.5l-0.333374,-0.5l0.333374,-0.5l-0.333374,-0.5l0.333374,-0.5l-0.333374,-0.5l0.333374,-0.5l-0.333374,-0.5l0.333374,-0.5Z"/></clipPath><clipPath id="did3"><path d="M1031.17,-352l-0.333252,-0.5l0.333252,-0.5h0.666748l0.333252,-0.5h0.666748l0.333252,-0.5h0.666748l0.333252,-0.5h0.666748l0.333252,0.5l-0.333252,0.5l0.333252,0.5l-0.333252,0.5l0.333252,0.5l-0.333252,0.5h-0.666748l-0.333252,0.5h-0.666748l-0.333252,0.5h-0.666748l-0.333252,0.5h-0.666748l-0.333252,-0.5l0.333252,-0.5l-0.333252,-0.5l0.333252,-0.5Z"/></clipPath></defs><g fill="None" stroke="None" transform="matrix(1,0,0,1,0,0) matrix(55.4256,0,0,64,-57124.4,22953.6)"><g clip-path="url(#did1)"><rect x="1030.65" y="-358.65" width="3.7" height="3.3" fill="rgb(255,255,255)"/><path d="M1028.83,-359.5v0l0.333252,0.5h0.666748l0.333252,-0.5" stroke="rgb(128,128,128)" stroke-width="0.015625"/><path d="M1028.83,-358.5v0l0.333252,0.5h0.666748l0.333252,-0.5" stroke="rgb(128,128,128)" stroke-width="0.015625"/><path d="M1028.83,-357.5v0l0.333252,0.5h0.666748l0.333252,-0.5" stroke="rgb(128,128,128)" stroke-width="0.015625"/><path d="M1028.83,-356.5v0l0.333252,0.5h0.666748l0.333252,-0.5" stroke="rgb(128,128,128)" stroke-width="0.015625"/><path d="M1028.83,-355.5v0l0.333252,0.5h0.666748l0.333252,-0.5" stroke="rgb(128,128,128)" stroke-width="0.015625"/><path d="M1028.83,-354.5v0l0.333252,0.5h0.666748l0.333252,-0.5" stroke="rgb(128,128,128)" stroke-width="0.015625"/><path d="M1029.83,-359v0l0.333252,0.5h0.666748l0.333252,-0.5" stroke="rgb(128,128,128)" stroke-width="0.015625"/><path d="M1029.83,-358v0l0.333252,0.5h0.666748l0.333252,-0.5" stroke="rgb(128,128,128)" stroke-width="0.015625"/><path d="M1029.83,-357v0l0.333252,0.5h0.666748l0.333252,-0.5" stroke="rgb(128,128,128)" stroke-width="0.015625"/><path d="M1029.83,-356v0l0.333252,0.5h0.666748l0.333252,-0.5" stroke="rgb(128,128,128)" stroke-width="0.015625"/><path d="M1029.83,-355v0l0.333252,0.5h0.666748l0.333252,-0.5" stroke="rgb(128,128,128)" stroke-width="0.015625"/><path d="M1029.83,-354v0l0.333252,0.5h0.666748l0.333252,-0.5" stroke="rgb(128,128,128)" stroke-width="0.015625"/><path d="M1030.83,-359.5v0l0.333252,0.5h0.666748l0.333252,-0.5" stroke="rgb(128,128,128)" stroke-width="0.015625"/><path d="M1030.83,-358.5v0l0.333252,0.5h0.666748l0.333252,-0.5" stroke="rgb(128,128,128)" stroke-width="0.015625"/><path d="M1030.83,-357.5v0l0.333252,0.5h0.666748l0.333252,-0.5" stroke="rgb(128,128,128)" stroke-width="0.015625"/><path d="M1030.83,-356.5v0l0.333252,0.5h0.666748l0.333252,-0.5" stroke="rgb(128,128,128)" stroke-width="0.015625"/><path d="M1030.83,-355.5v0l0.333252,0.5h0.666748l0.333252,-0.5" stroke="rgb(128,128,128)" stroke-width="0.015625"/><path d="M1030.83,-354.5v0l0.333252,0.5h0.666748l0.333252,-0.5" stroke="rgb(128,128,128)" stroke-width="0.015625"/><path d="M1031.83,-359v0l0.333252,0.5h0.666748l0.333252,-0.5" stroke="rgb(128,128,128)" stroke-width="0.015625"/><path d="M1031.83,-358v0l0.333252,0.5h0.666748l0.333252,-0.5" stroke="rgb(128,128,128)" stroke-width="0.015625"/><path d="M1031.83,-357v0l0.333252,0.5h0.666748l0.333252,-0.5" stroke="rgb(128,128,128)" stroke-width="0.015625"/><path d="M1031.83,-356v0l0.333252,0.5h0.666748l0.333252,-0.5" stroke="rgb(128,128,128)" stroke-width="0.015625"/><path d="M1031.83,-355v0l0.333252,0.5h0.666748l0.333252,-0.5" stroke="rgb(128,128,128)" stroke-width="0.015625"/><path d="M1031.83,-354v0l0.333252,0.5h0.666748l0.333252,-0.5" stroke="rgb(128,128,128)" stroke-width="0.015625"/><path d="M1032.83,-359.5v0l0.333252,0.5h0.666748l0.333252,-0.5" stroke="rgb(128,128,128)" stroke-width="0.015625"/><path d="M1032.83,-358.5v0l0.333252,0.5h0.666748l0.333252,-0.5" stroke="rgb(128,128,128)" stroke-width="0.015625"/><path d="M1032.83,-357.5v0l0.333252,0.5h0.666748l0.333252,-0.5" stroke="rgb(128,128,128)" stroke-width="0.015625"/><path d="M1032.83,-356.5v0l0.333252,0.5h0.666748l0.333252,-0.5" stroke="rgb(128,128,128)" stroke-width="0.015625"/><path d="M1032.83,-355.5v0l0.333252,0.5h0.666748l0.333252,-0.5" stroke="rgb(128,128,128)" stroke-width="0.015625"/><path d="M1032.83,-354.5v0l0.333252,0.5h0.666748l0.333252,-0.5" stroke="rgb(128,128,128)" stroke-width="0.015625"/><path d="M1033.83,-359v0l0.333252,0.5h0.666748l0.333252,-0.5" stroke="rgb(128,128,128)" stroke-width="0.015625"/><path d="M1033.83,-358v0l0.333252,0.5h0.666748l0.333252,-0.5" stroke="rgb(128,128,128)" stroke-width="0.015625"/><path d="M1033.83,-357v0l0.333252,0.5h0.666748l0.333252,-0.5" stroke="rgb(128,128,128)" stroke-width="0.015625"/><path d="M1033.83,-356v0l0.333252,0.5h0.666748l0.333252,-0.5" stroke="rgb(128,128,128)" stroke-width="0.015625"/><path d="M1033.83,-355v0l0.333252,0.5h0.666748l0.333252,-0.5" stroke="rgb(128,128,128)" stroke-width="0.015625"/><path d="M1033.83,-354v0l0.333252,0.5h0.666748l0.333252,-0.5" stroke="rgb(128,128,128)" stroke-width="0.015625"/><g clip-path="url(#did2)"><path clip-path="url(#did3)" d="M1031.17,-352l-0.333252,-0.5l0.333252,-0.5h0.666748l0.333252,-0.5h0.666748l0.333252,-0.5h0.666748l0.333252,-0.5h0.666748l0.333252,0.5l-0.333252,0.5l0.333252,0.5l-0.333252,0.5l0.333252,0.5l-0.333252,0.5h-0.666748l-0.333252,0.5h-0.666748l-0.333252,0.5h-0.666748l-0.333252,0.5h-0.666748l-0.333252,-0.5l0.333252,-0.5l-0.333252,-0.5l0.333252,-0.5Z" stroke="rgb(255,0,0)" stroke-width="0.16"/></g><line x1="1031.72" y1="-356.612" x2="1032.28" y2="-356.888" stroke="rgb(0,128,0)" stroke-width="0.08"/><g transform="translate(1028.5,-359) scale(1.1547 1)"><text font-family="Arial" font-size="0.35" font-weight="bold" text-anchor="middle" x="0" y="-0.0524829" fill="rgb(165,42,42)">World</text><text font-family="Arial" font-size="0.35" font-weight="bold" text-anchor="middle" x="0" y="0.349983" fill="rgb(165,42,42)">Characteristics</text></g><text transform="translate(1028.5,-355) scale(1.1547 1)" font-family="Arial" font-size="0.35" font-weight="bold" text-anchor="middle" x="0" y="0.14875" fill="rgb(165,42,42)">Population</text><text transform="translate(1036.5,-359) scale(1.1547 1)" font-family="Arial" font-size="0.35" font-weight="bold" text-anchor="middle" x="0" y="0.14875" fill="rgb(165,42,42)">Travel Zones</text><text transform="translate(1036.5,-355) scale(1.1547 1)" font-family="Arial" font-size="0.35" font-weight="bold" text-anchor="middle" x="0" y="0.14875" fill="rgb(165,42,42)">Bases</text><text transform="translate(1032.5,-359) scale(1.1547 1)" font-family="Arial" font-size="0.35" font-weight="bold" text-anchor="middle" x="0" y="0.14875" fill="rgb(165,42,42)">Map Legend</text><g transform="translate(1032.5,-358) scale(1.1547 1)"><text font-family="Arial" font-size="0.21" font-weight="bold" text-anchor="middle" x="0" y="-0.0314897" fill="rgb(165,42,42)">Starport</text><text font-family="Arial" font-size="0.21" font-weight="bold" text-anchor="middle" x="0" y="0.20999" fill="rgb(165,42,42)">Type</text></g><text transform="translate(1033.5,-357.5) scale(1.1547 1)" font-family="Arial" font-size="0.21" font-weight="bold" text-anchor="middle" x="0" y="0.08925" fill="rgb(165,42,42)">Gas Giant</text><g transform="translate(1033.5,-356.5) scale(1.1547 1)"><text font-family="Arial" font-size="0.21" font-weight="bold" text-anchor="middle" x="0" y="-0.0314897" fill="rgb(165,42,42)"/><text font-family="Arial" font-size="0.21" font-weight="bold" text-anchor="middle" x="0" y="0.20999" fill="rgb(165,42,42)">Allegiance</text></g><g transform="translate(1032.5,-356) scale(1.1547 1)"><text font-family="Arial" font-size="0.21" font-weight="bold" text-anchor="middle" x="0" y="-0.0314897" fill="rgb(165,42,42)">World</text><text font-family="Arial" font-size="0.21" font-weight="bold" text-anchor="middle" x="0" y="0.20999" fill="rgb(165,42,42)">Name</text></g><g transform="translate(1031.5,-356.5) scale(1.1547 1)"><text font-family="Arial" font-size="0.21" font-weight="bold" text-anchor="middle" x="0" y="-0.0314897" fill="rgb(165,42,42)">X-Boat</text><text font-family="Arial" font-size="0.21" font-weight="bold" text-anchor="middle" x="0" y="0.20999" fill="rgb(165,42,42)">Route</text></g><text transform="translate(1031.5,-357.5) scale(1.1547 1)" font-family="Arial" font-size="0.21" font-weight="bold" text-anchor="middle" x="0" y="0.08925" fill="rgb(165,42,42)">Bases</text><g transform="translate(1033.5,-354.5) scale(1.1547 1)"><text font-family="Arial" font-size="0.21" font-weight="bold" text-anchor="middle" x="0" y="-0.0314897" fill="rgb(165,42,42)">No</text><text font-family="Arial" font-size="0.21" font-weight="bold" text-anchor="middle" x="0" y="0.20999" fill="rgb(165,42,42)">Gas Giant</text></g><g transform="translate(1031.5,-354.5) scale(1.1547 1)"><text font-family="Arial" font-size="0.21" font-weight="bold" text-anchor="middle" x="0" y="-0.0314897" fill="rgb(165,42,42)">Travel</text><text font-family="Arial" font-size="0.21" font-weight="bold" text-anchor="middle" x="0" y="0.20999" fill="rgb(165,42,42)">Zone</text></g><text transform="translate(1031.5,-353.5) scale(1.1547 1)" font-family="Arial" font-size="0.21" font-weight="bold" text-anchor="middle" x="0" y="0.08925" fill="rgb(165,42,42)">Border</text></g><text transform="translate(1032.5,-357) scale(1.1547 1)" font-family="Arial" font-size="0.14" text-anchor="middle" x="0" y="-0.381" fill="rgb(169,169,169)">1003</text><g transform="translate(1032.5,-357) scale(1.1547 1)"><rect x="-0.413626" y="0.23957" width="0.827251" height="0.260859" fill="rgb(255,255,255)"/><text font-family="Arial" font-size="0.21" font-weight="bold" text-anchor="middle" x="0" y="0.45925" fill="rgb(0,0,0)">Lacipyt</text><text font-family="Arial" font-size="0.14" text-anchor="middle" x="0.25" y="0.2395" fill="rgb(0,0,0)">Cs</text><circle transform="translate(0.25,-0.18)" r="0.05" cx="0" cy="0" fill="rgb(0,0,0)"/><rect x="-0.113084" y="-0.35543" width="0.226167" height="0.260859" fill="rgb(255,255,255)"/><text font-family="Arial" font-size="0.21" font-weight="bold" text-anchor="middle" x="0" y="-0.13575" fill="rgb(0,0,0)">A</text><text font-family="Arial" font-size="0.21" font-weight="bold" text-anchor="middle" x="-0.25" y="-0.09075" fill="rgb(0,0,0)">★</text><circle r="0.1" cx="0" cy="0" stroke="rgb(0,0,0)" stroke-width="0.015625" fill="rgb(255,255,255)"/></g></g></svg>