<?xml version = "1.0" encoding="utf-8"?>
<svg version="1.1" baseProfile="full" xmlns="http://www.w3.org/2000/svg" xmlns:xlink="http://www.w3.org/1999/xlink" width="205" height="211" viewBox="0 0 205 211" clip="0 205 0 211"><defs><clipPath id="did1"><path d="M1031.17,-357l-0.333252,-0.5l0.333252,-0.5h0.666748l0.333252,-0.5h0.666748l0.333252,0.5h0.666748l0.333252,0.5l-0.333252,0.5l0.333252,0.5l-0.333252,0.5h-0.666748l-0.333252,0.5h-0.666748l-0.333252,-0.5h-0.666748l-0.333252,-0.5l0.333252,-0.5Z"/></clipPath><clipPath id="did2"><path d="M1023.17,-359l-0.333374,-0.5l0.333374,-0.5h0.666626l0.333313,0.5h0.666748l0.333252,-0.5h0.666748l0.333252,0.5h0.666748l0.333252,-0.5h0.666748l0.333252,0.5h0.666748l0.333252,-0.5h0.666748l0.333252,0.5h0.666748l0.333252,-0.5h0.666748l0.333252,0.5h0.666748l0.333252,-0.5h0.666748l0.333252,0.5h0.666748l0.333252,-0.5h0.666748l0.333252,0.5h0.666748l0.333252,-0.5h0.666748l0.333252,0.5h0.666748l0.333252,-0.5h0.666748l0.333252,0.5h0.666748l0.333252,-0.5h0.666748l0.333252,0.5h0.666748l0.333252,-0.5h0.666748l0.333252,0.5h0.666748l0.333252,-0.5h0.666748l0.333252,0.5h0.666748l0.333252,-0.5h0.666748l0.333252,0.5h0.666748l0.333252,-0.5h0.666748l0.333252,0.5h0.666748l0.333252,-0.5h0.666748l0.333252,0.5h0.666748l0.333252,-0.5h0.666748l0.333252,0.5h0.666748l0.333252,0.5l-0.333252,0.5l0.333252,0.5l-0.333252,0.5l0.333252,0.5l-0.333252,0.5l0.333252,0.5l-0.333252,0.5l0.333252,0.5l-0.333252,0.5l0.333252,0.5l-0.333252,0.5l0.333252,0.5l-0.333252,0.5l0.333252,0.5l-0.333252,0.5l0.333252,0.5l-0.333252,0.5l0.333252,0.5l-0.333252,0.5l0.333252,0.5l-0.333252,0.5l0.333252,0.5l-0.333252,0.5l0.333252,0.5l-0.333252,0.5l0.333252,0.5l-0.333252,0.5l0.333252,0.5l-0.333252,0.5l0.333252,0.5l-0.333252,0.5l0.333252,0.5l-0.333252,0.5l0.333252,0.5l-0.333252,0.5l0.333252,0.5l-0.333252,0.5l0.333252,0.5l-0.333252,0.5l0.333252,0.5l-0.333252,0.5l0.333252,0.5l-0.333252,0.5l0.333252,0.5l-0.333252,0.5l0.333252,0.5l-0.333252,0.5l0.333252,0.5l-0.333252,0.5l0.333252,0.5l-0.333252,0.5l0.333252,0.5l-0.333252,0.5l0.333252,0.5l-0.333252,0.5l0.333252,0.5l-0.333252,0.5l0.333252,0.5l-0.333252,0.5l0.333252,0.5l-0.333252,0.5l0.333252,0.5l-0.333252,0.5l0.333252,0.5l-0.333252,0.5l0.333252,0.5l-0.333252,0.5l0.333252,0.5l-0.333252,0.5l0.333252,0.5l-0.333252,0.5l0.333252,0.5l-0.333252,0.5l0.333252,0.5l-0.333252,0.5l0.333252,0.5l-0.333252,0.5l0.333252,0.5l-0.333252,0.5h-0.666748l-0.333252,-0.5h-0.666748l-0.333252,0.5h-0.666748l-0.333252,-0.5h-0.666748l-0.333252,0.5h-0.666748l-0.333252,-0.5h-0.666748l-0.333252,0.5h-0.666748l-0.333252,-0.5h-0.666748l-0.333252,0.5h-0.666748l-0.333252,-0.5h-0.666748l-0.333252,0.5h-0.666748l-0.333252,-0.5h-0.666748l-0.333252,0.5h-0.666748l-0.333252,-0.5h-0.666748l-0.333252,0.5h-0.666748l-0.333252,-0.5h-0.666748l-0.333252,0.5h-0.666748l-0.333252,-0.5h-0.666748l-0.333252,0.5h-0.666748l-0.333252,-0.5h-0.666748l-0.333252,0.5h-0.666748l-0.333252,-0.5h-0.666748l-0.333252,0.5h-0.666748l-0.333252,-0.5h-0.666748l-0.333252,0.5h-0.666748l-0.333252,-0.5h-0.666748l-0.333252,0.5h-0.666748l-0.333252,-0.5h-0.666748l-0.333252,0.5h-0.666748l-0.333252,-0.5h-0.666748l-0.333252,0.5h-0.666748l-0.333313,-0.5h-0.666626l-0.333374,-0.5l0.333374,-0.5l-0.333374,-0.5l0.333374,-0.5l-0.333374,-0.5l0.333374,-0.5l-0.333374,-0.5l0.333374,-0.5l-0.333374,-0.5l0.333374,-0.5l-0.333374,-0.5l0.333374,-0.5l-0.333374,-0.5l0.333374,-0.5l-0.333374,-0.5l0.333374,-0.5l-0.333374,-0.5l0.333374,-0.5l-0.333374,-0.5l0.333374,-0.5l-0.333374,-0.5l0.333374,-0.5l-0.333374,-0.5l0.333374,-0.5l-0.333374,-0.5l0.333374,-0.5l-0.333374,-0.5l0.333374,-0.5l-0.333374,-0.5l0.333374,-0.5l-0.333374,-0.5l0.333374,-0.5l-0.333374,-0.5l0.333374,-0.5l-0.333374,-0.5l0.333374,-0.5l-0.333374,-0.5l0.333374,-0.5l-0.333374,-0.5l0.333374,-0.5l-0.333374,-0.5l0.333374,-0.5l-0.333374,-0.5l0.333374,-0.5l-0.333374,-0.5l0.333374,-0.5l-0.333374,-0.5l0.333374,-0.5l-0.333374,-0.5l0.333374,-0.5l-0.333374,-0.5l0.333374,-0.5l-0.333374,-0.5l0.333374,-0.5l-0.333374,-0.5l0.333374,-0.5l-0.333374,-0.5l0.333374,-0.5l-0.333374,-0.5l0.333374,-0.5l-0.333374,-0.5l0.333374,-0.5l-0.333374,-0.5l0.333374,-0.5l-0.333374,-0.5l0.333374,-0.5l-0.333374,-0.5l0.333374,-0.5l-0.333374,-0.5l0.333374,-0.5l-0.333374,-0.5l0.333374,-0.5l-0.333374,-0.5l0.333374,-0.5l-0.333374,-0.5l0.333374,-0.5l-0.333374,-0.5l0.333374,-0.5Z"/></clipPath><clipPath id="did3"><path d="M1023.17,-359l-0.333374,-0.5l0.333374,-0.5h0.666626l0.333313,0.5h0.666748l0.333252,-0.5h0.666748l0.333252,0.5h0.666748l0.333252,-0.5h0.666748l0.333252,0.5h0.666748l0.333252,-0.5h0.666748l0.333252,0.5h0.666748l0.333252,-0.5h0.666748l0.333252,0.5h0.666748l0.333252,-0.5h0.666748l0.333252,0.5h0.666748l0.333252,-0.5h0.666748l0.333252,0.5h0.666748l0.333252,-0.5h0.666748l0.333252,0.5h0.666748l0.333252,-0.5h0.666748l0.333252,0.5h0.666748l0.333252,-0.5h0.666748l0.333252,0.5h0.666748l0.333252,-0.5h0.666748l0.333252,0.5h0.666748l0.333252,-0.5h0.666748l0.333252,0.5h0.666748l0.333252,-0.5h0.666748l0.333252,0.5h0.666748l0.333252,-0.5h0.666748l0.333252,0.5h0.666748l0.333252,-0.5h0.666748l0.333252,0.5h0.666748l0.333252,-0.5h0.666748l0.333252,0.5h0.666748l0.333252,0.5l-0.333252,0.5l0.333252,0.5l-0.333252,0.5l0.333252,0.5l-0.333252,0.5l0.333252,0.5l-0.333252,0.5l0.333252,0.5l-0.333252,0.5l0.333252,0.5l-0.333252,0.5l0.333252,0.5l-0.333252,0.5l0.333252,0.5l-0.333252,0.5l0.333252,0.5l-0.333252,0.5l0.333252,0.5l-0.333252,0.5l0.333252,0.5l-0.333252,0.5l0.333252,0.5l-0.333252,0.5l0.333252,0.5l-0.333252,0.5l0.333252,0.5l-0.333252,0.5l0.333252,0.5l-0.333252,0.5l0.333252,0.5l-0.333252,0.5l0.333252,0.5l-0.333252,0.5l0.333252,0.5l-0.333252,0.5l0.333252,0.5l-0.333252,0.5l0.333252,0.5l-0.333252,0.5l0.333252,0.5l-0.333252,0.5l0.333252,0.5l-0.333252,0.5l0.333252,0.5l-0.333252,0.5l0.333252,0.5l-0.333252,0.5l0.333252,0.5l-0.333252,0.5l0.333252,0.5l-0.333252,0.5l0.333252,0.5l-0.333252,0.5l0.333252,0.5l-0.333252,0.5l0.333252,0.5l-0.333252,0.5l0.333252,0.5l-0.333252,0.5l0.333252,0.5l-0.333252,0.5l0.333252,0.5l-0.333252,0.5l0.333252,0.5l-0.333252,0.5l0.333252,0.5l-0.333252,0.5l0.333252,0.5l-0.333252,0.5l0.333252,0.5l-0.333252,0.5l0.333252,0.5l-0.333252,0.5l0.333252,0.5l-0.333252,0.5l0.333252,0.5l-0.333252,0.5l0.333252,0.5l-0.333252,0.5h-0.666748l-0.333252,-0.5h-0.666748l-0.333252,0.5h-0.666748l-0.333252,-0.5h-0.666748l-0.333252,0.5h-0.666748l-0.333252,-0.5h-0.666748l-0.333252,0.5h-0.666748l-0.333252,-0.5h-0.666748l-0.333252,0.5h-0.666748l-0.333252,-0.5h-0.666748l-0.333252,0.5h-0.666748l-0.333252,-0.5h-0.666748l-0.333252,0.5h-0.666748l-0.333252,-0.5h-0.666748l-0.333252,0.5h-0.666748l-0.333252,-0.5h-0.666748l-0.333252,0.5h-0.666748l-0.333252,-0.5h-0.666748l-0.333252,0.5h-0.666748l-0.333252,-0.5h-0.666748l-0.333252,0.5h-0.666748l-0.333252,-0.5h-0.666748l-0.333252,0.5h-0.666748l-0.333252,-0.5h-0.666748l-0.333252,0.5h-0.666748l-0.333252,-0.5h-0.666748l-0.333252,0.5h-0.666748l-0.333252,-0.5h-0.666748l-0.333252,0.5h-0.666748l-0.333252,-0.5h-0.666748l-0.333252,0.5h-0.666748l-0.333313,-0.5h-0.666626l-0.333374,-0.5l0.333374,-0.5l-0.333374,-0.5l0.333374,-0.5l-0.333374,-0.5l0.333374,-0.5l-0.333374,-0.5l0.333374,-0.5l-0.333374,-0.5l0.333374,-0.5l-0.333374,-0.5l0.333374,-0.5l-0.333374,-0.5l0.333374,-0.5l-0.333374,-0.5l0.333374,-0.5l-0.333374,-0.5l0.333374,-0.5l-0.333374,-0.5l0.333374,-0.5l-0.333374,-0.5l0.333374,-0.5l-0.333374,-0.5l0.333374,-0.5l-0.333374,-0.5l0.333374,-0.5l-0.333374,-0.5l0.333374,-0.5l-0.333374,-0.5l0.333374,-0.5l-0.333374,-0.5l0.333374,-0.5l-0.333374,-0.5l0.333374,-0.5l-0.333374,-0.5l0.333374,-0.5l-0.333374,-0.5l0.333374,-0.5l-0.333374,-0.5l0.333374,-0.5l-0.333374,-0.5l0.333374,-0.5l-0.333374,-0.5l0.333374,-0.5l-0.333374,-0.5l0.333374,-0.5l-0.333374,-0.5l0.333374,-0.5l-0.333374,-0.5l0.333374,-0.5l-0.333374,-0.5l0.333374,-0.5l-0.333374,-0.5l0.333374,-0.5l-0.333374,-0.5l0.333374,-0.5l-0.333374,-0.5l0.333374,-0.5l-0.333374,-0.5l0.333374,-0.5l-0.333374,-0.5l0.333374,-0.5l-0.333374,-0.5l0.333374,-0.5l-0.333374,-0.5l0.333374,-0.5l-0.333374,-0.5l0.333374,-0.5l-0.333374,-0.5l0.333374,-0.5l-0.333374,-0.5l0.333374,-0.5l-0.333374,-0.5l0.333374,-0.5l-0.333374,-0.5l0.333374,-0.5l-0.333374,-0.5l0.333374,-0.5Z"/></clipPath><clipPath id="did4"><path d="M1031.17,-352l-0.333252,-0.5l0.333252,-0.5h0.666748l0.333252,-0.5h0.666748l0.333252,-0.5h0.666748l0.333252,-0.5h0.666748l0.333252,0.5l-0.333252,0.5l0.333252,0.5l-0.333252,0.5l0.333252,0.5l-0.333252,0.5h-0.666748l-0.333252,0.5h-0.666748l-0.333252,0.5h-0.666748l-0.333252,0.5h-0.666748l-0.333252,-0.5l0.333252,-0.5l-0.333252,-0.5Z"/></clipPath><clipPath id="did5"><path d="M1031.17,-357l-0.333252,-0.5l0.333252,-0.5h0.666748l0.333252,-0.5h0.666748l0.333252,0.5h0.666748l0.333252,0.5l-0.333252,0.5l0.333252,0.5l-0.333252,0.5h-0.666748l-0.333252,0.5h-0.666748l-0.333252,-0.5h-0.666748l-0.333252,-0.5l0.333252,-0.5Z"/></clipPath><clipPath id="did6"><path d="M1031.17,-357l-0.333252,-0.5l0.333252,-0.5h0.666748l0.333252,-0.5h0.666748l0.333252,0.5h0.666748l0.333252,0.5l-0.333252,0.5l0.333252,0.5l-0.333252,0.5h-0.666748l-0.333252,0.5h-0.666748l-0.333252,-0.5h-0.666748l-0.333252,-0.5l0.333252,-0.5Z"/></clipPath></defs><g fill="None" stroke="None" transform="matrix(1,0,0,1,0,0) matrix(55.4256,0,0,64,-57124.4,22953.6)"><g clip-path="url(#did1)"><rect x="1030.28" y="-358.98" width="4.44" height="3.96" stroke="none" fill="AntiqueWhite"/><path d="M1028.83,-359.5v0l0.333252,0.5h0.666748l0.333252,-0.5" stroke="#008B8B" stroke-opacity="0.69" stroke-width="0.015625" fill="none"/><path d="M1028.83,-358.5v0l0.333252,0.5h0.666748l0.333252,-0.5" stroke="#008B8B" stroke-opacity="0.69" stroke-width="0.015625" fill="none"/><path d="M1028.83,-357.5v0l0.333252,0.5h0.666748l0.333252,-0.5" stroke="#008B8B" stroke-opacity="0.69" stroke-width="0.015625" fill="none"/><path d="M1028.83,-356.5v0l0.333252,0.5h0.666748l0.333252,-0.5" stroke="#008B8B" stroke-opacity="0.69" stroke-width="0.015625" fill="none"/><path d="M1028.83,-355.5v0l0.333252,0.5h0.666748l0.333252,-0.5" stroke="#008B8B" stroke-opacity="0.69" stroke-width="0.015625" fill="none"/><path d="M1028.83,-354.5v0l0.333252,0.5h0.666748l0.333252,-0.5" stroke="#008B8B" stroke-opacity="0.69" stroke-width="0.015625" fill="none"/><path d="M1029.83,-359v0l0.333252,0.5h0.666748l0.333252,-0.5" stroke="#008B8B" stroke-opacity="0.69" stroke-width="0.015625" fill="none"/><path d="M1029.83,-358v0l0.333252,0.5h0.666748l0.333252,-0.5" stroke="#008B8B" stroke-opacity="0.69" stroke-width="0.015625" fill="none"/><path d="M1029.83,-357v0l0.333252,0.5h0.666748l0.333252,-0.5" stroke="#008B8B" stroke-opacity="0.69" stroke-width="0.015625" fill="none"/><path d="M1029.83,-356v0l0.333252,0.5h0.666748l0.333252,-0.5" stroke="#008B8B" stroke-opacity="0.69" stroke-width="0.015625" fill="none"/><path d="M1029.83,-355v0l0.333252,0.5h0.666748l0.333252,-0.5" stroke="#008B8B" stroke-opacity="0.69" stroke-width="0.015625" fill="none"/><path d="M1029.83,-354v0l0.333252,0.5h0.666748l0.333252,-0.5" stroke="#008B8B" stroke-opacity="0.69" stroke-width="0.015625" fill="none"/><path d="M1030.83,-359.5v0l0.333252,0.5h0.666748l0.333252,-0.5" stroke="#008B8B" stroke-opacity="0.69" stroke-width="0.015625" fill="none"/><path d="M1030.83,-358.5v0l0.333252,0.5h0.666748l0.333252,-0.5" stroke="#008B8B" stroke-opacity="0.69" stroke-width="0.015625" fill="none"/><path d="M1030.83,-357.5v0l0.333252,0.5h0.666748l0.333252,-0.5" stroke="#008B8B" stroke-opacity="0.69" stroke-width="0.015625" fill="none"/><path d="M1030.83,-356.5v0l0.333252,0.5h0.666748l0.333252,-0.5" stroke="#008B8B" stroke-opacity="0.69" stroke-width="0.015625" fill="none"/><path d="M1030.83,-355.5v0l0.333252,0.5h0.666748l0.333252,-0.5" stroke="#008B8B" stroke-opacity="0.69" stroke-width="0.015625" fill="none"/><path d="M1030.83,-354.5v0l0.333252,0.5h0.666748l0.333252,-0.5" stroke="#008B8B" stroke-opacity="0.69" stroke-width="0.015625" fill="none"/><path d="M1031.83,-359v0l0.333252,0.5h0.666748l0.333252,-0.5" stroke="#008B8B" stroke-opacity="0.69" stroke-width="0.015625" fill="none"/><path d="M1031.83,-358v0l0.333252,0.5h0.666748l0.333252,-0.5" stroke="#008B8B" stroke-opacity="0.69" stroke-width="0.015625" fill="none"/><path d="M1031.83,-357v0l0.333252,0.5h0.666748l0.333252,-0.5" stroke="#008B8B" stroke-opacity="0.69" stroke-width="0.015625" fill="none"/><path d="M1031.83,-356v0l0.333252,0.5h0.666748l0.333252,-0.5" stroke="#008B8B" stroke-opacity="0.69" stroke-width="0.015625" fill="none"/><path d="M1031.83,-355v0l0.333252,0.5h0.666748l0.333252,-0.5" stroke="#008B8B" stroke-opacity="0.69" stroke-width="0.015625" fill="none"/><path d="M1031.83,-354v0l0.333252,0.5h0.666748l0.333252,-0.5" stroke="#008B8B" stroke-opacity="0.69" stroke-width="0.015625" fill="none"/><path d="M1032.83,-359.5v0l0.333252,0.5h0.666748l0.333252,-0.5" stroke="#008B8B" stroke-opacity="0.69" stroke-width="0.015625" fill="none"/><path d="M1032.83,-358.5v0l0.333252,0.5h0.666748l0.333252,-0.5" stroke="#008B8B" stroke-opacity="0.69" stroke-width="0.015625" fill="none"/><path d="M1032.83,-357.5v0l0.333252,0.5h0.666748l0.333252,-0.5" stroke="#008B8B" stroke-opacity="0.69" stroke-width="0.015625" fill="none"/><path d="M1032.83,-356.5v0l0.333252,0.5h0.666748l0.333252,-0.5" stroke="#008B8B" stroke-opacity="0.69" stroke-width="0.015625" fill="none"/><path d="M1032.83,-355.5v0l0.333252,0.5h0.666748l0.333252,-0.5" stroke="#008B8B" stroke-opacity="0.69" stroke-width="0.015625" fill="none"/><path d="M1032.83,-354.5v0l0.333252,0.5h0.666748l0.333252,-0.5" stroke="#008B8B" stroke-opacity="0.69" stroke-width="0.015625" fill="none"/><path d="M1033.83,-359v0l0.333252,0.5h0.666748l0.333252,-0.5" stroke="#008B8B" stroke-opacity="0.69" stroke-width="0.015625" fill="none"/><path d="M1033.83,-358v0l0.333252,0.5h0.666748l0.333252,-0.5" stroke="#008B8B" stroke-opacity="0.69" stroke-width="0.015625" fill="none"/><path d="M1033.83,-357v0l0.333252,0.5h0.666748l0.333252,-0.5" stroke="#008B8B" stroke-opacity="0.69" stroke-width="0.015625" fill="none"/><path d="M1033.83,-356v0l0.333252,0.5h0.666748l0.333252,-0.5" stroke="#008B8B" stroke-opacity="0.69" stroke-width="0.015625" fill="none"/><path d="M1033.83,-355v0l0.333252,0.5h0.666748l0.333252,-0.5" stroke="#008B8B" stroke-opacity="0.69" stroke-width="0.015625" fill="none"/><path d="M1033.83,-354v0l0.333252,0.5h0.666748l0.333252,-0.5" stroke="#008B8B" stroke-opacity="0.69" stroke-width="0.015625" fill="none"/><text transform="translate(1029.5,-360) scale(1.1547 1)" font-family="Arial" font-size="0.14" text-anchor="middle" x="0" y="0.119" fill="#008B8B" fill-opacity="0.69">0701</text><text transform="translate(1029.5,-359) scale(1.1547 1)" font-family="Arial" font-size="0.14" text-anchor="middle" x="0" y="0.119" fill="#008B8B" fill-opacity="0.69">0702</text><text transform="translate(1029.5,-358) scale(1.1547 1)" font-family="Arial" font-size="0.14" text-anchor="middle" x="0" y="0.119" fill="#008B8B" fill-opacity="0.69">0703</text><text transform="translate(1029.5,-357) scale(1.1547 1)" font-family="Arial" font-size="0.14" text-anchor="middle" x="0" y="0.119" fill="#008B8B" fill-opacity="0.69">0704</text><text transform="translate(1029.5,-356) scale(1.1547 1)" font-family="Arial" font-size="0.14" text-anchor="middle" x="0" y="0.119" fill="#008B8B" fill-opacity="0.69">0705</text><text transform="translate(1029.5,-355) scale(1.1547 1)" font-family="Arial" font-size="0.14" text-anchor="middle" x="0" y="0.119" fill="#008B8B" fill-opacity="0.69">0706</text><text transform="translate(1030.5,-359.5) scale(1.1547 1)" font-family="Arial" font-size="0.14" text-anchor="middle" x="0" y="0.119" fill="#008B8B" fill-opacity="0.69">0801</text><text transform="translate(1030.5,-358.5) scale(1.1547 1)" font-family="Arial" font-size="0.14" text-anchor="middle" x="0" y="0.119" fill="#008B8B" fill-opacity="0.69">0802</text><text transform="translate(1030.5,-357.5) scale(1.1547 1)" font-family="Arial" font-size="0.14" text-anchor="middle" x="0" y="0.119" fill="#008B8B" fill-opacity="0.69">0803</text><text transform="translate(1030.5,-356.5) scale(1.1547 1)" font-family="Arial" font-size="0.14" text-anchor="middle" x="0" y="0.119" fill="#008B8B" fill-opacity="0.69">0804</text><text transform="translate(1030.5,-355.5) scale(1.1547 1)" font-family="Arial" font-size="0.14" text-anchor="middle" x="0" y="0.119" fill="#008B8B" fill-opacity="0.69">0805</text><text transform="translate(1030.5,-354.5) scale(1.1547 1)" font-family="Arial" font-size="0.14" text-anchor="middle" x="0" y="0.119" fill="#008B8B" fill-opacity="0.69">0806</text><text transform="translate(1031.5,-360) scale(1.1547 1)" font-family="Arial" font-size="0.14" text-anchor="middle" x="0" y="0.119" fill="#008B8B" fill-opacity="0.69">0901</text><text transform="translate(1031.5,-359) scale(1.1547 1)" font-family="Arial" font-size="0.14" text-anchor="middle" x="0" y="0.119" fill="#008B8B" fill-opacity="0.69">0902</text><text transform="translate(1031.5,-358) scale(1.1547 1)" font-family="Arial" font-size="0.14" text-anchor="middle" x="0" y="0.119" fill="#008B8B" fill-opacity="0.69">0903</text><text transform="translate(1031.5,-357) scale(1.1547 1)" font-family="Arial" font-size="0.14" text-anchor="middle" x="0" y="0.119" fill="#008B8B" fill-opacity="0.69">0904</text><text transform="translate(1031.5,-356) scale(1.1547 1)" font-family="Arial" font-size="0.14" text-anchor="middle" x="0" y="0.119" fill="#008B8B" fill-opacity="0.69">0905</text><text transform="translate(1031.5,-355) scale(1.1547 1)" font-family="Arial" font-size="0.14" text-anchor="middle" x="0" y="0.119" fill="#008B8B" fill-opacity="0.69">0906</text><text transform="translate(1032.5,-359.5) scale(1.1547 1)" font-family="Arial" font-size="0.14" text-anchor="middle" x="0" y="0.119" fill="#008B8B" fill-opacity="0.69">1001</text><text transform="translate(1032.5,-358.5) scale(1.1547 1)" font-family="Arial" font-size="0.14" text-anchor="middle" x="0" y="0.119" fill="#008B8B" fill-opacity="0.69">1002</text><text transform="translate(1032.5,-357.5) scale(1.1547 1)" font-family="Arial" font-size="0.14" text-anchor="middle" x="0" y="0.119" fill="#008B8B" fill-opacity="0.69">1003</text><text transform="translate(1032.5,-356.5) scale(1.1547 1)" font-family="Arial" font-size="0.14" text-anchor="middle" x="0" y="0.119" fill="#008B8B" fill-opacity="0.69">1004</text><text transform="translate(1032.5,-355.5) scale(1.1547 1)" font-family="Arial" font-size="0.14" text-anchor="middle" x="0" y="0.119" fill="#008B8B" fill-opacity="0.69">1005</text><text transform="translate(1032.5,-354.5) scale(1.1547 1)" font-family="Arial" font-size="0.14" text-anchor="middle" x="0" y="0.119" fill="#008B8B" fill-opacity="0.69">1006</text><text transform="translate(1033.5,-360) scale(1.1547 1)" font-family="Arial" font-size="0.14" text-anchor="middle" x="0" y="0.119" fill="#008B8B" fill-opacity="0.69">1101</text><text transform="translate(1033.5,-359) scale(1.1547 1)" font-family="Arial" font-size="0.14" text-anchor="middle" x="0" y="0.119" fill="#008B8B" fill-opacity="0.69">1102</text><text transform="translate(1033.5,-358) scale(1.1547 1)" font-family="Arial" font-size="0.14" text-anchor="middle" x="0" y="0.119" fill="#008B8B" fill-opacity="0.69">1103</text><text transform="translate(1033.5,-357) scale(1.1547 1)" font-family="Arial" font-size="0.14" text-anchor="middle" x="0" y="0.119" fill="#008B8B" fill-opacity="0.69">1104</text><text transform="translate(1033.5,-356) scale(1.1547 1)" font-family="Arial" font-size="0.14" text-anchor="middle" x="0" y="0.119" fill="#008B8B" fill-opacity="0.69">1105</text><text transform="translate(1033.5,-355) scale(1.1547 1)" font-family="Arial" font-size="0.14" text-anchor="middle" x="0" y="0.119" fill="#008B8B" fill-opacity="0.69">1106</text><text transform="translate(1034.5,-359.5) scale(1.1547 1)" font-family="Arial" font-size="0.14" text-anchor="middle" x="0" y="0.119" fill="#008B8B" fill-opacity="0.69">1201</text><text transform="translate(1034.5,-358.5) scale(1.1547 1)" font-family="Arial" font-size="0.14" text-anchor="middle" x="0" y="0.119" fill="#008B8B" fill-opacity="0.69">1202</text><text transform="translate(1034.5,-357.5) scale(1.1547 1)" font-family="Arial" font-size="0.14" text-anchor="middle" x="0" y="0.119" fill="#008B8B" fill-opacity="0.69">1203</text><text transform="translate(1034.5,-356.5) scale(1.1547 1)" font-family="Arial" font-size="0.14" text-anchor="middle" x="0" y="0.119" fill="#008B8B" fill-opacity="0.69">1204</text><text transform="translate(1034.5,-355.5) scale(1.1547 1)" font-family="Arial" font-size="0.14" text-anchor="middle" x="0" y="0.119" fill="#008B8B" fill-opacity="0.69">1205</text><text transform="translate(1034.5,-354.5) scale(1.1547 1)" font-family="Arial" font-size="0.14" text-anchor="middle" x="0" y="0.119" fill="#008B8B" fill-opacity="0.69">1206</text><g clip-path="url(#did3)"><path clip-path="url(#did4)" d="M1031.17,-352l-0.333252,-0.5l0.333252,-0.5h0.666748l0.333252,-0.5h0.666748l0.333252,-0.5h0.666748l0.333252,-0.5h0.666748l0.333252,0.5l-0.333252,0.5l0.333252,0.5l-0.333252,0.5l0.333252,0.5l-0.333252,0.5h-0.666748l-0.333252,0.5h-0.666748l-0.333252,0.5h-0.666748l-0.333252,0.5h-0.666748l-0.333252,-0.5l0.333252,-0.5l-0.333252,-0.5Z" stroke="#E32736" stroke-width="0.0625" stroke-dasharray="0.063 0.063" fill="none"/></g><line x1="1031.75" y1="-356.625" x2="1032.25" y2="-356.875" stroke="#048104" stroke-width="0.08"/></g><g transform="translate(1028.5,-359) scale(1.1547 1)"><text font-family="Comic Sans MS" font-size="0.35" font-weight="bold" text-anchor="middle" x="0" y="-0.0951221" fill="#A52A2A" fill-opacity="0.69">WORLD</text><text font-family="Comic Sans MS" font-size="0.35" font-weight="bold" text-anchor="middle" x="0" y="0.392622" fill="#A52A2A" fill-opacity="0.69">CHARACTERISTICS</text></g><text transform="translate(1028.5,-355) scale(1.1547 1)" font-family="Comic Sans MS" font-size="0.35" font-weight="bold" text-anchor="middle" x="0" y="0.14875" fill="#A52A2A" fill-opacity="0.69">POPULATION</text><text transform="translate(1036.5,-359) scale(1.1547 1)" font-family="Comic Sans MS" font-size="0.35" font-weight="bold" text-anchor="middle" x="0" y="0.14875" fill="#A52A2A" fill-opacity="0.69">TRAVEL ZONES</text><text transform="translate(1036.5,-355) scale(1.1547 1)" font-family="Comic Sans MS" font-size="0.35" font-weight="bold" text-anchor="middle" x="0" y="0.14875" fill="#A52A2A" fill-opacity="0.69">BASES</text><text transform="translate(1032.5,-359) scale(1.1547 1)" font-family="Comic Sans MS" font-size="0.35" font-weight="bold" text-anchor="middle" x="0" y="0.14875" fill="#A52A2A" fill-opacity="0.69">MAP LEGEND</text><g transform="translate(1032.5,-358) scale(1.1547 1)"><text font-family="Comic Sans MS" font-size="0.21" font-weight="bold" text-anchor="middle" x="0" y="-0.0570732" fill="#A52A2A" fill-opacity="0.69">STARPORT</text><text font-family="Comic Sans MS" font-size="0.21" font-weight="bold" text-anchor="middle" x="0" y="0.235573" fill="#A52A2A" fill-opacity="0.69">TYPE</text></g><text transform="translate(1033.5,-357.5) scale(1.1547 1)" font-family="Comic Sans MS" font-size="0.21" font-weight="bold" text-anchor="middle" x="0" y="0.08925" fill="#A52A2A" fill-opacity="0.69">GAS GIANT</text><g transform="translate(1033.5,-356.5) scale(1.1547 1)"><text font-family="Comic Sans MS" font-size="0.21" font-weight="bold" text-anchor="middle" x="0" y="-0.0570732" fill="#A52A2A" fill-opacity="0.69"/><text font-family="Comic Sans MS" font-size="0.21" font-weight="bold" text-anchor="middle" x="0" y="0.235573" fill="#A52A2A" fill-opacity="0.69">ALLEGIANCE</text></g><g transform="translate(1032.5,-356) scale(1.1547 1)"><text font-family="Comic Sans MS" font-size="0.21" font-weight="bold" text-anchor="middle" x="0" y="-0.0570732" fill="#A52A2A" fill-opacity="0.69">WORLD</text><text font-family="Comic Sans MS" font-size="0.21" font-weight="bold" text-anchor="middle" x="0" y="0.235573" fill="#A52A2A" fill-opacity="0.69">NAME</text></g><g transform="translate(1031.5,-356.5) scale(1.1547 1)"><text font-family="Comic Sans MS" font-size="0.21" font-weight="bold" text-anchor="middle" x="0" y="-0.0570732" fill="#A52A2A" fill-opacity="0.69">X-BOAT</text><text font-family="Comic Sans MS" font-size="0.21" font-weight="bold" text-anchor="middle" x="0" y="0.235573" fill="#A52A2A" fill-opacity="0.69">ROUTE</text></g><text transform="translate(1031.5,-357.5) scale(1.1547 1)" font-family="Comic Sans MS" font-size="0.21" font-weight="bold" text-anchor="middle" x="0" y="0.08925" fill="#A52A2A" fill-opacity="0.69">BASES</text><g transform="translate(1033.5,-354.5) scale(1.1547 1)"><text font-family="Comic Sans MS" font-size="0.21" font-weight="bold" text-anchor="middle" x="0" y="-0.0570732" fill="#A52A2A" fill-opacity="0.69">NO</text><text font-family="Comic Sans MS" font-size="0.21" font-weight="bold" text-anchor="middle" x="0" y="0.235573" fill="#A52A2A" fill-opacity="0.69">GAS GIANT</text></g><g transform="translate(1031.5,-354.5) scale(1.1547 1)"><text font-family="Comic Sans MS" font-size="0.21" font-weight="bold" text-anchor="middle" x="0" y="-0.0570732" fill="#A52A2A" fill-opacity="0.69">TRAVEL</text><text font-family="Comic Sans MS" font-size="0.21" font-weight="bold" text-anchor="middle" x="0" y="0.235573" fill="#A52A2A" fill-opacity="0.69">ZONE</text></g><text transform="translate(1031.5,-353.5) scale(1.1547 1)" font-family="Comic Sans MS" font-size="0.21" font-weight="bold" text-anchor="middle" x="0" y="0.08925" fill="#A52A2A" fill-opacity="0.69">BORDER</text><g transform="translate(1032.5,-357) scale(1.1547 1)"><circle transform="translate(0.25,-0.18)" r="0.05" cx="0" cy="0" stroke="none" fill="#000000" fill-opacity="0.69"/><text font-family="Comic Sans MS" font-size="0.21" font-weight="bold" text-anchor="middle" x="0" y="-0.13575" fill="#000000" fill-opacity="0.69">A</text><text font-family="Arial Unicode MS,Segoe UI Symbol,Arial" font-size="0.21" font-weight="bold" text-anchor="middle" x="-0.25" y="-0.09075" fill="#000000" fill-opacity="0.69">★</text><circle r="0.1" cx="0" cy="0" stroke="none" fill="#000000" fill-opacity="0.69"/><text font-family="Comic Sans MS" font-size="0.168" font-weight="bold" text-anchor="middle" x="0" y="0.4414" fill="#000000" fill-opacity="0.69">LACIPYT</text></g></g></svg>