<?xml version = "1.0" encoding="utf-8"?>
<svg version="1.1" baseProfile="full" xmlns="http://www.w3.org/2000/svg" xmlns:xlink="http://www.w3.org/1999/xlink" width="205" height="211" viewBox="0 0 205 211" clip="0 205 0 211"><defs><clipPath id="did1"><path d="M1031.17,-354l-0.333252,-0.5l0.333252,-0.5h0.666748l0.333252,-0.5h0.666748l0.333252,0.5h0.666748l0.333252,0.5l-0.333252,0.5l0.333252,0.5l-0.333252,0.5h-0.666748l-0.333252,0.5h-0.666748l-0.333252,-0.5h-0.666748l-0.333252,-0.5l0.333252,-0.5Z"/></clipPath><clipPath id="did2"><path d="M1031.17,-354l-0.333252,-0.5l0.333252,-0.5h0.666748l0.333252,-0.5h0.666748l0.333252,0.5h0.666748l0.333252,0.5l-0.333252,0.5l0.333252,0.5l-0.333252,0.5h-0.666748l-0.333252,0.5h-0.666748l-0.333252,-0.5h-0.666748l-0.333252,-0.5l0.333252,-0.5Z"/></clipPath><clipPath id="did3"><path d="M1031.17,-354l-0.333252,-0.5l0.333252,-0.5h0.666748l0.333252,-0.5h0.666748l0.333252,0.5h0.666748l0.333252,0.5l-0.333252,0.5l0.333252,0.5l-0.333252,0.5h-0.666748l-0.333252,0.5h-0.666748l-0.333252,-0.5h-0.666748l-0.333252,-0.5l0.333252,-0.5Z"/></clipPath></defs><g fill="None" stroke="None" transform="matrix(1,0,0,1,0,0) matrix(55.4256,0,0,64,-57124.4,22761.6)"><g clip-path="url(#did1)"><rect x="1030.65" y="-355.65" width="3.7" height="3.3" fill="rgb(255,255,255)"/><path d="M1028.83,-356.5v0l0.333252,0.5h0.666748l0.333252,-0.5" stroke="rgba(92,64,51,0.501961)" stroke-width="0.015625"/><path d="M1028.83,-355.5v0l0.333252,0.5h0.666748l0.333252,-0.5" stroke="rgba(92,64,51,0.501961)" stroke-width="0.015625"/><path d="M1028.83,-354.5v0l0.333252,0.5h0.666748l0.333252,-0.5" stroke="rgba(92,64,51,0.501961)" stroke-width="0.015625"/><path d="M1028.83,-353.5v0l0.333252,0.5h0.666748l0.333252,-0.5" stroke="rgba(92,64,51,0.501961)" stroke-width="0.015625"/><path d="M1028.83,-352.5v0l0.333252,0.5h0.666748l0.333252,-0.5" stroke="rgba(92,64,51,0.501961)" stroke-width="0.015625"/><path d="M1028.83,-351.5v0l0.333252,0.5h0.666748l0.333252,-0.5" stroke="rgba(92,64,51,0.501961)" stroke-width="0.015625"/><path d="M1029.83,-356v0l0.333252,0.5h0.666748l0.333252,-0.5" stroke="rgba(92,64,51,0.501961)" stroke-width="0.015625"/><path d="M1029.83,-355v0l0.333252,0.5h0.666748l0.333252,-0.5" stroke="rgba(92,64,51,0.501961)" stroke-width="0.015625"/><path d="M1029.83,-354v0l0.333252,0.5h0.666748l0.333252,-0.5" stroke="rgba(92,64,51,0.501961)" stroke-width="0.015625"/><path d="M1029.83,-353v0l0.333252,0.5h0.666748l0.333252,-0.5" stroke="rgba(92,64,51,0.501961)" stroke-width="0.015625"/><path d="M1029.83,-352v0l0.333252,0.5h0.666748l0.333252,-0.5" stroke="rgba(92,64,51,0.501961)" stroke-width="0.015625"/><path d="M1029.83,-351v0l0.333252,0.5h0.666748l0.333252,-0.5" stroke="rgba(92,64,51,0.501961)" stroke-width="0.015625"/><path d="M1030.83,-356.5v0l0.333252,0.5h0.666748l0.333252,-0.5" stroke="rgba(92,64,51,0.501961)" stroke-width="0.015625"/><path d="M1030.83,-355.5v0l0.333252,0.5h0.666748l0.333252,-0.5" stroke="rgba(92,64,51,0.501961)" stroke-width="0.015625"/><path d="M1030.83,-354.5v0l0.333252,0.5h0.666748l0.333252,-0.5" stroke="rgba(92,64,51,0.501961)" stroke-width="0.015625"/><path d="M1030.83,-353.5v0l0.333252,0.5h0.666748l0.333252,-0.5" stroke="rgba(92,64,51,0.501961)" stroke-width="0.015625"/><path d="M1030.83,-352.5v0l0.333252,0.5h0.666748l0.333252,-0.5" stroke="rgba(92,64,51,0.501961)" stroke-width="0.015625"/><path d="M1030.83,-351.5v0l0.333252,0.5h0.666748l0.333252,-0.5" stroke="rgba(92,64,51,0.501961)" stroke-width="0.015625"/><path d="M1031.83,-356v0l0.333252,0.5h0.666748l0.333252,-0.5" stroke="rgba(92,64,51,0.501961)" stroke-width="0.015625"/><path d="M1031.83,-355v0l0.333252,0.5h0.666748l0.333252,-0.5" stroke="rgba(92,64,51,0.501961)" stroke-width="0.015625"/><path d="M1031.83,-354v0l0.333252,0.5h0.666748l0.333252,-0.5" stroke="rgba(92,64,51,0.501961)" stroke-width="0.015625"/><path d="M1031.83,-353v0l0.333252,0.5h0.666748l0.333252,-0.5" stroke="rgba(92,64,51,0.501961)" stroke-width="0.015625"/><path d="M1031.83,-352v0l0.333252,0.5h0.666748l0.333252,-0.5" stroke="rgba(92,64,51,0.501961)" stroke-width="0.015625"/><path d="M1031.83,-351v0l0.333252,0.5h0.666748l0.333252,-0.5" stroke="rgba(92,64,51,0.501961)" stroke-width="0.015625"/><path d="M1032.83,-356.5v0l0.333252,0.5h0.666748l0.333252,-0.5" stroke="rgba(92,64,51,0.501961)" stroke-width="0.015625"/><path d="M1032.83,-355.5v0l0.333252,0.5h0.666748l0.333252,-0.5" stroke="rgba(92,64,51,0.501961)" stroke-width="0.015625"/><path d="M1032.83,-354.5v0l0.333252,0.5h0.666748l0.333252,-0.5" stroke="rgba(92,64,51,0.501961)" stroke-width="0.015625"/><path d="M1032.83,-353.5v0l0.333252,0.5h0.666748l0.333252,-0.5" stroke="rgba(92,64,51,0.501961)" stroke-width="0.015625"/><path d="M1032.83,-352.5v0l0.333252,0.5h0.666748l0.333252,-0.5" stroke="rgba(92,64,51,0.501961)" stroke-width="0.015625"/><path d="M1032.83,-351.5v0l0.333252,0.5h0.666748l0.333252,-0.5" stroke="rgba(92,64,51,0.501961)" stroke-width="0.015625"/><path d="M1033.83,-356v0l0.333252,0.5h0.666748l0.333252,-0.5" stroke="rgba(92,64,51,0.501961)" stroke-width="0.015625"/><path d="M1033.83,-355v0l0.333252,0.5h0.666748l0.333252,-0.5" stroke="rgba(92,64,51,0.501961)" stroke-width="0.015625"/><path d="M1033.83,-354v0l0.333252,0.5h0.666748l0.333252,-0.5" stroke="rgba(92,64,51,0.501961)" stroke-width="0.015625"/><path d="M1033.83,-353v0l0.333252,0.5h0.666748l0.333252,-0.5" stroke="rgba(92,64,51,0.501961)" stroke-width="0.015625"/><path d="M1033.83,-352v0l0.333252,0.5h0.666748l0.333252,-0.5" stroke="rgba(92,64,51,0.501961)" stroke-width="0.015625"/><path d="M1033.83,-351v0l0.333252,0.5h0.666748l0.333252,-0.5" stroke="rgba(92,64,51,0.501961)" stroke-width="0.015625"/><text transform="translate(1029.5,-357) scale(1.1547 1)" font-family="Arial" font-size="0.14" text-anchor="middle" x="0" y="0.119" fill="rgba(92,64,51,0.501961)">0704</text><text transform="translate(1029.5,-356) scale(1.1547 1)" font-family="Arial" font-size="0.14" text-anchor="middle" x="0" y="0.119" fill="rgba(92,64,51,0.501961)">0705</text><text transform="translate(1029.5,-355) scale(1.1547 1)" font-family="Arial" font-size="0.14" text-anchor="middle" x="0" y="0.119" fill="rgba(92,64,51,0.501961)">0706</text><text transform="translate(1029.5,-354) scale(1.1547 1)" font-family="Arial" font-size="0.14" text-anchor="middle" x="0" y="0.119" fill="rgba(92,64,51,0.501961)">0707</text><text transform="translate(1029.5,-353) scale(1.1547 1)" font-family="Arial" font-size="0.14" text-anchor="middle" x="0" y="0.119" fill="rgba(92,64,51,0.501961)">0708</text><text transform="translate(1029.5,-352) scale(1.1547 1)" font-family="Arial" font-size="0.14" text-anchor="middle" x="0" y="0.119" fill="rgba(92,64,51,0.501961)">0709</text><text transform="translate(1030.5,-356.5) scale(1.1547 1)" font-family="Arial" font-size="0.14" text-anchor="middle" x="0" y="0.119" fill="rgba(92,64,51,0.501961)">0804</text><text transform="translate(1030.5,-355.5) scale(1.1547 1)" font-family="Arial" font-size="0.14" text-anchor="middle" x="0" y="0.119" fill="rgba(92,64,51,0.501961)">0805</text><text transform="translate(1030.5,-354.5) scale(1.1547 1)" font-family="Arial" font-size="0.14" text-anchor="middle" x="0" y="0.119" fill="rgba(92,64,51,0.501961)">0806</text><text transform="translate(1030.5,-353.5) scale(1.1547 1)" font-family="Arial" font-size="0.14" text-anchor="middle" x="0" y="0.119" fill="rgba(92,64,51,0.501961)">0807</text><text transform="translate(1030.5,-352.5) scale(1.1547 1)" font-family="Arial" font-size="0.14" text-anchor="middle" x="0" y="0.119" fill="rgba(92,64,51,0.501961)">0808</text><text transform="translate(1030.5,-351.5) scale(1.1547 1)" font-family="Arial" font-size="0.14" text-anchor="middle" x="0" y="0.119" fill="rgba(92,64,51,0.501961)">0809</text><text transform="translate(1031.5,-357) scale(1.1547 1)" font-family="Arial" font-size="0.14" text-anchor="middle" x="0" y="0.119" fill="rgba(92,64,51,0.501961)">0104</text><text transform="translate(1031.5,-356) scale(1.1547 1)" font-family="Arial" font-size="0.14" text-anchor="middle" x="0" y="0.119" fill="rgba(92,64,51,0.501961)">0105</text><text transform="translate(1031.5,-355) scale(1.1547 1)" font-family="Arial" font-size="0.14" text-anchor="middle" x="0" y="0.119" fill="rgba(92,64,51,0.501961)">0106</text><text transform="translate(1031.5,-354) scale(1.1547 1)" font-family="Arial" font-size="0.14" text-anchor="middle" x="0" y="0.119" fill="rgba(92,64,51,0.501961)">0107</text><text transform="translate(1031.5,-353) scale(1.1547 1)" font-family="Arial" font-size="0.14" text-anchor="middle" x="0" y="0.119" fill="rgba(92,64,51,0.501961)">0108</text><text transform="translate(1031.5,-352) scale(1.1547 1)" font-family="Arial" font-size="0.14" text-anchor="middle" x="0" y="0.119" fill="rgba(92,64,51,0.501961)">0109</text><text transform="translate(1032.5,-356.5) scale(1.1547 1)" font-family="Arial" font-size="0.14" text-anchor="middle" x="0" y="0.119" fill="rgba(92,64,51,0.501961)">0204</text><text transform="translate(1032.5,-355.5) scale(1.1547 1)" font-family="Arial" font-size="0.14" text-anchor="middle" x="0" y="0.119" fill="rgba(92,64,51,0.501961)">0205</text><text transform="translate(1032.5,-354.5) scale(1.1547 1)" font-family="Arial" font-size="0.14" text-anchor="middle" x="0" y="0.119" fill="rgba(92,64,51,0.501961)">0206</text><text transform="translate(1032.5,-353.5) scale(1.1547 1)" font-family="Arial" font-size="0.14" text-anchor="middle" x="0" y="0.119" fill="rgba(92,64,51,0.501961)">0207</text><text transform="translate(1032.5,-352.5) scale(1.1547 1)" font-family="Arial" font-size="0.14" text-anchor="middle" x="0" y="0.119" fill="rgba(92,64,51,0.501961)">0208</text><text transform="translate(1032.5,-351.5) scale(1.1547 1)" font-family="Arial" font-size="0.14" text-anchor="middle" x="0" y="0.119" fill="rgba(92,64,51,0.501961)">0209</text><text transform="translate(1033.5,-357) scale(1.1547 1)" font-family="Arial" font-size="0.14" text-anchor="middle" x="0" y="0.119" fill="rgba(92,64,51,0.501961)">0304</text><text transform="translate(1033.5,-356) scale(1.1547 1)" font-family="Arial" font-size="0.14" text-anchor="middle" x="0" y="0.119" fill="rgba(92,64,51,0.501961)">0305</text><text transform="translate(1033.5,-355) scale(1.1547 1)" font-family="Arial" font-size="0.14" text-anchor="middle" x="0" y="0.119" fill="rgba(92,64,51,0.501961)">0306</text><text transform="translate(1033.5,-354) scale(1.1547 1)" font-family="Arial" font-size="0.14" text-anchor="middle" x="0" y="0.119" fill="rgba(92,64,51,0.501961)">0307</text><text transform="translate(1033.5,-353) scale(1.1547 1)" font-family="Arial" font-size="0.14" text-anchor="middle" x="0" y="0.119" fill="rgba(92,64,51,0.501961)">0308</text><text transform="translate(1033.5,-352) scale(1.1547 1)" font-family="Arial" font-size="0.14" text-anchor="middle" x="0" y="0.119" fill="rgba(92,64,51,0.501961)">0309</text><text transform="translate(1034.5,-356.5) scale(1.1547 1)" font-family="Arial" font-size="0.14" text-anchor="middle" x="0" y="0.119" fill="rgba(92,64,51,0.501961)">0404</text><text transform="translate(1034.5,-355.5) scale(1.1547 1)" font-family="Arial" font-size="0.14" text-anchor="middle" x="0" y="0.119" fill="rgba(92,64,51,0.501961)">0405</text><text transform="translate(1034.5,-354.5) scale(1.1547 1)" font-family="Arial" font-size="0.14" text-anchor="middle" x="0" y="0.119" fill="rgba(92,64,51,0.501961)">0406</text><text transform="translate(1034.5,-353.5) scale(1.1547 1)" font-family="Arial" font-size="0.14" text-anchor="middle" x="0" y="0.119" fill="rgba(92,64,51,0.501961)">0407</text><text transform="translate(1034.5,-352.5) scale(1.1547 1)" font-family="Arial" font-size="0.14" text-anchor="middle" x="0" y="0.119" fill="rgba(92,64,51,0.501961)">0408</text><text transform="translate(1034.5,-351.5) scale(1.1547 1)" font-family="Arial" font-size="0.14" text-anchor="middle" x="0" y="0.119" fill="rgba(92,64,51,0.501961)">0409</text><path d="M1031.17,-352c0,-0.208344,-0.333252,-0.291657,-0.333252,-0.5c0,-0.208344,0.124878,-0.395844,0.333252,-0.5c0.208374,-0.104157,0.458374,0.104157,0.666748,0c0.208374,-0.104157,0.124878,-0.395844,0.333252,-0.5c0.208374,-0.104157,0.458374,0.104157,0.666748,0c0.208374,-0.104157,0.124878,-0.395844,0.333252,-0.5c0.208374,-0.104157,0.458374,0.104157,0.666748,0c0.208374,-0.104157,0.124878,-0.395844,0.333252,-0.5c0.208374,-0.104157,0.458374,-0.104157,0.666748,0c0.208374,0.104157,0.333252,0.291657,0.333252,0.5c0,0.208344,-0.333252,0.291657,-0.333252,0.5c0,0.208344,0.333252,0.291657,0.333252,0.5c0,0.208344,-0.333252,0.291657,-0.333252,0.5c0,0.208344,0.333252,0.291657,0.333252,0.5c0,0.208344,-0.124878,0.395844,-0.333252,0.5c-0.208374,0.104157,-0.458374,-0.104157,-0.666748,0c-0.208374,0.104157,-0.124878,0.395844,-0.333252,0.5c-0.208374,0.104157,-0.458374,-0.104157,-0.666748,0c-0.208374,0.104157,-0.124878,0.395844,-0.333252,0.5c-0.208374,0.104157,-0.458374,-0.104157,-0.666748,0c-0.208374,0.104157,-0.124878,0.395844,-0.333252,0.5c-0.208374,0.104157,-0.458374,0.104157,-0.666748,0c-0.208374,-0.104157,-0.333252,-0.291657,-0.333252,-0.5c0,-0.208344,0.333252,-0.291657,0.333252,-0.5c0,-0.208344,-0.333252,-0.291657,-0.333252,-0.5c0,-0.208344,0.333252,-0.291657,0.333252,-0.5Z" stroke="rgb(92,64,51)" stroke-width="0.03125"/><line x1="1031.72" y1="-356.612" x2="1032.28" y2="-356.888" stroke="rgb(92,64,51)" stroke-width="0.08"/></g><g transform="translate(1028.5,-359) scale(1.1547 1)"><text font-family="Arial" font-size="0.21" text-anchor="middle" x="0" y="-0.0314897" fill="rgb(92,64,51)">World</text><text font-family="Arial" font-size="0.21" text-anchor="middle" x="0" y="0.20999" fill="rgb(92,64,51)">Characteristics</text></g><text transform="translate(1028.5,-355) scale(1.1547 1)" font-family="Arial" font-size="0.21" text-anchor="middle" x="0" y="0.08925" fill="rgb(92,64,51)">Population</text><text transform="translate(1036.5,-359) scale(1.1547 1)" font-family="Arial" font-size="0.21" text-anchor="middle" x="0" y="0.08925" fill="rgb(92,64,51)">Travel Zones</text><text transform="translate(1036.5,-355) scale(1.1547 1)" font-family="Arial" font-size="0.21" text-anchor="middle" x="0" y="0.08925" fill="rgb(92,64,51)">Bases</text><text transform="translate(1032.5,-359) scale(1.1547 1)" font-family="Arial" font-size="0.21" text-anchor="middle" x="0" y="0.08925" fill="rgb(92,64,51)">Map Legend</text><g transform="translate(1032.5,-358) scale(1.1547 1)"><text font-family="Arial" font-size="0.21" font-weight="bold" text-anchor="middle" x="0" y="-0.0314897" fill="rgb(92,64,51)">Starport</text><text font-family="Arial" font-size="0.21" font-weight="bold" text-anchor="middle" x="0" y="0.20999" fill="rgb(92,64,51)">Type</text></g><text transform="translate(1033.5,-357.5) scale(1.1547 1)" font-family="Arial" font-size="0.21" font-weight="bold" text-anchor="middle" x="0" y="0.08925" fill="rgb(92,64,51)">Gas Giant</text><g transform="translate(1033.5,-356.5) scale(1.1547 1)"><text font-family="Arial" font-size="0.21" font-weight="bold" text-anchor="middle" x="0" y="-0.0314897" fill="rgb(92,64,51)"/><text font-family="Arial" font-size="0.21" font-weight="bold" text-anchor="middle" x="0" y="0.20999" fill="rgb(92,64,51)">Allegiance</text></g><g transform="translate(1032.5,-356) scale(1.1547 1)"><text font-family="Arial" font-size="0.21" font-weight="bold" text-anchor="middle" x="0" y="-0.0314897" fill="rgb(92,64,51)">World</text><text font-family="Arial" font-size="0.21" font-weight="bold" text-anchor="middle" x="0" y="0.20999" fill="rgb(92,64,51)">Name</text></g><g transform="translate(1031.5,-356.5) scale(1.1547 1)"><text font-family="Arial" font-size="0.21" font-weight="bold" text-anchor="middle" x="0" y="-0.0314897" fill="rgb(92,64,51)">X-Boat</text><text font-family="Arial" font-size="0.21" font-weight="bold" text-anchor="middle" x="0" y="0.20999" fill="rgb(92,64,51)">Route</text></g><text transform="translate(1031.5,-357.5) scale(1.1547 1)" font-family="Arial" font-size="0.21" font-weight="bold" text-anchor="middle" x="0" y="0.08925" fill="rgb(92,64,51)">Bases</text><g transform="translate(1033.5,-354.5) scale(1.1547 1)"><text font-family="Arial" font-size="0.21" font-weight="bold" text-anchor="middle" x="0" y="-0.0314897" fill="rgb(92,64,51)">No</text><text font-family="Arial" font-size="0.21" font-weight="bold" text-anchor="middle" x="0" y="0.20999" fill="rgb(92,64,51)">Gas Giant</text></g><g transform="translate(1031.5,-354.5) scale(1.1547 1)"><text font-family="Arial" font-size="0.21" font-weight="bold" text-anchor="middle" x="0" y="-0.0314897" fill="rgb(92,64,51)">Travel</text><text font-family="Arial" font-size="0.21" font-weight="bold" text-anchor="middle" x="0" y="0.20999" fill="rgb(92,64,51)">Zone</text></g><text transform="translate(1031.5,-353.5) scale(1.1547 1)" font-family="Arial" font-size="0.21" font-weight="bold" text-anchor="middle" x="0" y="0.08925" fill="rgb(92,64,51)">Border</text><g clip-path="url(#did2)"><circle transform="translate(1032.5,-354) scale(1.1547 1)" r="0.4" cx="0" cy="0" fill="rgba(92,64,51,0.501961)"/></g><g transform="translate(1032.5,-354) scale(1.1547 1)"><circle r="0.1" cx="0" cy="0" fill="rgb(92,64,51)"/><text font-family="Arial" font-size="0.1785" font-weight="bold" text-anchor="middle" x="0" y="0.325863" fill="rgb(92,64,51)">Laiceps</text></g></g></svg>