<?xml version = "1.0" encoding="utf-8"?>
<svg version="1.1" baseProfile="full" xmlns="http://www.w3.org/2000/svg" xmlns:xlink="http://www.w3.org/1999/xlink" width="205" height="211" viewBox="0 0 205 211" clip="0 205 0 211"><defs><clipPath id="did1"><path d="M1031.17,-354l-0.333252,-0.5l0.333252,-0.5h0.666748l0.333252,-0.5h0.666748l0.333252,0.5h0.666748l0.333252,0.5l-0.333252,0.5l0.333252,0.5l-0.333252,0.5h-0.666748l-0.333252,0.5h-0.666748l-0.333252,-0.5h-0.666748l-0.333252,-0.5l0.333252,-0.5Z"/></clipPath><clipPath id="did2"><path d="M1023.17,-359l-0.333374,-0.5l0.333374,-0.5h0.666626l0.333313,0.5h0.666748l0.333252,-0.5h0.666748l0.333252,0.5h0.666748l0.333252,-0.5h0.666748l0.333252,0.5h0.666748l0.333252,-0.5h0.666748l0.333252,0.5h0.666748l0.333252,-0.5h0.666748l0.333252,0.5h0.666748l0.333252,-0.5h0.666748l0.333252,0.5h0.666748l0.333252,-0.5h0.666748l0.333252,0.5h0.666748l0.333252,-0.5h0.666748l0.333252,0.5h0.666748l0.333252,-0.5h0.666748l0.333252,0.5h0.666748l0.333252,-0.5h0.666748l0.333252,0.5h0.666748l0.333252,-0.5h0.666748l0.333252,0.5h0.666748l0.333252,-0.5h0.666748l0.333252,0.5h0.666748l0.333252,-0.5h0.666748l0.333252,0.5h0.666748l0.333252,-0.5h0.666748l0.333252,0.5h0.666748l0.333252,-0.5h0.666748l0.333252,0.5h0.666748l0.333252,-0.5h0.666748l0.333252,0.5h0.666748l0.333252,0.5l-0.333252,0.5l0.333252,0.5l-0.333252,0.5l0.333252,0.5l-0.333252,0.5l0.333252,0.5l-0.333252,0.5l0.333252,0.5l-0.333252,0.5l0.333252,0.5l-0.333252,0.5l0.333252,0.5l-0.333252,0.5l0.333252,0.5l-0.333252,0.5l0.333252,0.5l-0.333252,0.5l0.333252,0.5l-0.333252,0.5l0.333252,0.5l-0.333252,0.5l0.333252,0.5l-0.333252,0.5l0.333252,0.5l-0.333252,0.5l0.333252,0.5l-0.333252,0.5l0.333252,0.5l-0.333252,0.5l0.333252,0.5l-0.333252,0.5l0.333252,0.5l-0.333252,0.5l0.333252,0.5l-0.333252,0.5l0.333252,0.5l-0.333252,0.5l0.333252,0.5l-0.333252,0.5l0.333252,0.5l-0.333252,0.5l0.333252,0.5l-0.333252,0.5l0.333252,0.5l-0.333252,0.5l0.333252,0.5l-0.333252,0.5l0.333252,0.5l-0.333252,0.5l0.333252,0.5l-0.333252,0.5l0.333252,0.5l-0.333252,0.5l0.333252,0.5l-0.333252,0.5l0.333252,0.5l-0.333252,0.5l0.333252,0.5l-0.333252,0.5l0.333252,0.5l-0.333252,0.5l0.333252,0.5l-0.333252,0.5l0.333252,0.5l-0.333252,0.5l0.333252,0.5l-0.333252,0.5l0.333252,0.5l-0.333252,0.5l0.333252,0.5l-0.333252,0.5l0.333252,0.5l-0.333252,0.5l0.333252,0.5l-0.333252,0.5l0.333252,0.5l-0.333252,0.5l0.333252,0.5l-0.333252,0.5h-0.666748l-0.333252,-0.5h-0.666748l-0.333252,0.5h-0.666748l-0.333252,-0.5h-0.666748l-0.333252,0.5h-0.666748l-0.333252,-0.5h-0.666748l-0.333252,0.5h-0.666748l-0.333252,-0.5h-0.666748l-0.333252,0.5h-0.666748l-0.333252,-0.5h-0.666748l-0.333252,0.5h-0.666748l-0.333252,-0.5h-0.666748l-0.333252,0.5h-0.666748l-0.333252,-0.5h-0.666748l-0.333252,0.5h-0.666748l-0.333252,-0.5h-0.666748l-0.333252,0.5h-0.666748l-0.333252,-0.5h-0.666748l-0.333252,0.5h-0.666748l-0.333252,-0.5h-0.666748l-0.333252,0.5h-0.666748l-0.333252,-0.5h-0.666748l-0.333252,0.5h-0.666748l-0.333252,-0.5h-0.666748l-0.333252,0.5h-0.666748l-0.333252,-0.5h-0.666748l-0.333252,0.5h-0.666748l-0.333252,-0.5h-0.666748l-0.333252,0.5h-0.666748l-0.333252,-0.5h-0.666748l-0.333252,0.5h-0.666748l-0.333313,-0.5h-0.666626l-0.333374,-0.5l0.333374,-0.5l-0.333374,-0.5l0.333374,-0.5l-0.333374,-0.5l0.333374,-0.5l-0.333374,-0.5l0.333374,-0.5l-0.333374,-0.5l0.333374,-0.5l-0.333374,-0.5l0.333374,-0.5l-0.333374,-0.5l0.333374,-0.5l-0.333374,-0.5l0.333374,-0.5l-0.333374,-0.5l0.333374,-0.5l-0.333374,-0.5l0.333374,-0.5l-0.333374,-0.5l0.333374,-0.5l-0.333374,-0.5l0.333374,-0.5l-0.333374,-0.5l0.333374,-0.5l-0.333374,-0.5l0.333374,-0.5l-0.333374,-0.5l0.333374,-0.5l-0.333374,-0.5l0.333374,-0.5l-0.333374,-0.5l0.333374,-0.5l-0.333374,-0.5l0.333374,-0.5l-0.333374,-0.5l0.333374,-0.5l-0.333374,-0.5l0.333374,-0.5l-0.333374,-0.5l0.333374,-0.5l-0.333374,-0.5l0.333374,-0.5l-0.333374,-0.5l0.333374,-0.5l-0.333374,-0.5l0.333374,-0.5l-0.333374,-0.5l0.333374,-0.5l-0.333374,-0.5l0.333374,-0.5l-0.333374,-0.5l0.333374,-0.5l-0.333374,-0.5l0.333374,-0.5l-0.333374,-0.5l0.333374,-0.5l-0.333374,-0.5l0.333374,-0.5l-0.333374,-0.5l0.333374,-0.5l-0.333374,-0.5l0.333374,-0.5l-0.333374,-0.5l0.333374,-0.5l-0.333374,-0.5l0.333374,-0.5l-0.333374,-0.5l0.333374,-0.5l-0.333374,-0.5l0.333374,-0.5l-0.333374,-0.5l0.333374,-0.5l-0.333374,-0.5l0.333374,-0.5l-0.333374,-0.5l0.333374,-0.5Z"/></clipPath><clipPath id="did3"><path d="M1023.17,-359l-0.333374,-0.5l0.333374,-0.5h0.666626l0.333313,0.5h0.666748l0.333252,-0.5h0.666748l0.333252,0.5h0.666748l0.333252,-0.5h0.666748l0.333252,0.5h0.666748l0.333252,-0.5h0.666748l0.333252,0.5h0.666748l0.333252,-0.5h0.666748l0.333252,0.5h0.666748l0.333252,-0.5h0.666748l0.333252,0.5h0.666748l0.333252,-0.5h0.666748l0.333252,0.5h0.666748l0.333252,-0.5h0.666748l0.333252,0.5h0.666748l0.333252,-0.5h0.666748l0.333252,0.5h0.666748l0.333252,-0.5h0.666748l0.333252,0.5h0.666748l0.333252,-0.5h0.666748l0.333252,0.5h0.666748l0.333252,-0.5h0.666748l0.333252,0.5h0.666748l0.333252,-0.5h0.666748l0.333252,0.5h0.666748l0.333252,-0.5h0.666748l0.333252,0.5h0.666748l0.333252,-0.5h0.666748l0.333252,0.5h0.666748l0.333252,-0.5h0.666748l0.333252,0.5h0.666748l0.333252,0.5l-0.333252,0.5l0.333252,0.5l-0.333252,0.5l0.333252,0.5l-0.333252,0.5l0.333252,0.5l-0.333252,0.5l0.333252,0.5l-0.333252,0.5l0.333252,0.5l-0.333252,0.5l0.333252,0.5l-0.333252,0.5l0.333252,0.5l-0.333252,0.5l0.333252,0.5l-0.333252,0.5l0.333252,0.5l-0.333252,0.5l0.333252,0.5l-0.333252,0.5l0.333252,0.5l-0.333252,0.5l0.333252,0.5l-0.333252,0.5l0.333252,0.5l-0.333252,0.5l0.333252,0.5l-0.333252,0.5l0.333252,0.5l-0.333252,0.5l0.333252,0.5l-0.333252,0.5l0.333252,0.5l-0.333252,0.5l0.333252,0.5l-0.333252,0.5l0.333252,0.5l-0.333252,0.5l0.333252,0.5l-0.333252,0.5l0.333252,0.5l-0.333252,0.5l0.333252,0.5l-0.333252,0.5l0.333252,0.5l-0.333252,0.5l0.333252,0.5l-0.333252,0.5l0.333252,0.5l-0.333252,0.5l0.333252,0.5l-0.333252,0.5l0.333252,0.5l-0.333252,0.5l0.333252,0.5l-0.333252,0.5l0.333252,0.5l-0.333252,0.5l0.333252,0.5l-0.333252,0.5l0.333252,0.5l-0.333252,0.5l0.333252,0.5l-0.333252,0.5l0.333252,0.5l-0.333252,0.5l0.333252,0.5l-0.333252,0.5l0.333252,0.5l-0.333252,0.5l0.333252,0.5l-0.333252,0.5l0.333252,0.5l-0.333252,0.5l0.333252,0.5l-0.333252,0.5l0.333252,0.5l-0.333252,0.5h-0.666748l-0.333252,-0.5h-0.666748l-0.333252,0.5h-0.666748l-0.333252,-0.5h-0.666748l-0.333252,0.5h-0.666748l-0.333252,-0.5h-0.666748l-0.333252,0.5h-0.666748l-0.333252,-0.5h-0.666748l-0.333252,0.5h-0.666748l-0.333252,-0.5h-0.666748l-0.333252,0.5h-0.666748l-0.333252,-0.5h-0.666748l-0.333252,0.5h-0.666748l-0.333252,-0.5h-0.666748l-0.333252,0.5h-0.666748l-0.333252,-0.5h-0.666748l-0.333252,0.5h-0.666748l-0.333252,-0.5h-0.666748l-0.333252,0.5h-0.666748l-0.333252,-0.5h-0.666748l-0.333252,0.5h-0.666748l-0.333252,-0.5h-0.666748l-0.333252,0.5h-0.666748l-0.333252,-0.5h-0.666748l-0.333252,0.5h-0.666748l-0.333252,-0.5h-0.666748l-0.333252,0.5h-0.666748l-0.333252,-0.5h-0.666748l-0.333252,0.5h-0.666748l-0.333252,-0.5h-0.666748l-0.333252,0.5h-0.666748l-0.333313,-0.5h-0.666626l-0.333374,-0.5l0.333374,-0.5l-0.333374,-0.5l0.333374,-0.5l-0.333374,-0.5l0.333374,-0.5l-0.333374,-0.5l0.333374,-0.5l-0.333374,-0.5l0.333374,-0.5l-0.333374,-0.5l0.333374,-0.5l-0.333374,-0.5l0.333374,-0.5l-0.333374,-0.5l0.333374,-0.5l-0.333374,-0.5l0.333374,-0.5l-0.333374,-0.5l0.333374,-0.5l-0.333374,-0.5l0.333374,-0.5l-0.333374,-0.5l0.333374,-0.5l-0.333374,-0.5l0.333374,-0.5l-0.333374,-0.5l0.333374,-0.5l-0.333374,-0.5l0.333374,-0.5l-0.333374,-0.5l0.333374,-0.5l-0.333374,-0.5l0.333374,-0.5l-0.333374,-0.5l0.333374,-0.5l-0.333374,-0.5l0.333374,-0.5l-0.333374,-0.5l0.333374,-0.5l-0.333374,-0.5l0.333374,-0.5l-0.333374,-0.5l0.333374,-0.5l-0.333374,-0.5l0.333374,-0.5l-0.333374,-0.5l0.333374,-0.5l-0.333374,-0.5l0.333374,-0.5l-0.333374,-0.5l0.333374,-0.5l-0.333374,-0.5l0.333374,-0.5l-0.333374,-0.5l0.333374,-0.5l-0.333374,-0.5l0.333374,-0.5l-0.333374,-0.5l0.333374,-0.5l-0.333374,-0.5l0.333374,-0.5l-0.333374,-0.5l0.333374,-0.5l-0.333374,-0.5l0.333374,-0.5l-0.333374,-0.5l0.333374,-0.5l-0.333374,-0.5l0.333374,-0.5l-0.333374,-0.5l0.333374,-0.5l-0.333374,-0.5l0.333374,-0.5l-0.333374,-0.5l0.333374,-0.5l-0.333374,-0.5l0.333374,-0.5Z"/></clipPath><clipPath id="did4"><path d="M1031.17,-352l-0.333252,-0.5l0.333252,-0.5h0.666748l0.333252,-0.5h0.666748l0.333252,-0.5h0.666748l0.333252,-0.5h0.666748l0.333252,0.5l-0.333252,0.5l0.333252,0.5l-0.333252,0.5l0.333252,0.5l-0.333252,0.5h-0.666748l-0.333252,0.5h-0.666748l-0.333252,0.5h-0.666748l-0.333252,0.5h-0.666748l-0.333252,-0.5l0.333252,-0.5l-0.333252,-0.5l0.333252,-0.5Z"/></clipPath><clipPath id="did5"><path d="M1031.17,-354l-0.333252,-0.5l0.333252,-0.5h0.666748l0.333252,-0.5h0.666748l0.333252,0.5h0.666748l0.333252,0.5l-0.333252,0.5l0.333252,0.5l-0.333252,0.5h-0.666748l-0.333252,0.5h-0.666748l-0.333252,-0.5h-0.666748l-0.333252,-0.5l0.333252,-0.5Z"/></clipPath><clipPath id="did6"><path d="M1031.17,-354l-0.333252,-0.5l0.333252,-0.5h0.666748l0.333252,-0.5h0.666748l0.333252,0.5h0.666748l0.333252,0.5l-0.333252,0.5l0.333252,0.5l-0.333252,0.5h-0.666748l-0.333252,0.5h-0.666748l-0.333252,-0.5h-0.666748l-0.333252,-0.5l0.333252,-0.5Z"/></clipPath></defs><g fill="None" stroke="None" transform="matrix(1,0,0,1,0,0) matrix(55.4256,0,0,64,-57124.4,22761.6)"><g clip-path="url(#did1)"><rect x="1030.65" y="-355.65" width="3.7" height="3.3" fill="rgb(250,235,215)"/><path d="M1028.83,-356.5v0l0.333252,0.5h0.666748l0.333252,-0.5" stroke="rgba(0,139,139,0.690196)" stroke-width="0.015625"/><path d="M1028.83,-355.5v0l0.333252,0.5h0.666748l0.333252,-0.5" stroke="rgba(0,139,139,0.690196)" stroke-width="0.015625"/><path d="M1028.83,-354.5v0l0.333252,0.5h0.666748l0.333252,-0.5" stroke="rgba(0,139,139,0.690196)" stroke-width="0.015625"/><path d="M1028.83,-353.5v0l0.333252,0.5h0.666748l0.333252,-0.5" stroke="rgba(0,139,139,0.690196)" stroke-width="0.015625"/><path d="M1028.83,-352.5v0l0.333252,0.5h0.666748l0.333252,-0.5" stroke="rgba(0,139,139,0.690196)" stroke-width="0.015625"/><path d="M1028.83,-351.5v0l0.333252,0.5h0.666748l0.333252,-0.5" stroke="rgba(0,139,139,0.690196)" stroke-width="0.015625"/><path d="M1029.83,-356v0l0.333252,0.5h0.666748l0.333252,-0.5" stroke="rgba(0,139,139,0.690196)" stroke-width="0.015625"/><path d="M1029.83,-355v0l0.333252,0.5h0.666748l0.333252,-0.5" stroke="rgba(0,139,139,0.690196)" stroke-width="0.015625"/><path d="M1029.83,-354v0l0.333252,0.5h0.666748l0.333252,-0.5" stroke="rgba(0,139,139,0.690196)" stroke-width="0.015625"/><path d="M1029.83,-353v0l0.333252,0.5h0.666748l0.333252,-0.5" stroke="rgba(0,139,139,0.690196)" stroke-width="0.015625"/><path d="M1029.83,-352v0l0.333252,0.5h0.666748l0.333252,-0.5" stroke="rgba(0,139,139,0.690196)" stroke-width="0.015625"/><path d="M1029.83,-351v0l0.333252,0.5h0.666748l0.333252,-0.5" stroke="rgba(0,139,139,0.690196)" stroke-width="0.015625"/><path d="M1030.83,-356.5v0l0.333252,0.5h0.666748l0.333252,-0.5" stroke="rgba(0,139,139,0.690196)" stroke-width="0.015625"/><path d="M1030.83,-355.5v0l0.333252,0.5h0.666748l0.333252,-0.5" stroke="rgba(0,139,139,0.690196)" stroke-width="0.015625"/><path d="M1030.83,-354.5v0l0.333252,0.5h0.666748l0.333252,-0.5" stroke="rgba(0,139,139,0.690196)" stroke-width="0.015625"/><path d="M1030.83,-353.5v0l0.333252,0.5h0.666748l0.333252,-0.5" stroke="rgba(0,139,139,0.690196)" stroke-width="0.015625"/><path d="M1030.83,-352.5v0l0.333252,0.5h0.666748l0.333252,-0.5" stroke="rgba(0,139,139,0.690196)" stroke-width="0.015625"/><path d="M1030.83,-351.5v0l0.333252,0.5h0.666748l0.333252,-0.5" stroke="rgba(0,139,139,0.690196)" stroke-width="0.015625"/><path d="M1031.83,-356v0l0.333252,0.5h0.666748l0.333252,-0.5" stroke="rgba(0,139,139,0.690196)" stroke-width="0.015625"/><path d="M1031.83,-355v0l0.333252,0.5h0.666748l0.333252,-0.5" stroke="rgba(0,139,139,0.690196)" stroke-width="0.015625"/><path d="M1031.83,-354v0l0.333252,0.5h0.666748l0.333252,-0.5" stroke="rgba(0,139,139,0.690196)" stroke-width="0.015625"/><path d="M1031.83,-353v0l0.333252,0.5h0.666748l0.333252,-0.5" stroke="rgba(0,139,139,0.690196)" stroke-width="0.015625"/><path d="M1031.83,-352v0l0.333252,0.5h0.666748l0.333252,-0.5" stroke="rgba(0,139,139,0.690196)" stroke-width="0.015625"/><path d="M1031.83,-351v0l0.333252,0.5h0.666748l0.333252,-0.5" stroke="rgba(0,139,139,0.690196)" stroke-width="0.015625"/><path d="M1032.83,-356.5v0l0.333252,0.5h0.666748l0.333252,-0.5" stroke="rgba(0,139,139,0.690196)" stroke-width="0.015625"/><path d="M1032.83,-355.5v0l0.333252,0.5h0.666748l0.333252,-0.5" stroke="rgba(0,139,139,0.690196)" stroke-width="0.015625"/><path d="M1032.83,-354.5v0l0.333252,0.5h0.666748l0.333252,-0.5" stroke="rgba(0,139,139,0.690196)" stroke-width="0.015625"/><path d="M1032.83,-353.5v0l0.333252,0.5h0.666748l0.333252,-0.5" stroke="rgba(0,139,139,0.690196)" stroke-width="0.015625"/><path d="M1032.83,-352.5v0l0.333252,0.5h0.666748l0.333252,-0.5" stroke="rgba(0,139,139,0.690196)" stroke-width="0.015625"/><path d="M1032.83,-351.5v0l0.333252,0.5h0.666748l0.333252,-0.5" stroke="rgba(0,139,139,0.690196)" stroke-width="0.015625"/><path d="M1033.83,-356v0l0.333252,0.5h0.666748l0.333252,-0.5" stroke="rgba(0,139,139,0.690196)" stroke-width="0.015625"/><path d="M1033.83,-355v0l0.333252,0.5h0.666748l0.333252,-0.5" stroke="rgba(0,139,139,0.690196)" stroke-width="0.015625"/><path d="M1033.83,-354v0l0.333252,0.5h0.666748l0.333252,-0.5" stroke="rgba(0,139,139,0.690196)" stroke-width="0.015625"/><path d="M1033.83,-353v0l0.333252,0.5h0.666748l0.333252,-0.5" stroke="rgba(0,139,139,0.690196)" stroke-width="0.015625"/><path d="M1033.83,-352v0l0.333252,0.5h0.666748l0.333252,-0.5" stroke="rgba(0,139,139,0.690196)" stroke-width="0.015625"/><path d="M1033.83,-351v0l0.333252,0.5h0.666748l0.333252,-0.5" stroke="rgba(0,139,139,0.690196)" stroke-width="0.015625"/><text transform="translate(1029.5,-357) scale(1.1547 1)" font-family="Arial" font-size="0.14" text-anchor="middle" x="0" y="0.119" fill="rgba(0,139,139,0.690196)">0704</text><text transform="translate(1029.5,-356) scale(1.1547 1)" font-family="Arial" font-size="0.14" text-anchor="middle" x="0" y="0.119" fill="rgba(0,139,139,0.690196)">0705</text><text transform="translate(1029.5,-355) scale(1.1547 1)" font-family="Arial" font-size="0.14" text-anchor="middle" x="0" y="0.119" fill="rgba(0,139,139,0.690196)">0706</text><text transform="translate(1029.5,-354) scale(1.1547 1)" font-family="Arial" font-size="0.14" text-anchor="middle" x="0" y="0.119" fill="rgba(0,139,139,0.690196)">0707</text><text transform="translate(1029.5,-353) scale(1.1547 1)" font-family="Arial" font-size="0.14" text-anchor="middle" x="0" y="0.119" fill="rgba(0,139,139,0.690196)">0708</text><text transform="translate(1029.5,-352) scale(1.1547 1)" font-family="Arial" font-size="0.14" text-anchor="middle" x="0" y="0.119" fill="rgba(0,139,139,0.690196)">0709</text><text transform="translate(1030.5,-356.5) scale(1.1547 1)" font-family="Arial" font-size="0.14" text-anchor="middle" x="0" y="0.119" fill="rgba(0,139,139,0.690196)">0804</text><text transform="translate(1030.5,-355.5) scale(1.1547 1)" font-family="Arial" font-size="0.14" text-anchor="middle" x="0" y="0.119" fill="rgba(0,139,139,0.690196)">0805</text><text transform="translate(1030.5,-354.5) scale(1.1547 1)" font-family="Arial" font-size="0.14" text-anchor="middle" x="0" y="0.119" fill="rgba(0,139,139,0.690196)">0806</text><text transform="translate(1030.5,-353.5) scale(1.1547 1)" font-family="Arial" font-size="0.14" text-anchor="middle" x="0" y="0.119" fill="rgba(0,139,139,0.690196)">0807</text><text transform="translate(1030.5,-352.5) scale(1.1547 1)" font-family="Arial" font-size="0.14" text-anchor="middle" x="0" y="0.119" fill="rgba(0,139,139,0.690196)">0808</text><text transform="translate(1030.5,-351.5) scale(1.1547 1)" font-family="Arial" font-size="0.14" text-anchor="middle" x="0" y="0.119" fill="rgba(0,139,139,0.690196)">0809</text><text transform="translate(1031.5,-357) scale(1.1547 1)" font-family="Arial" font-size="0.14" text-anchor="middle" x="0" y="0.119" fill="rgba(0,139,139,0.690196)">0904</text><text transform="translate(1031.5,-356) scale(1.1547 1)" font-family="Arial" font-size="0.14" text-anchor="middle" x="0" y="0.119" fill="rgba(0,139,139,0.690196)">0905</text><text transform="translate(1031.5,-355) scale(1.1547 1)" font-family="Arial" font-size="0.14" text-anchor="middle" x="0" y="0.119" fill="rgba(0,139,139,0.690196)">0906</text><text transform="translate(1031.5,-354) scale(1.1547 1)" font-family="Arial" font-size="0.14" text-anchor="middle" x="0" y="0.119" fill="rgba(0,139,139,0.690196)">0907</text><text transform="translate(1031.5,-353) scale(1.1547 1)" font-family="Arial" font-size="0.14" text-anchor="middle" x="0" y="0.119" fill="rgba(0,139,139,0.690196)">0908</text><text transform="translate(1031.5,-352) scale(1.1547 1)" font-family="Arial" font-size="0.14" text-anchor="middle" x="0" y="0.119" fill="rgba(0,139,139,0.690196)">0909</text><text transform="translate(1032.5,-356.5) scale(1.1547 1)" font-family="Arial" font-size="0.14" text-anchor="middle" x="0" y="0.119" fill="rgba(0,139,139,0.690196)">1004</text><text transform="translate(1032.5,-355.5) scale(1.1547 1)" font-family="Arial" font-size="0.14" text-anchor="middle" x="0" y="0.119" fill="rgba(0,139,139,0.690196)">1005</text><text transform="translate(1032.5,-354.5) scale(1.1547 1)" font-family="Arial" font-size="0.14" text-anchor="middle" x="0" y="0.119" fill="rgba(0,139,139,0.690196)">1006</text><text transform="translate(1032.5,-353.5) scale(1.1547 1)" font-family="Arial" font-size="0.14" text-anchor="middle" x="0" y="0.119" fill="rgba(0,139,139,0.690196)">1007</text><text transform="translate(1032.5,-352.5) scale(1.1547 1)" font-family="Arial" font-size="0.14" text-anchor="middle" x="0" y="0.119" fill="rgba(0,139,139,0.690196)">1008</text><text transform="translate(1032.5,-351.5) scale(1.1547 1)" font-family="Arial" font-size="0.14" text-anchor="middle" x="0" y="0.119" fill="rgba(0,139,139,0.690196)">1009</text><text transform="translate(1033.5,-357) scale(1.1547 1)" font-family="Arial" font-size="0.14" text-anchor="middle" x="0" y="0.119" fill="rgba(0,139,139,0.690196)">1104</text><text transform="translate(1033.5,-356) scale(1.1547 1)" font-family="Arial" font-size="0.14" text-anchor="middle" x="0" y="0.119" fill="rgba(0,139,139,0.690196)">1105</text><text transform="translate(1033.5,-355) scale(1.1547 1)" font-family="Arial" font-size="0.14" text-anchor="middle" x="0" y="0.119" fill="rgba(0,139,139,0.690196)">1106</text><text transform="translate(1033.5,-354) scale(1.1547 1)" font-family="Arial" font-size="0.14" text-anchor="middle" x="0" y="0.119" fill="rgba(0,139,139,0.690196)">1107</text><text transform="translate(1033.5,-353) scale(1.1547 1)" font-family="Arial" font-size="0.14" text-anchor="middle" x="0" y="0.119" fill="rgba(0,139,139,0.690196)">1108</text><text transform="translate(1033.5,-352) scale(1.1547 1)" font-family="Arial" font-size="0.14" text-anchor="middle" x="0" y="0.119" fill="rgba(0,139,139,0.690196)">1109</text><text transform="translate(1034.5,-356.5) scale(1.1547 1)" font-family="Arial" font-size="0.14" text-anchor="middle" x="0" y="0.119" fill="rgba(0,139,139,0.690196)">1204</text><text transform="translate(1034.5,-355.5) scale(1.1547 1)" font-family="Arial" font-size="0.14" text-anchor="middle" x="0" y="0.119" fill="rgba(0,139,139,0.690196)">1205</text><text transform="translate(1034.5,-354.5) scale(1.1547 1)" font-family="Arial" font-size="0.14" text-anchor="middle" x="0" y="0.119" fill="rgba(0,139,139,0.690196)">1206</text><text transform="translate(1034.5,-353.5) scale(1.1547 1)" font-family="Arial" font-size="0.14" text-anchor="middle" x="0" y="0.119" fill="rgba(0,139,139,0.690196)">1207</text><text transform="translate(1034.5,-352.5) scale(1.1547 1)" font-family="Arial" font-size="0.14" text-anchor="middle" x="0" y="0.119" fill="rgba(0,139,139,0.690196)">1208</text><text transform="translate(1034.5,-351.5) scale(1.1547 1)" font-family="Arial" font-size="0.14" text-anchor="middle" x="0" y="0.119" fill="rgba(0,139,139,0.690196)">1209</text><g clip-path="url(#did3)"><path clip-path="url(#did4)" d="M1031.17,-352l-0.333252,-0.5l0.333252,-0.5h0.666748l0.333252,-0.5h0.666748l0.333252,-0.5h0.666748l0.333252,-0.5h0.666748l0.333252,0.5l-0.333252,0.5l0.333252,0.5l-0.333252,0.5l0.333252,0.5l-0.333252,0.5h-0.666748l-0.333252,0.5h-0.666748l-0.333252,0.5h-0.666748l-0.333252,0.5h-0.666748l-0.333252,-0.5l0.333252,-0.5l-0.333252,-0.5l0.333252,-0.5Z" stroke="rgb(227,39,54)" stroke-width="0.0625" stroke-dasharray="0.063 0.063"/></g><line x1="1031.72" y1="-356.612" x2="1032.28" y2="-356.888" stroke="rgb(4,129,4)" stroke-width="0.08"/></g><g transform="translate(1028.5,-359) scale(1.1547 1)"><text font-family="Comic Sans MS" font-size="0.35" font-weight="bold" text-anchor="middle" x="0" y="-0.0951221" fill="rgba(165,42,42,0.690196)">WORLD</text><text font-family="Comic Sans MS" font-size="0.35" font-weight="bold" text-anchor="middle" x="0" y="0.392622" fill="rgba(165,42,42,0.690196)">CHARACTERISTICS</text></g><text transform="translate(1028.5,-355) scale(1.1547 1)" font-family="Comic Sans MS" font-size="0.35" font-weight="bold" text-anchor="middle" x="0" y="0.14875" fill="rgba(165,42,42,0.690196)">POPULATION</text><text transform="translate(1036.5,-359) scale(1.1547 1)" font-family="Comic Sans MS" font-size="0.35" font-weight="bold" text-anchor="middle" x="0" y="0.14875" fill="rgba(165,42,42,0.690196)">TRAVEL ZONES</text><text transform="translate(1036.5,-355) scale(1.1547 1)" font-family="Comic Sans MS" font-size="0.35" font-weight="bold" text-anchor="middle" x="0" y="0.14875" fill="rgba(165,42,42,0.690196)">BASES</text><text transform="translate(1032.5,-359) scale(1.1547 1)" font-family="Comic Sans MS" font-size="0.35" font-weight="bold" text-anchor="middle" x="0" y="0.14875" fill="rgba(165,42,42,0.690196)">MAP LEGEND</text><g transform="translate(1032.5,-358) scale(1.1547 1)"><text font-family="Comic Sans MS" font-size="0.21" font-weight="bold" text-anchor="middle" x="0" y="-0.0570732" fill="rgb(128,128,128)">STARPORT</text><text font-family="Comic Sans MS" font-size="0.21" font-weight="bold" text-anchor="middle" x="0" y="0.235573" fill="rgb(128,128,128)">TYPE</text></g><text transform="translate(1033.5,-357.5) scale(1.1547 1)" font-family="Comic Sans MS" font-size="0.21" font-weight="bold" text-anchor="middle" x="0" y="0.08925" fill="rgb(128,128,128)">GAS GIANT</text><g transform="translate(1033.5,-356.5) scale(1.1547 1)"><text font-family="Comic Sans MS" font-size="0.21" font-weight="bold" text-anchor="middle" x="0" y="-0.0570732" fill="rgb(128,128,128)"/><text font-family="Comic Sans MS" font-size="0.21" font-weight="bold" text-anchor="middle" x="0" y="0.235573" fill="rgb(128,128,128)">ALLEGIANCE</text></g><g transform="translate(1032.5,-356) scale(1.1547 1)"><text font-family="Comic Sans MS" font-size="0.21" font-weight="bold" text-anchor="middle" x="0" y="-0.0570732" fill="rgb(128,128,128)">WORLD</text><text font-family="Comic Sans MS" font-size="0.21" font-weight="bold" text-anchor="middle" x="0" y="0.235573" fill="rgb(128,128,128)">NAME</text></g><g transform="translate(1031.5,-356.5) scale(1.1547 1)"><text font-family="Comic Sans MS" font-size="0.21" font-weight="bold" text-anchor="middle" x="0" y="-0.0570732" fill="rgb(128,128,128)">X-BOAT</text><text font-family="Comic Sans MS" font-size="0.21" font-weight="bold" text-anchor="middle" x="0" y="0.235573" fill="rgb(128,128,128)">ROUTE</text></g><text transform="translate(1031.5,-357.5) scale(1.1547 1)" font-family="Comic Sans MS" font-size="0.21" font-weight="bold" text-anchor="middle" x="0" y="0.08925" fill="rgb(128,128,128)">BASES</text><g transform="translate(1033.5,-354.5) scale(1.1547 1)"><text font-family="Comic Sans MS" font-size="0.21" font-weight="bold" text-anchor="middle" x="0" y="-0.0570732" fill="rgb(128,128,128)">NO</text><text font-family="Comic Sans MS" font-size="0.21" font-weight="bold" text-anchor="middle" x="0" y="0.235573" fill="rgb(128,128,128)">GAS GIANT</text></g><g transform="translate(1031.5,-354.5) scale(1.1547 1)"><text font-family="Comic Sans MS" font-size="0.21" font-weight="bold" text-anchor="middle" x="0" y="-0.0570732" fill="rgb(128,128,128)">TRAVEL</text><text font-family="Comic Sans MS" font-size="0.21" font-weight="bold" text-anchor="middle" x="0" y="0.235573" fill="rgb(128,128,128)">ZONE</text></g><text transform="translate(1031.5,-353.5) scale(1.1547 1)" font-family="Comic Sans MS" font-size="0.21" font-weight="bold" text-anchor="middle" x="0" y="0.08925" fill="rgb(128,128,128)">BORDER</text><g clip-path="url(#did5)"><circle transform="translate(1032.5,-354) scale(1.1547 1)" r="0.4" cx="0" cy="0" stroke="rgb(227,39,54)" stroke-width="0.03125"/></g><g transform="translate(1032.5,-354) scale(1.1547 1)"><text font-family="Comic Sans MS" font-size="0.21" font-weight="bold" text-anchor="middle" x="0" y="-0.13575" fill="rgba(0,0,0,0.690196)">X</text><circle r="0.1" cx="0" cy="0" fill="rgba(0,0,0,0.690196)"/><text font-family="Comic Sans MS" font-size="0.168" font-weight="bold" text-anchor="middle" x="0" y="0.4414" fill="rgba(0,0,0,0.690196)">LAICEPS</text></g></g></svg>