<svg xmlns="http://www.w3.org/2000/svg" width="416" height="71" viewBox="0 0 110.07 18.79"><g fill="#2f0306" stroke="#000" stroke-width="1.5"><path d="M5.67 2.17l-.5 2.09q-.28 1.19-.55 2.5-.27 1.29-.52 2.6-.26 1.3-.44 2.4-.13-.02-.28-.02h-.73q-.18 0-.33.02.3-1.13.62-2.47.31-1.35.59-2.66.28-1.32.5-2.49.23-1.17.37-1.97-.59 0-1.43.03t-1.92.1l.1-.38.06-.4q.81.04 1.73.05H5l2.02-.01 1.64-.05q-.07.2-.1.35l-.06.45-.63-.03-.75-.05q-.38-.03-.77-.04l-.68-.02zm4.74 4.06l.42.06.47.01h.33q.27-.01.6-.06.34-.06.72-.16.37-.12.67-.33.64-.44.9-1.02.26-.6.26-1.13 0-.57-.24-.89-.24-.31-.59-.45-.33-.15-.7-.16-.38-.03-.66-.03-.35 0-.62.03l-.61.04-.24.93-.2.83-.21.98-.3 1.35zm5.56 5.53l-.4-.02h-.77l-.36.02-.88-1.33Q13.1 9.7 12.62 9q-.47-.7-.9-1.3-.42-.6-.72-.95-.08-.02-.17-.02h-.36l-.17-.03-.52 2.56q-.24 1.26-.45 2.5l-.27-.01h-.71q-.15 0-.28.02.28-1.04.6-2.4.31-1.39.6-2.8.3-1.41.55-2.74.26-1.32.42-2.3l.47.04.48.01h.4l.6-.03.6-.01.4-.02q.43 0 .9.06.47.05.83.23.57.28.82.73.27.45.27.93 0 .7-.39 1.39-.37.67-1.14 1.14-.27.18-.59.3-.3.12-.58.2l-.53.11q-.24.05-.37.06l.5.77.62.96.71 1.04q.38.5.7.97l.6.81q.28.35.43.51zm7.16-8.58l-2.61 3.98q.85.04 1.74.04.87 0 1.74-.04l-.83-3.98zm3.03 8.58q-.15-.02-.31-.02h-.75l-.3.02-.14-.94-.2-1.17q-.08-.58-.19-1.1l-.15-.8-.8-.04-1.2-.01-.99.01-.99.03q-.21.3-.54.85-.32.52-.66 1.12-.35.59-.66 1.16l-.5.89-.2-.02h-.52l-.28.02q1.29-1.9 2.53-3.79 1.27-1.9 2.54-3.86.56-.87.98-1.49.43-.63.83-1.27h.28l.24 1.21.38 1.87.43 2.19.47 2.18.4 1.83q.2.8.3 1.13zm4.07-1.43q.18-.32.42-.7.25-.41.46-.8l.83-1.46.6-1.05q.26-.45.42-.77l.32-.55.24-.47.25-.48.7-1.37q.34-.67.55-1.17.18.06.5.06t.55-.06l-.4.66-.7 1.19-.9 1.55q-.5.84-1 1.72-.52.87-1.01 1.73l-.89 1.56-.69 1.2-.37.64-.18-.02h-.5l-.18.02q-.26-1.57-.59-3.3L28.05 5l-.33-1.75q-.15-.87-.33-1.74.25.06.66.06l.34-.01.27-.05.2 1.4.2 1.4.25 1.57.27 1.55q.12.74.27 1.41.15.68.3 1.49h.08zm7.67-3.68q-.25 1.12-.47 2.27L37 11.17q1.03 0 2.02-.03 1.01-.03 2-.15-.07.25-.09.4v.37q-.37-.02-.8-.02h-3.72q-.54 0-.86.02.29-1.04.6-2.4.32-1.39.62-2.8t.56-2.74l.42-2.3 1.42.04 1.22.01h1.12l.53-.03.43-.03q-.09.26-.12.42-.03.15-.01.4-.32-.05-.77-.08-.45-.05-.93-.06l-.95-.02-.78-.01q-.3 1.21-.5 2.16L38 6.06h2.23l.5-.03.46-.03.34-.03-.12.4q-.03.14-.01.37-.53-.06-1.07-.08l-1.05-.01h-1.4zm10.25 4.28q-.07.22-.1.4-.02.18-.02.43-.39-.02-.95-.02h-3.61q-.41 0-.71.02.28-1.04.6-2.4.32-1.39.62-2.8t.55-2.74q.26-1.32.42-2.3.24.05.65.05.43 0 .69-.06-.63 2.42-1.14 4.8-.51 2.38-.95 4.84 1-.01 1.97-.04.99-.03 1.98-.18zm6.39 0q-.07.22-.1.4-.02.18-.02.43-.39-.02-.95-.02h-3.62q-.4 0-.7.02.28-1.04.6-2.4l.61-2.8q.3-1.41.56-2.74.26-1.32.42-2.3.24.05.65.05.43 0 .69-.06-.63 2.42-1.14 4.8-.51 2.38-.95 4.84 1-.01 1.97-.04.99-.03 1.98-.18zm3.37-4.28l-.47 2.27-.42 2.25q1.04 0 2.03-.03 1-.03 2-.15-.08.25-.09.4-.02.15 0 .37-.38-.02-.8-.02h-3.72q-.54 0-.86.02.29-1.04.6-2.4.32-1.39.62-2.8t.55-2.74q.26-1.32.43-2.3l1.42.04 1.22.01h1.11l.53-.03.43-.03q-.09.26-.12.42-.03.15-.01.4-.32-.05-.77-.08-.45-.05-.93-.06l-.95-.02-.78-.01q-.3 1.21-.5 2.16l-.4 1.74h2.22l.5-.03.47-.03.34-.03-.12.4q-.03.14-.01.37-.53-.06-1.07-.08l-1.05-.01h-1.4zm7.35-.42q.2.04.42.06l.46.01h.33q.27-.01.6-.06.35-.06.72-.16.38-.12.68-.33.63-.44.89-1.02.27-.6.27-1.13 0-.57-.24-.89-.24-.31-.59-.45-.33-.15-.7-.16-.38-.03-.67-.03-.34 0-.61.03l-.62.04-.24.93-.2.83-.2.98-.3 1.35zm5.55 5.53l-.4-.02h-.77l-.36.02-.87-1.33L67.46 9q-.46-.7-.9-1.3-.42-.6-.72-.95-.07-.02-.16-.02h-.36l-.17-.03-.53 2.56q-.24 1.26-.45 2.5l-.27-.01h-.7q-.15 0-.29.02.29-1.04.6-2.4.32-1.39.6-2.8.3-1.41.56-2.74.26-1.32.42-2.3l.47.04.48.01h.4l.6-.03.6-.01.4-.02q.43 0 .9.06.46.05.82.23.57.28.83.73.27.45.27.93 0 .7-.4 1.39-.37.67-1.13 1.14-.27.18-.59.3-.3.12-.59.2-.28.07-.52.11-.24.05-.38.06l.5.77.63.96.7 1.04q.38.5.71.97l.6.81q.27.35.42.51z" transform="scale(1.0134 .98678)"/><path d="M3.62 14.05q-.07-.2-.25-.3-.17-.11-.4-.11-.19 0-.34.07-.16.07-.27.18-.11.11-.18.27-.05.15-.05.31t.04.27q.05.1.14.2.08.08.2.16l.26.16.25.16q.12.07.22.18.09.1.14.24.06.13.06.33 0 .23-.1.48-.1.24-.31.44-.2.2-.5.33-.3.12-.68.12-.22 0-.44-.05-.21-.04-.4-.15l.1-.22.1-.23h.04q.06.12.16.2.1.09.22.14.11.05.23.07l.2.02q.23 0 .4-.1.18-.08.3-.22t.17-.31q.07-.17.07-.32 0-.16-.05-.27-.05-.12-.13-.2-.08-.1-.2-.17l-.23-.15-.26-.17q-.13-.08-.23-.19-.09-.11-.15-.25t-.06-.34q0-.25.11-.47.1-.22.3-.38.18-.16.44-.25.26-.1.57-.1.28 0 .46.07l.28.1-.11.23q-.04.08-.08.22h-.04zm2.69 3.28q-.4.18-.86.18-.27 0-.5-.06-.24-.06-.42-.21-.17-.15-.28-.38-.1-.22-.1-.53 0-.28.1-.57.1-.3.3-.54.22-.24.54-.4.33-.16.79-.16.31 0 .53.07.22.05.35.1l-.05.12-.04.1-.02.08-.03.13h-.04q-.1-.2-.31-.3-.2-.11-.43-.11-.27 0-.5.13-.23.12-.39.33-.16.2-.24.48-.09.26-.09.54 0 .31.1.5.1.2.23.32.15.1.3.14.17.04.29.04.15 0 .28-.03l.24-.08.18-.08.13-.07.03.01-.09.25zm1.47-3.53q0-.12.09-.2.08-.08.2-.08.1 0 .2.08.07.08.07.2 0 .11-.08.2-.08.07-.2.07-.11 0-.2-.08-.08-.08-.08-.2zm.32.91l-.08.3-.1.44-.13.53-.12.56-.1.51-.05.4h-.5q.07-.18.14-.45l.13-.56.12-.57.1-.53.08-.4.03-.23q.12.03.25.03.14 0 .23-.03zm1.9.13q-.11 0-.26.04-.14.04-.28.16-.13.11-.25.3-.11.2-.18.5.18.02.4.02h.89q.16 0 .28-.02l.02-.12.01-.2q0-.18-.05-.32-.06-.13-.15-.21-.09-.08-.2-.12-.1-.03-.22-.03zm.62 2.43q-.22.13-.46.18-.24.06-.5.06-.18 0-.38-.05t-.38-.18q-.17-.14-.28-.37-.11-.23-.11-.58t.1-.65q.12-.3.31-.52.2-.23.47-.36.28-.13.62-.13.2 0 .4.05.18.05.32.16.15.11.23.3.09.18.09.44 0 .17-.03.28l-.04.2-.22-.02h-.4q-.1-.02-.23-.02h-.61l-.28.01h-.25l-.02.15v.2q0 .28.08.45.09.18.21.28.13.1.27.13.16.04.28.04.17 0 .3-.04.14-.03.25-.08l.18-.1.14-.1h.01zm1.75-2.11l.15-.17.22-.15q.13-.07.28-.1.15-.05.31-.05t.3.04q.15.04.26.13.12.09.19.22t.07.3v.1q0 .06-.03.13 0 .08-.04.2l-.07.3-.06.3-.08.4-.08.39-.04.26-.1-.01h-.38q.03-.04.07-.19l.09-.33.1-.4.09-.41.06-.38q.03-.16.03-.26 0-.14-.05-.23-.05-.1-.13-.16-.08-.07-.19-.1-.1-.03-.2-.03l-.2.02q-.1.03-.24.1-.12.06-.23.18-.12.12-.18.32l-.07.27-.1.36-.07.4-.08.38-.05.3-.03.17-.1-.01h-.34l.08-.33.12-.5.12-.55.11-.55.1-.47.05-.34q.09.03.2.03h.12l.11-.03-.11.44zm4.6 2.17q-.4.18-.86.18-.27 0-.5-.06-.24-.06-.42-.21-.17-.15-.28-.38-.1-.22-.1-.53 0-.28.1-.57.1-.3.3-.54.21-.24.54-.4.33-.16.78-.16.32 0 .53.07.23.05.36.1l-.05.12-.04.1q0 .03-.03.08 0 .06-.03.13h-.03q-.11-.2-.32-.3-.2-.11-.42-.11-.27 0-.5.13-.23.12-.39.33-.16.2-.24.48-.1.26-.1.54 0 .31.1.5.1.2.24.32.15.1.3.14.17.04.29.04.15 0 .28-.03l.24-.08.18-.08.12-.07.03.01-.08.25zm2.25-2.49q-.12 0-.27.04-.14.04-.28.16-.13.11-.25.3-.11.2-.18.5.18.02.4.02h.89q.16 0 .28-.02l.02-.12.01-.2q0-.18-.05-.32-.06-.13-.15-.21-.09-.08-.2-.12-.1-.03-.22-.03zm.6 2.43q-.2.13-.45.18-.24.06-.5.06-.18 0-.38-.05t-.38-.18q-.17-.14-.28-.37-.11-.23-.11-.58t.1-.65q.12-.3.31-.52.2-.23.47-.36.28-.13.62-.13.2 0 .4.05.18.05.32.16.15.11.23.3.09.18.09.44 0 .17-.03.28l-.04.2-.22-.02h-.4q-.1-.02-.23-.02h-.61l-.28.01h-.25l-.02.15v.2q0 .28.08.45.09.18.21.28.13.1.27.13.16.04.28.04.17 0 .3-.04.14-.03.24-.08l.2-.1.12-.1h.02zm3.12-1.79l-.11.53-.1.47-.08.46-.1.52-.1-.01h-.41l.23-.93.24-1.08.21-1.06.17-.9.56.02.47.01h.44l.35-.02-.04.16v.16l-.3-.03-.37-.03h-.66l-.2.82-.15.68h.69l.37-.01.3-.02-.04.15-.01.14-.41-.03h-.95zm2.66-1.68q0-.12.08-.2.08-.08.2-.08.11 0 .2.08.07.08.07.2 0 .11-.08.2-.08.07-.2.07-.11 0-.2-.08-.07-.08-.07-.2zm.32.91l-.09.3-.1.44-.13.53-.11.56-.1.51-.06.4h-.5q.07-.18.14-.45l.13-.56.12-.57.1-.53.08-.4.03-.23q.12.03.25.03.14 0 .24-.03zm2.61 2.62q-.4.18-.86.18-.27 0-.5-.06-.24-.06-.42-.21-.17-.15-.28-.38-.1-.22-.1-.53 0-.28.1-.57.1-.3.3-.54.22-.24.54-.4.33-.16.79-.16.31 0 .53.07.22.05.35.1l-.05.12-.04.1-.02.08-.03.13h-.04q-.1-.2-.31-.3-.2-.11-.43-.11-.27 0-.5.13-.23.12-.39.33-.16.2-.24.48-.09.26-.09.54 0 .31.1.5.1.2.23.32.15.1.3.14.17.04.29.04.15 0 .28-.03l.24-.08.18-.08.13-.07.03.01-.09.25zm1.93-3.34l-.1.4-.09.4h.3l.3-.02q-.03.12-.03.24l-.32-.02h-.3L30 16.07l-.04.2-.05.23-.03.21-.02.17q0 .12.04.2l.1.13q.07.05.14.07.07.03.14.03.1 0 .2-.03l.18-.09-.01.15q-.12.1-.29.13-.16.03-.3.03-.11 0-.23-.03-.11-.03-.2-.1-.09-.06-.14-.16-.06-.1-.06-.24 0-.11.03-.24l.05-.27.11-.49.07-.33.06-.3.08-.37h-.19l-.2.01.03-.09.01-.13.2.01.17.01.1-.62.51-.18zm1.32-.19q0-.12.08-.2.08-.08.2-.08.12 0 .2.08.08.08.08.2 0 .11-.08.2-.08.07-.2.07-.12 0-.2-.08-.08-.08-.08-.2zm.32.91l-.08.3-.11.44-.12.53-.12.56-.1.51-.06.4h-.49l.13-.45.14-.56.12-.57.1-.53.07-.4.04-.23q.12.03.24.03.15 0 .24-.03zm.86 1.79q0 .37.17.6.18.25.57.25.33 0 .56-.18.23-.18.37-.44.15-.25.21-.54.07-.28.07-.5 0-.18-.06-.33-.04-.16-.14-.27-.1-.11-.25-.18-.14-.06-.33-.06-.31 0-.54.17-.22.17-.36.42-.14.24-.2.53-.07.29-.07.53zm-.46-.14q0-.31.11-.62.12-.3.33-.54.2-.24.51-.39.3-.15.68-.15.34 0 .58.1.24.1.38.25.15.16.21.36.07.2.07.43 0 .32-.12.63t-.33.55q-.22.25-.52.4-.3.13-.68.13-.36 0-.6-.1-.23-.1-.37-.27-.14-.18-.2-.38-.05-.21-.05-.4zm4.2-1.2l.15-.17.22-.15q.12-.07.28-.1.15-.05.31-.05t.3.04q.15.04.26.13.12.09.19.22t.07.3l-.01.1-.02.13-.04.2-.07.3-.06.3-.08.4-.08.39-.04.26-.1-.01h-.38q.03-.04.07-.19l.08-.33q.06-.18.1-.4l.1-.41.06-.38q.03-.16.03-.26 0-.14-.05-.23-.05-.1-.13-.16-.08-.07-.19-.1-.1-.03-.2-.03l-.2.02q-.11.03-.24.1-.12.06-.24.18-.1.12-.17.32l-.08.27-.08.36-.09.4-.07.38-.05.3-.03.17-.1-.01h-.35l.1-.33.1-.5q.07-.26.12-.55l.12-.55.09-.47.06-.34q.08.03.2.03h.12l.1-.03-.1.44zm5.76-1.03l-1 1.54q.32.02.67.02l.67-.02-.32-1.54zm1.18 3.33l-.12-.01h-.42l-.05-.36-.08-.45-.07-.42-.06-.32-.31-.01h-.85l-.38.01q-.09.12-.21.33l-.26.43-.26.45-.19.35-.08-.01h-.29l.98-1.46.98-1.5.38-.57.32-.5h.1l.1.47.15.73.17.85.18.84.15.7.12.45zm1.14-1.01q0 .42.18.65.18.22.52.22.33 0 .55-.18.21-.2.34-.45.14-.26.19-.54.05-.28.05-.48l-.02-.22q-.02-.13-.1-.26-.07-.13-.21-.21-.14-.1-.38-.1-.34 0-.56.18-.21.18-.34.44-.13.25-.18.52-.04.26-.04.43zm1.62.5q-.07.1-.17.2l-.21.2q-.13.08-.29.13-.16.05-.37.05-.26 0-.46-.08-.2-.09-.33-.24-.13-.16-.2-.37-.06-.2-.06-.43 0-.27.1-.57.09-.31.27-.57.2-.26.48-.43.29-.17.67-.17.23 0 .38.07.16.06.26.16.1.08.16.18l.08.17h.02q.1-.56.22-1.1l.18-1.03q.1.02.24.02.14 0 .22-.02l-.22.92-.17.76-.15.74-.17.83-.1.51-.1.58-.08-.01h-.34zm2.44-.03l.16-.25.12-.2.13-.24.18-.32.26-.5.16-.29.1-.2.11-.2q.07.02.18.02.13 0 .2-.03l-.15.22-.19.3-.22.36-.22.35-.18.3-.12.2-.38.68-.16.34-.07-.01h-.23l-.07-.3-.13-.6-.22-.92-.22-.92q.09.03.21.03.14 0 .23-.03l.23 1.11.26 1.1h.03zm3.26-2.08q-.11 0-.26.04-.13.04-.27.16-.14.11-.25.3-.12.2-.19.5.19.02.4.02h.89q.16 0 .28-.02l.02-.12q.02-.07.02-.2 0-.18-.06-.32-.06-.13-.15-.21-.09-.08-.2-.12-.1-.03-.22-.03zm.62 2.43q-.22.13-.46.18-.24.06-.5.06-.18 0-.38-.05t-.38-.18q-.17-.14-.28-.37-.1-.23-.1-.58t.1-.65q.1-.3.3-.52.2-.23.48-.36.28-.13.6-.13.22 0 .4.05.19.05.33.16.15.11.23.3.09.18.09.44 0 .17-.02.28l-.05.2-.22-.02h-.4q-.1-.02-.23-.02h-.61l-.28.01h-.25l-.02.15v.2q0 .28.08.45.09.18.21.28.13.1.28.13.15.04.27.04.17 0 .3-.04.14-.03.25-.08l.18-.1.14-.1h.01zm1.75-2.11l.15-.17q.1-.08.23-.15.12-.07.27-.1.15-.05.31-.05t.3.04q.15.04.26.13.12.09.19.22t.07.3v.1l-.02.13-.05.2-.07.3-.06.3-.08.4-.08.39-.04.26-.1-.01h-.37l.06-.19.09-.33.1-.4.09-.41.06-.38q.03-.16.03-.26 0-.14-.05-.23-.05-.1-.13-.16-.08-.07-.18-.1-.1-.03-.21-.03l-.2.02q-.1.03-.24.1-.12.06-.23.18-.11.12-.18.32l-.07.27-.1.36-.07.4-.08.38-.05.3-.03.17-.1-.01h-.34l.09-.33.11-.5.12-.55.11-.55.1-.47.05-.34q.09.03.2.03h.12l.11-.03-.11.44zm3.57-1.17l-.1.4-.09.4h.3l.3-.02q-.03.12-.03.24l-.32-.02h-.3l-.22 1.09-.04.2-.05.23-.04.21v.17q0 .12.03.2.04.08.1.13.07.05.14.07.07.03.14.03.1 0 .2-.03l.18-.09-.01.15q-.12.1-.29.13-.16.03-.3.03-.12 0-.23-.03-.11-.03-.2-.1-.09-.06-.15-.16-.05-.1-.05-.24 0-.11.03-.24l.05-.27.1-.49.08-.33.06-.3.08-.37h-.19l-.2.01.03-.09v-.13l.2.01.18.01.1-.62.51-.18zm2.54 3.06q-.07.1-.17.18l-.22.15q-.12.06-.27.1-.15.04-.33.04-.15 0-.3-.04-.14-.03-.26-.11-.11-.09-.19-.21-.07-.13-.07-.3 0-.1.05-.33l.13-.58.05-.22.06-.32.07-.35.05-.35q.1.03.26.03.15 0 .25-.03l-.14.52-.15.58-.12.53q-.05.24-.05.36 0 .28.15.42.15.14.42.14.17 0 .3-.05.14-.06.26-.16.1-.09.18-.21.08-.12.12-.26.04-.1.08-.28l.08-.37.08-.4.07-.38.05-.29.03-.15q.11.03.23.03.15 0 .24-.03l-.08.3-.11.44-.12.53-.12.56-.1.51-.06.4h-.43l.1-.37zm3.04-1.88l-.1-.03-.14-.02q-.2 0-.4.18-.19.17-.29.51l-.04.14-.06.27-.07.33-.07.36-.07.32-.03.23-.1-.01h-.35l.08-.3.11-.46.12-.54.1-.56.1-.5.06-.38.1.02h.13q.12 0 .21-.02l-.03.1-.04.16-.05.19-.03.18h.03q.1-.11.19-.24.1-.12.2-.21.11-.1.24-.16.14-.06.3-.06l-.04.26-.01.22-.05.02zm1.8-.33q-.12 0-.26.04t-.28.16q-.14.11-.25.3-.12.2-.18.5.18.02.4.02h.87q.17 0 .28-.02l.02-.12q.02-.07.02-.2 0-.18-.06-.32-.05-.13-.15-.21-.08-.08-.2-.12-.1-.03-.22-.03zm.6 2.43q-.2.13-.45.18-.24.06-.49.06-.19 0-.39-.05t-.38-.18q-.17-.14-.28-.37-.1-.23-.1-.58t.1-.65q.1-.3.3-.52.2-.23.48-.36.28-.13.6-.13.22 0 .4.05.19.05.34.16.14.11.22.3.09.18.09.44 0 .17-.02.28l-.04.2-.23-.02h-.4q-.1-.02-.23-.02h-.61l-.28.01h-.24l-.03.15v.2q0 .28.08.45.1.18.21.28.13.1.28.13.15.04.27.04.17 0 .3-.04.14-.03.25-.08l.18-.1.14-.1h.01zm2.82-3.47q0-.12.08-.2.08-.08.2-.08.11 0 .2.08.08.08.08.2 0 .11-.08.2-.09.07-.2.07-.12 0-.2-.08-.08-.08-.08-.2zm.32.91l-.08.3-.11.44-.13.53-.11.56-.1.51-.06.4h-.5q.07-.18.14-.45l.13-.56.13-.57.1-.53.07-.4.03-.23q.12.03.25.03.14 0 .24-.03zm1.31.45q.05-.08.15-.17l.22-.15q.12-.07.27-.1.15-.05.32-.05.15 0 .3.04.14.04.26.13.11.09.18.22.07.13.07.3v.1l-.02.13-.04.2-.07.3-.07.3-.08.4-.07.39q-.04.18-.04.26l-.1-.01h-.38l.06-.19.09-.33.1-.4.1-.41.06-.38q.03-.16.03-.26 0-.14-.06-.23-.04-.1-.13-.16-.08-.07-.18-.1-.1-.03-.21-.03l-.19.02q-.11.03-.24.1-.12.06-.24.18-.11.12-.18.32l-.07.27-.09.36-.08.4-.08.38-.05.3-.03.17-.1-.01h-.34l.09-.33.11-.5.12-.55.12-.55.08-.47q.05-.22.06-.34.09.03.21.03h.11l.11-.03-.1.44zm4.8-1.17l-.1.4-.1.4h.3l.31-.02q-.03.12-.03.24l-.32-.02h-.3l-.23 1.09-.04.2-.04.23-.04.21-.01.17q0 .12.04.2.04.08.1.13.06.05.13.07.08.03.14.03.1 0 .2-.03l.19-.09-.01.15q-.12.1-.29.13-.16.03-.3.03-.12 0-.23-.03-.12-.03-.2-.1-.09-.06-.15-.16-.05-.1-.05-.24l.02-.24.06-.27.1-.49.08-.33.06-.3.08-.37h-.2l-.19.01q.02-.04.02-.09.02-.05.02-.13l.19.01.18.01.1-.62.51-.18zm1.49 1.17q.12-.16.26-.25.14-.1.27-.15.13-.05.25-.07l.2-.02q.23 0 .38.07.16.07.25.18.1.1.14.22.04.12.04.21v.1l-.03.14-.05.26-.1.44-.1.48-.08.46-.02.14-.01.09-.11-.01h-.37l.04-.17.09-.33.1-.41.1-.43.07-.38q.03-.17.03-.26 0-.1-.04-.2-.03-.09-.1-.17-.07-.07-.18-.11-.1-.05-.25-.05l-.19.02q-.12.02-.26.1t-.26.24q-.13.15-.2.43l-.07.33-.1.46-.1.5-.06.44-.1-.01h-.37l.08-.32.15-.63.18-.83.19-.9q.1-.47.17-.9l.13-.75q.09.02.23.02h.12q.07 0 .12-.02l-.12.5-.12.5-.06.27-.06.25-.05.24-.06.27h.03zm3.89-.32q-.12 0-.26.04t-.28.16q-.13.11-.25.3-.12.2-.18.5.18.02.4.02h.88q.17 0 .28-.02l.03-.12.01-.2q0-.18-.06-.32-.05-.13-.14-.21-.1-.08-.2-.12-.11-.03-.23-.03zm.61 2.43q-.21.13-.46.18-.24.06-.49.06-.18 0-.39-.05-.2-.05-.37-.18-.17-.14-.28-.37-.11-.23-.11-.58t.1-.65q.11-.3.3-.52.2-.23.48-.36.28-.13.61-.13.21 0 .4.05.18.05.33.16.14.11.23.3.08.18.08.44 0 .17-.02.28l-.04.2-.22-.02H81q-.1-.02-.24-.02h-.61l-.28.01h-.24l-.02.15-.01.2q0 .28.09.45.08.18.2.28.13.1.28.13.15.04.27.04.17 0 .3-.04.15-.03.25-.08l.19-.1.13-.1h.02zm3.12-1.79l-.12.53-.09.47-.09.46-.09.52-.11-.01h-.41q.11-.4.23-.93.13-.53.24-1.08l.22-1.06q.1-.5.16-.9l.57.02.47.01h.44l.35-.02-.05.16v.16l-.3-.03-.36-.03h-.66l-.2.82-.15.68h.68l.38-.01.3-.02-.04.15-.01.14-.42-.03h-.94zm2.3 1.35q0 .22.14.33.14.12.32.12.24 0 .43-.14.2-.13.33-.32l.07-.4q.04-.21.1-.41l-.26.05-.26.05-.3.09q-.15.05-.28.13-.12.08-.2.2-.09.13-.09.3zm.18-1.86q.22-.15.44-.23.24-.08.5-.08.37 0 .58.18.22.18.22.47 0 .12-.03.25l-.04.2-.17.71-.06.31-.02.21q0 .1.06.19.05.07.17.07l.09-.01.07-.04.03.12q-.1.07-.2.1-.11.04-.23.04-.19 0-.28-.1-.1-.1-.1-.28-.18.19-.41.32-.22.12-.5.12-.13 0-.26-.04-.13-.03-.24-.1-.1-.09-.16-.2-.06-.13-.06-.28 0-.28.14-.45.15-.18.35-.27.2-.1.42-.16l.35-.08.25-.04q.13-.02.22-.06.12-.05.15-.18.03-.12.03-.25 0-.26-.17-.38-.17-.13-.41-.13-.24 0-.42.11-.17.1-.32.27h-.07zm4.1.2l-.1-.03-.14-.02q-.2 0-.4.18-.19.17-.29.51l-.04.14-.06.27-.07.33-.07.36-.07.32-.03.23-.1-.01h-.36l.1-.3.1-.46.12-.54.11-.56.1-.5.05-.38.1.02h.13q.13 0 .21-.02 0 .04-.03.1l-.04.16-.05.19-.03.18h.03q.1-.11.19-.24.1-.12.2-.21.11-.1.25-.16.13-.06.3-.06l-.05.26-.01.22-.05.02zm2.57.31l-.12.53-.1.47-.08.46-.1.52-.1-.01h-.41q.11-.4.23-.93l.24-1.08.22-1.06q.1-.5.16-.9l.56.02.48.01h.44l.35-.02-.05.16v.16l-.3-.03-.36-.03h-.66l-.21.82-.15.68h.7l.36-.01.3-.02-.03.15q-.02.05-.02.14l-.4-.03h-.95zm3.87 1.57q-.07.1-.17.18l-.22.15q-.12.06-.27.1-.15.04-.33.04-.15 0-.3-.04-.14-.03-.26-.11-.11-.09-.19-.21-.07-.13-.07-.3 0-.1.05-.33l.13-.58.05-.22.06-.32.07-.35.05-.35q.1.03.26.03.15 0 .25-.03l-.14.52-.15.58-.12.53q-.05.24-.05.36 0 .28.15.42.15.14.42.14.16 0 .3-.05.14-.06.25-.16.12-.09.2-.21.07-.12.11-.26.04-.1.08-.28l.08-.37.08-.4.07-.38.05-.29.03-.15q.11.03.23.03.15 0 .24-.03l-.08.3-.11.44-.13.53-.11.56-.1.51-.06.4h-.43l.1-.37zm2.53-3.06l-.1.4-.1.4h.3l.31-.02q-.03.12-.03.24l-.32-.02h-.3l-.23 1.09-.04.2-.04.23-.04.21-.01.17q0 .12.04.2.04.08.1.13.06.05.13.07.08.03.14.03.1 0 .2-.03l.19-.09-.01.15q-.12.1-.29.13-.16.03-.3.03-.12 0-.24-.03-.1-.03-.2-.1-.08-.06-.14-.16-.05-.1-.05-.24l.02-.24.06-.27.1-.49q.05-.18.07-.33l.07-.3.07-.37h-.18l-.2.01q.02-.04.02-.09.02-.05.02-.13l.19.01.18.01.1-.62.5-.18zm2.53 3.06q-.07.1-.17.18-.09.08-.21.15-.12.06-.27.1-.15.04-.34.04-.14 0-.29-.04-.14-.03-.26-.11-.12-.09-.2-.21-.06-.13-.06-.3 0-.1.05-.33l.13-.58.05-.22.06-.32.06-.35.06-.35q.09.03.25.03.15 0 .25-.03l-.14.52-.14.58-.12.53q-.05.24-.05.36 0 .28.14.42.16.14.42.14.17 0 .31-.05.14-.06.25-.16.11-.09.19-.21.07-.12.12-.26.04-.1.08-.28l.08-.37.07-.4.07-.38.06-.29.02-.15q.12.03.24.03.14 0 .24-.03l-.09.3-.1.44-.13.53-.11.56-.1.51-.06.4h-.43l.1-.37zm3.04-1.88l-.1-.03q-.06-.02-.13-.02-.2 0-.4.18-.2.17-.3.51l-.03.14-.06.27-.08.33-.07.36-.06.32-.04.23-.1-.01h-.35l.09-.3.1-.46q.07-.26.12-.54.07-.29.11-.56l.1-.5.06-.38q.04.02.1.02h.12q.13 0 .22-.02l-.04.1-.04.16-.04.19-.03.18h.03l.18-.24q.1-.12.2-.21.12-.1.25-.16t.3-.06l-.04.26-.01.22-.06.02zm1.8-.33q-.11 0-.26.04-.14.04-.28.16-.13.11-.25.3-.11.2-.18.5.18.02.4.02h.87q.17 0 .29-.02l.02-.12.01-.2q0-.18-.06-.32-.05-.13-.14-.21-.09-.08-.2-.12-.1-.03-.23-.03zm.62 2.43q-.22.13-.46.18-.24.06-.5.06-.18 0-.38-.05t-.38-.18q-.17-.14-.28-.37-.11-.23-.11-.58t.1-.65q.11-.3.31-.52.2-.23.47-.36.28-.13.61-.13.21 0 .4.05.19.05.33.16.15.11.23.3.09.18.09.44 0 .17-.03.28l-.04.2-.22-.02h-.4q-.1-.02-.23-.02h-.61l-.28.01h-.25l-.02.15v.2q0 .28.08.45.09.18.2.28.14.1.28.13.15.04.28.04.17 0 .3-.04.14-.03.24-.08l.19-.1.13-.1h.02zM74.3 7.3q-.76 0-1.3.55-.54.54-.54 1.31t.54 1.32q.54.54 1.3.54.78 0 1.32-.54.53-.55.53-1.32t-.53-1.3q-.55-.55-1.31-.55zm2.16 1.86q0 .9-.63 1.53t-1.52.63q-.9 0-1.52-.63-.63-.63-.63-1.53 0-.89.63-1.52.63-.62 1.52-.62t1.52.62q.63.63.63 1.52zm-1.6-.47q0-.26-.15-.34-.15-.1-.5-.1h-.36v.86h.38q.26 0 .4-.05.24-.1.24-.37zm-.6-.72q.44 0 .65.09.37.15.37.6 0 .31-.24.46-.12.08-.34.12.28.04.4.23.14.19.14.36v.35q0 .1.02.13l.02.03h-.4v-.05l-.01-.08v-.19q0-.4-.22-.54-.14-.08-.47-.08h-.33v.94h-.41V7.97z"/></g><path fill="#e32736" stroke-width=".27" d="M5.75 2.14L5.23 4.2l-.55 2.46-.53 2.57q-.26 1.29-.44 2.37-.14-.02-.29-.02h-.73q-.18 0-.34.02.3-1.11.63-2.43.32-1.34.6-2.62.28-1.3.51-2.46l.37-1.95q-.6 0-1.45.03t-1.95.1q.08-.23.1-.38.04-.15.07-.4.82.05 1.75.06h2.08l2.06-.01 1.66-.05q-.08.2-.1.34-.04.15-.07.45l-.64-.03-.76-.05q-.38-.03-.78-.04l-.68-.02zm4.8 4.01q.21.04.43.05.22.02.47.02h.33l.61-.06q.35-.06.73-.16.38-.12.69-.33.64-.43.9-1 .27-.6.27-1.12 0-.56-.24-.87-.25-.31-.6-.45-.33-.15-.71-.16-.38-.03-.67-.03-.35 0-.63.03l-.62.04-.25.92-.2.82-.2.96-.31 1.34zm5.63 5.45l-.41-.02h-.78l-.36.02-.88-1.3-.96-1.43q-.47-.7-.92-1.29-.42-.59-.73-.93-.07-.02-.16-.02h-.37l-.17-.03-.53 2.52-.46 2.48q-.12-.02-.27-.02h-.72q-.15 0-.28.02.28-1.02.6-2.37.32-1.37.61-2.76l.57-2.7q.25-1.3.42-2.28l.47.05.5.01h.4l.61-.03.61-.01.4-.02q.44 0 .9.06.48.05.85.22.57.28.83.73.28.44.28.92 0 .68-.4 1.36-.38.67-1.16 1.13-.27.18-.59.3-.3.11-.6.19l-.53.12-.38.06.5.75.65.95.71 1.02.72.97.6.8.43.5zm7.26-8.46l-2.65 3.92q.87.05 1.77.05.88 0 1.76-.05l-.84-3.92zm3.07 8.46q-.15-.02-.32-.02h-.76l-.3.02-.14-.92-.2-1.16q-.09-.57-.2-1.08l-.15-.8-.8-.03-1.22-.01-1 .01-1.01.03-.55.83-.67 1.11q-.35.58-.67 1.15l-.5.87q-.1-.02-.21-.02h-.52l-.29.02q1.31-1.87 2.57-3.74 1.28-1.86 2.58-3.8.56-.86.98-1.47.45-.62.84-1.26h.3l.23 1.2.39 1.84.44 2.16.47 2.15.41 1.8q.2.8.3 1.12zm4.12-1.4q.18-.32.43-.7.26-.4.47-.8l.84-1.43q.36-.6.6-1.04l.43-.75.32-.55.25-.46.25-.47.7-1.35q.35-.67.57-1.16.18.06.51.06.32 0 .55-.06l-.4.65-.7 1.17-.92 1.53-1.02 1.7-1.02 1.71-.9 1.54-.7 1.19-.38.62-.18-.02h-.51l-.18.02q-.26-1.54-.6-3.25l-.62-3.42-.33-1.72q-.15-.86-.34-1.72.26.06.67.06l.35-.01.28-.05.2 1.38.2 1.38.25 1.55.28 1.53q.12.73.27 1.4.15.66.3 1.46h.08zm7.77-3.64l-.47 2.24-.43 2.22q1.05 0 2.06-.03 1.02-.03 2.02-.15-.08.26-.09.4-.02.15 0 .36-.38-.02-.8-.02H36.9q-.55 0-.87.02.29-1.02.6-2.37.33-1.37.63-2.76l.57-2.7q.26-1.3.42-2.28l1.45.05 1.23.01h1.13l.53-.03.44-.03q-.09.25-.12.42-.03.14-.01.4-.32-.06-.78-.1-.46-.04-.94-.05l-.96-.02-.8-.01q-.3 1.2-.51 2.13l-.4 1.72h2.25l.5-.03.48-.03.35-.03-.12.39q-.03.15-.02.37-.53-.06-1.08-.07l-1.06-.02H38.4zm10.4 4.22q-.08.23-.11.4-.02.18-.02.42-.4-.02-.95-.02h-3.67q-.41 0-.72.02.3-1.02.61-2.37.32-1.37.62-2.76l.57-2.7q.26-1.3.42-2.28.25.06.66.06.44 0 .7-.06-.64 2.39-1.16 4.74-.52 2.35-.96 4.78l2-.05q1-.03 2-.18zm6.47 0q-.07.23-.1.4-.02.18-.02.42-.4-.02-.96-.02h-3.66q-.42 0-.72.02.29-1.02.6-2.37.33-1.37.63-2.76l.56-2.7q.26-1.3.43-2.28.24.06.65.06.45 0 .7-.06-.64 2.39-1.15 4.74-.52 2.35-.96 4.78l2-.05q1-.03 2-.18zm3.42-4.22q-.25 1.11-.48 2.24l-.42 2.22q1.05 0 2.05-.03 1.02-.03 2.03-.15-.08.26-.1.4v.36q-.37-.02-.8-.02h-3.78q-.54 0-.86.02.29-1.02.6-2.37.33-1.37.63-2.76l.56-2.7q.26-1.3.43-2.28l1.45.05 1.23.01h1.12l.54-.03.44-.03q-.1.25-.12.42-.03.14-.02.4-.32-.06-.77-.1-.46-.04-.95-.05l-.96-.02-.79-.01-.52 2.13q-.2.92-.4 1.72h2.27l.5-.03.48-.03.35-.03-.13.39q-.03.15-.01.37-.53-.06-1.08-.07l-1.07-.02H58.7zm7.44-.41q.21.04.43.05.22.02.47.02h.33l.61-.06q.35-.06.73-.16.38-.12.69-.33.64-.43.9-1 .27-.6.27-1.12 0-.56-.24-.87-.25-.31-.6-.45-.33-.15-.71-.16-.38-.03-.67-.03-.35 0-.63.03l-.62.04-.24.92-.2.82-.22.96-.3 1.34zm5.63 5.45l-.4-.02h-.79l-.36.02-.88-1.3-.96-1.43q-.47-.7-.92-1.29-.42-.59-.73-.93-.07-.02-.16-.02h-.37l-.17-.03-.53 2.52-.46 2.48q-.12-.02-.27-.02h-.72q-.15 0-.28.02.28-1.02.6-2.37.32-1.37.61-2.76l.57-2.7q.26-1.3.42-2.28l.47.05.5.01h.4l.61-.03.61-.01.4-.02q.44 0 .9.06.48.05.85.22.57.28.83.73.28.44.28.92 0 .68-.4 1.36-.38.67-1.15 1.13-.28.18-.6.3-.3.11-.6.19l-.52.12-.39.06.5.75.65.95.7 1.02.72.97.6.8.43.5z"/><path fill="#fff" stroke-width=".26" d="M3.62 14.05q-.07-.2-.25-.3-.17-.11-.4-.11-.19 0-.34.07-.16.07-.27.18-.11.11-.18.27-.05.15-.05.31t.04.27q.05.1.14.2.08.08.2.16l.26.16.25.16q.12.07.22.18.09.1.14.24.06.13.06.33 0 .23-.1.48-.1.24-.31.44-.2.2-.5.33-.3.12-.68.12-.22 0-.44-.05-.21-.04-.4-.15l.1-.22.1-.23h.04q.06.12.16.2.1.09.22.14.11.05.23.07l.2.02q.23 0 .4-.1.18-.08.3-.22t.17-.31q.07-.17.07-.32 0-.16-.05-.27-.05-.12-.13-.2-.08-.1-.2-.17l-.23-.15-.26-.17q-.13-.08-.23-.19-.09-.11-.15-.25t-.06-.34q0-.25.11-.47.1-.22.3-.38.18-.16.44-.25.26-.1.57-.1.28 0 .46.07l.28.1-.11.23q-.04.08-.08.22h-.04zm2.69 3.28q-.4.18-.86.18-.27 0-.5-.06-.24-.06-.42-.21-.17-.15-.28-.38-.1-.22-.1-.53 0-.28.1-.57.1-.3.3-.54.22-.24.54-.4.33-.16.79-.16.31 0 .53.07.22.05.35.1l-.05.12-.04.1-.02.08-.03.13h-.04q-.1-.2-.31-.3-.2-.11-.43-.11-.27 0-.5.13-.23.12-.39.33-.16.2-.24.48-.09.26-.09.54 0 .31.1.5.1.2.23.32.15.1.3.14.17.04.29.04.15 0 .28-.03l.24-.08.18-.08.13-.07.03.01-.09.25zm1.47-3.53q0-.12.09-.2.08-.08.2-.08.1 0 .2.08.07.08.07.2 0 .11-.08.2-.08.07-.2.07-.11 0-.2-.08-.08-.08-.08-.2zm.32.91l-.08.3-.1.44-.13.53-.12.56-.1.51-.05.4h-.5q.07-.18.14-.45l.13-.56.12-.57.1-.53.08-.4.03-.23q.12.03.25.03.14 0 .23-.03zm1.9.13q-.11 0-.26.04-.14.04-.28.16-.13.11-.25.3-.11.2-.18.5.18.02.4.02h.89q.16 0 .28-.02l.02-.12.01-.2q0-.18-.05-.32-.06-.13-.15-.21-.09-.08-.2-.12-.1-.03-.22-.03zm.62 2.43q-.22.13-.46.18-.24.06-.5.06-.18 0-.38-.05t-.38-.18q-.17-.14-.28-.37-.11-.23-.11-.58t.1-.65q.12-.3.31-.52.2-.23.47-.36.28-.13.62-.13.2 0 .4.05.18.05.32.16.15.11.23.3.09.18.09.44 0 .17-.03.28l-.04.2-.22-.02h-.4q-.1-.02-.23-.02h-.61l-.28.01h-.25l-.02.15v.2q0 .28.08.45.09.18.21.28.13.1.27.13.16.04.28.04.17 0 .3-.04.14-.03.25-.08l.18-.1.14-.1h.01zm1.75-2.11l.15-.17.22-.15q.13-.07.28-.1.15-.05.31-.05t.3.04q.15.04.26.13.12.09.19.22t.07.3v.1q0 .06-.03.13 0 .08-.04.2l-.07.3-.06.3-.08.4-.08.39-.04.26-.1-.01h-.38q.03-.04.07-.19l.09-.33.1-.4.09-.41.06-.38q.03-.16.03-.26 0-.14-.05-.23-.05-.1-.13-.16-.08-.07-.19-.1-.1-.03-.2-.03l-.2.02q-.1.03-.24.1-.12.06-.23.18-.12.12-.18.32l-.07.27-.1.36-.07.4-.08.38-.05.3-.03.17-.1-.01h-.34l.08-.33.12-.5.12-.55.11-.55.1-.47.05-.34q.09.03.2.03h.12l.11-.03-.11.44zm4.6 2.17q-.4.18-.86.18-.27 0-.5-.06-.24-.06-.42-.21-.17-.15-.28-.38-.1-.22-.1-.53 0-.28.1-.57.1-.3.3-.54.21-.24.54-.4.33-.16.78-.16.32 0 .53.07.23.05.36.1l-.05.12-.04.1q0 .03-.03.08 0 .06-.03.13h-.03q-.11-.2-.32-.3-.2-.11-.42-.11-.27 0-.5.13-.23.12-.39.33-.16.2-.24.48-.1.26-.1.54 0 .31.1.5.1.2.24.32.15.1.3.14.17.04.29.04.15 0 .28-.03l.24-.08.18-.08.12-.07.03.01-.08.25zm2.25-2.49q-.12 0-.27.04-.14.04-.28.16-.13.11-.25.3-.11.2-.18.5.18.02.4.02h.89q.16 0 .28-.02l.02-.12.01-.2q0-.18-.05-.32-.06-.13-.15-.21-.09-.08-.2-.12-.1-.03-.22-.03zm.6 2.43q-.2.13-.45.18-.24.06-.5.06-.18 0-.38-.05t-.38-.18q-.17-.14-.28-.37-.11-.23-.11-.58t.1-.65q.12-.3.31-.52.2-.23.47-.36.28-.13.62-.13.2 0 .4.05.18.05.32.16.15.11.23.3.09.18.09.44 0 .17-.03.28l-.04.2-.22-.02h-.4q-.1-.02-.23-.02h-.61l-.28.01h-.25l-.02.15v.2q0 .28.08.45.09.18.21.28.13.1.27.13.16.04.28.04.17 0 .3-.04.14-.03.24-.08l.2-.1.12-.1h.02zm3.12-1.79l-.11.53-.1.47-.08.46-.1.52-.1-.01h-.41l.23-.93.24-1.08.21-1.06.17-.9.56.02.47.01h.44l.35-.02-.04.16v.16l-.3-.03-.37-.03h-.66l-.2.82-.15.68h.69l.37-.01.3-.02-.04.15-.01.14-.41-.03h-.95zm2.66-1.68q0-.12.08-.2.08-.08.2-.08.11 0 .2.08.07.08.07.2 0 .11-.08.2-.08.07-.2.07-.11 0-.2-.08-.07-.08-.07-.2zm.32.91l-.09.3-.1.44-.13.53-.11.56-.1.51-.06.4h-.5q.07-.18.14-.45l.13-.56.12-.57.1-.53.08-.4.03-.23q.12.03.25.03.14 0 .24-.03zm2.61 2.62q-.4.18-.86.18-.27 0-.5-.06-.24-.06-.42-.21-.17-.15-.28-.38-.1-.22-.1-.53 0-.28.1-.57.1-.3.3-.54.22-.24.54-.4.33-.16.79-.16.31 0 .53.07.22.05.35.1l-.05.12-.04.1-.02.08-.03.13h-.04q-.1-.2-.31-.3-.2-.11-.43-.11-.27 0-.5.13-.23.12-.39.33-.16.2-.24.48-.09.26-.09.54 0 .31.1.5.1.2.23.32.15.1.3.14.17.04.29.04.15 0 .28-.03l.24-.08.18-.08.13-.07.03.01-.09.25zm1.93-3.34l-.1.4-.09.4h.3l.3-.02q-.03.12-.03.24l-.32-.02h-.3L30 16.07l-.04.2-.05.23-.03.21-.02.17q0 .12.04.2l.1.13q.07.05.14.07.07.03.14.03.1 0 .2-.03l.18-.09-.01.15q-.12.1-.29.13-.16.03-.3.03-.11 0-.23-.03-.11-.03-.2-.1-.09-.06-.14-.16-.06-.1-.06-.24 0-.11.03-.24l.05-.27.11-.49.07-.33.06-.3.08-.37h-.19l-.2.01.03-.09.01-.13.2.01.17.01.1-.62.51-.18zm1.32-.19q0-.12.08-.2.08-.08.2-.08.12 0 .2.08.08.08.08.2 0 .11-.08.2-.08.07-.2.07-.12 0-.2-.08-.08-.08-.08-.2zm.32.91l-.08.3-.11.44-.12.53-.12.56-.1.51-.06.4h-.49l.13-.45.14-.56.12-.57.1-.53.07-.4.04-.23q.12.03.24.03.15 0 .24-.03zm.86 1.79q0 .37.17.6.18.25.57.25.33 0 .56-.18.23-.18.37-.44.15-.25.21-.54.07-.28.07-.5 0-.18-.06-.33-.04-.16-.14-.27-.1-.11-.25-.18-.14-.06-.33-.06-.31 0-.54.17-.22.17-.36.42-.14.24-.2.53-.07.29-.07.53zm-.46-.14q0-.31.11-.62.12-.3.33-.54.2-.24.51-.39.3-.15.68-.15.34 0 .58.1.24.1.38.25.15.16.21.36.07.2.07.43 0 .32-.12.63t-.33.55q-.22.25-.52.4-.3.13-.68.13-.36 0-.6-.1-.23-.1-.37-.27-.14-.18-.2-.38-.05-.21-.05-.4zm4.2-1.2l.15-.17.22-.15q.12-.07.28-.1.15-.05.31-.05t.3.04q.15.04.26.13.12.09.19.22t.07.3l-.01.1-.02.13-.04.2-.07.3-.06.3-.08.4-.08.39-.04.26-.1-.01h-.38q.03-.04.07-.19l.08-.33q.06-.18.1-.4l.1-.41.06-.38q.03-.16.03-.26 0-.14-.05-.23-.05-.1-.13-.16-.08-.07-.19-.1-.1-.03-.2-.03l-.2.02q-.11.03-.24.1-.12.06-.24.18-.1.12-.17.32l-.08.27-.08.36-.09.4-.07.38-.05.3-.03.17-.1-.01h-.35l.1-.33.1-.5q.07-.26.12-.55l.12-.55.09-.47.06-.34q.08.03.2.03h.12l.1-.03-.1.44zm5.76-1.03l-1 1.54q.32.02.67.02l.67-.02-.32-1.54zm1.18 3.33l-.12-.01h-.42l-.05-.36-.08-.45-.07-.42-.06-.32-.31-.01h-.85l-.38.01q-.09.12-.21.33l-.26.43-.26.45-.19.35-.08-.01h-.29l.98-1.46.98-1.5.38-.57.32-.5h.1l.1.47.15.73.17.85.18.84.15.7.12.45zm1.14-1.01q0 .42.18.65.18.22.52.22.33 0 .55-.18.21-.2.34-.45.14-.26.19-.54.05-.28.05-.48l-.02-.22q-.02-.13-.1-.26-.07-.13-.21-.21-.14-.1-.38-.1-.34 0-.56.18-.21.18-.34.44-.13.25-.18.52-.04.26-.04.43zm1.62.5q-.07.1-.17.2l-.21.2q-.13.08-.29.13-.16.05-.37.05-.26 0-.46-.08-.2-.09-.33-.24-.13-.16-.2-.37-.06-.2-.06-.43 0-.27.1-.57.09-.31.27-.57.2-.26.48-.43.29-.17.67-.17.23 0 .38.07.16.06.26.16.1.08.16.18l.08.17h.02q.1-.56.22-1.1l.18-1.03q.1.02.24.02.14 0 .22-.02l-.22.92-.17.76-.15.74-.17.83-.1.51-.1.58-.08-.01h-.34zm2.44-.03l.16-.25.12-.2.13-.24.18-.32.26-.5.16-.29.1-.2.11-.2q.07.02.18.02.13 0 .2-.03l-.15.22-.19.3-.22.36-.22.35-.18.3-.12.2-.38.68-.16.34-.07-.01h-.23l-.07-.3-.13-.6-.22-.92-.22-.92q.09.03.21.03.14 0 .23-.03l.23 1.11.26 1.1h.03zm3.26-2.08q-.11 0-.26.04-.13.04-.27.16-.14.11-.25.3-.12.2-.19.5.19.02.4.02h.89q.16 0 .28-.02l.02-.12q.02-.07.02-.2 0-.18-.06-.32-.06-.13-.15-.21-.09-.08-.2-.12-.1-.03-.22-.03zm.62 2.43q-.22.13-.46.18-.24.06-.5.06-.18 0-.38-.05t-.38-.18q-.17-.14-.28-.37-.1-.23-.1-.58t.1-.65q.1-.3.3-.52.2-.23.48-.36.28-.13.6-.13.22 0 .4.05.19.05.33.16.15.11.23.3.09.18.09.44 0 .17-.02.28l-.05.2-.22-.02h-.4q-.1-.02-.23-.02h-.61l-.28.01h-.25l-.02.15v.2q0 .28.08.45.09.18.21.28.13.1.28.13.15.04.27.04.17 0 .3-.04.14-.03.25-.08l.18-.1.14-.1h.01zm1.75-2.11l.15-.17q.1-.08.23-.15.12-.07.27-.1.15-.05.31-.05t.3.04q.15.04.26.13.12.09.19.22t.07.3v.1l-.02.13-.05.2-.07.3-.06.3-.08.4-.08.39-.04.26-.1-.01h-.37l.06-.19.09-.33.1-.4.09-.41.06-.38q.03-.16.03-.26 0-.14-.05-.23-.05-.1-.13-.16-.08-.07-.18-.1-.1-.03-.21-.03l-.2.02q-.1.03-.24.1-.12.06-.23.18-.11.12-.18.32l-.07.27-.1.36-.07.4-.08.38-.05.3-.03.17-.1-.01h-.34l.09-.33.11-.5.12-.55.11-.55.1-.47.05-.34q.09.03.2.03h.12l.11-.03-.11.44zm3.57-1.17l-.1.4-.09.4h.3l.3-.02q-.03.12-.03.24l-.32-.02h-.3l-.22 1.09-.04.2-.05.23-.04.21v.17q0 .12.03.2.04.08.1.13.07.05.14.07.07.03.14.03.1 0 .2-.03l.18-.09-.01.15q-.12.1-.29.13-.16.03-.3.03-.12 0-.23-.03-.11-.03-.2-.1-.09-.06-.15-.16-.05-.1-.05-.24 0-.11.03-.24l.05-.27.1-.49.08-.33.06-.3.08-.37h-.19l-.2.01.03-.09v-.13l.2.01.18.01.1-.62.51-.18zm2.54 3.06q-.07.1-.17.18l-.22.15q-.12.06-.27.1-.15.04-.33.04-.15 0-.3-.04-.14-.03-.26-.11-.11-.09-.19-.21-.07-.13-.07-.3 0-.1.05-.33l.13-.58.05-.22.06-.32.07-.35.05-.35q.1.03.26.03.15 0 .25-.03l-.14.52-.15.58-.12.53q-.05.24-.05.36 0 .28.15.42.15.14.42.14.17 0 .3-.05.14-.06.26-.16.1-.09.18-.21.08-.12.12-.26.04-.1.08-.28l.08-.37.08-.4.07-.38.05-.29.03-.15q.11.03.23.03.15 0 .24-.03l-.08.3-.11.44-.12.53-.12.56-.1.51-.06.4h-.43l.1-.37zm3.04-1.88l-.1-.03-.14-.02q-.2 0-.4.18-.19.17-.29.51l-.04.14-.06.27-.07.33-.07.36-.07.32-.03.23-.1-.01h-.35l.08-.3.11-.46.12-.54.1-.56.1-.5.06-.38.1.02h.13q.12 0 .21-.02l-.03.1-.04.16-.05.19-.03.18h.03q.1-.11.19-.24.1-.12.2-.21.11-.1.24-.16.14-.06.3-.06l-.04.26-.01.22-.05.02zm1.8-.33q-.12 0-.26.04t-.28.16q-.14.11-.25.3-.12.2-.18.5.18.02.4.02h.87q.17 0 .28-.02l.02-.12q.02-.07.02-.2 0-.18-.06-.32-.05-.13-.15-.21-.08-.08-.2-.12-.1-.03-.22-.03zm.6 2.43q-.2.13-.45.18-.24.06-.49.06-.19 0-.39-.05t-.38-.18q-.17-.14-.28-.37-.1-.23-.1-.58t.1-.65q.1-.3.3-.52.2-.23.48-.36.28-.13.6-.13.22 0 .4.05.19.05.34.16.14.11.22.3.09.18.09.44 0 .17-.02.28l-.04.2-.23-.02h-.4q-.1-.02-.23-.02h-.61l-.28.01h-.24l-.03.15v.2q0 .28.08.45.1.18.21.28.13.1.28.13.15.04.27.04.17 0 .3-.04.14-.03.25-.08l.18-.1.14-.1h.01zm2.82-3.47q0-.12.08-.2.08-.08.2-.08.11 0 .2.08.08.08.08.2 0 .11-.08.2-.09.07-.2.07-.12 0-.2-.08-.08-.08-.08-.2zm.32.91l-.08.3-.11.44-.13.53-.11.56-.1.51-.06.4h-.5q.07-.18.14-.45l.13-.56.13-.57.1-.53.07-.4.03-.23q.12.03.25.03.14 0 .24-.03zm1.31.45q.05-.08.15-.17l.22-.15q.12-.07.27-.1.15-.05.32-.05.15 0 .3.04.14.04.26.13.11.09.18.22.07.13.07.3v.1l-.02.13-.04.2-.07.3-.07.3-.08.4-.07.39q-.04.18-.04.26l-.1-.01h-.38l.06-.19.09-.33.1-.4.1-.41.06-.38q.03-.16.03-.26 0-.14-.06-.23-.04-.1-.13-.16-.08-.07-.18-.1-.1-.03-.21-.03l-.19.02q-.11.03-.24.1-.12.06-.24.18-.11.12-.18.32l-.07.27-.09.36-.08.4-.08.38-.05.3-.03.17-.1-.01h-.34l.09-.33.11-.5.12-.55.12-.55.08-.47q.05-.22.06-.34.09.03.21.03h.11l.11-.03-.1.44zm4.8-1.17l-.1.4-.1.4h.3l.31-.02q-.03.12-.03.24l-.32-.02h-.3l-.23 1.09-.04.2-.04.23-.04.21-.01.17q0 .12.04.2.04.08.1.13.06.05.13.07.08.03.14.03.1 0 .2-.03l.19-.09-.01.15q-.12.1-.29.13-.16.03-.3.03-.12 0-.23-.03-.12-.03-.2-.1-.09-.06-.15-.16-.05-.1-.05-.24l.02-.24.06-.27.1-.49.08-.33.06-.3.08-.37h-.2l-.19.01q.02-.04.02-.09.02-.05.02-.13l.19.01.18.01.1-.62.51-.18zm1.49 1.17q.12-.16.26-.25.14-.1.27-.15.13-.05.25-.07l.2-.02q.23 0 .38.07.16.07.25.18.1.1.14.22.04.12.04.21v.1l-.03.14-.05.26-.1.44-.1.48-.08.46-.02.14-.01.09-.11-.01h-.37l.04-.17.09-.33.1-.41.1-.43.07-.38q.03-.17.03-.26 0-.1-.04-.2-.03-.09-.1-.17-.07-.07-.18-.11-.1-.05-.25-.05l-.19.02q-.12.02-.26.1t-.26.24q-.13.15-.2.43l-.07.33-.1.46-.1.5-.06.44-.1-.01h-.37l.08-.32.15-.63.18-.83.19-.9q.1-.47.17-.9l.13-.75q.09.02.23.02h.12q.07 0 .12-.02l-.12.5-.12.5-.06.27-.06.25-.05.24-.06.27h.03zm3.89-.32q-.12 0-.26.04t-.28.16q-.13.11-.25.3-.12.2-.18.5.18.02.4.02h.88q.17 0 .28-.02l.03-.12.01-.2q0-.18-.06-.32-.05-.13-.14-.21-.1-.08-.2-.12-.11-.03-.23-.03zm.61 2.43q-.21.13-.46.18-.24.06-.49.06-.18 0-.39-.05-.2-.05-.37-.18-.17-.14-.28-.37-.11-.23-.11-.58t.1-.65q.11-.3.3-.52.2-.23.48-.36.28-.13.61-.13.21 0 .4.05.18.05.33.16.14.11.23.3.08.18.08.44 0 .17-.02.28l-.04.2-.22-.02H81q-.1-.02-.24-.02h-.61l-.28.01h-.24l-.02.15-.01.2q0 .28.09.45.08.18.2.28.13.1.28.13.15.04.27.04.17 0 .3-.04.15-.03.25-.08l.19-.1.13-.1h.02zm3.12-1.79l-.12.53-.09.47-.09.46-.09.52-.11-.01h-.41q.11-.4.23-.93.13-.53.24-1.08l.22-1.06q.1-.5.16-.9l.57.02.47.01h.44l.35-.02-.05.16v.16l-.3-.03-.36-.03h-.66l-.2.82-.15.68h.68l.38-.01.3-.02-.04.15-.01.14-.42-.03h-.94zm2.3 1.35q0 .22.14.33.14.12.32.12.24 0 .43-.14.2-.13.33-.32l.07-.4q.04-.21.1-.41l-.26.05-.26.05-.3.09q-.15.05-.28.13-.12.08-.2.2-.09.13-.09.3zm.18-1.86q.22-.15.44-.23.24-.08.5-.08.37 0 .58.18.22.18.22.47 0 .12-.03.25l-.04.2-.17.71-.06.31-.02.21q0 .1.06.19.05.07.17.07l.09-.01.07-.04.03.12q-.1.07-.2.1-.11.04-.23.04-.19 0-.28-.1-.1-.1-.1-.28-.18.19-.41.32-.22.12-.5.12-.13 0-.26-.04-.13-.03-.24-.1-.1-.09-.16-.2-.06-.13-.06-.28 0-.28.14-.45.15-.18.35-.27.2-.1.42-.16l.35-.08.25-.04q.13-.02.22-.06.12-.05.15-.18.03-.12.03-.25 0-.26-.17-.38-.17-.13-.41-.13-.24 0-.42.11-.17.1-.32.27h-.07zm4.1.2l-.1-.03-.14-.02q-.2 0-.4.18-.19.17-.29.51l-.04.14-.06.27-.07.33-.07.36-.07.32-.03.23-.1-.01h-.36l.1-.3.1-.46.12-.54.11-.56.1-.5.05-.38.1.02h.13q.13 0 .21-.02 0 .04-.03.1l-.04.16-.05.19-.03.18h.03q.1-.11.19-.24.1-.12.2-.21.11-.1.25-.16.13-.06.3-.06l-.05.26-.01.22-.05.02zm2.57.31l-.12.53-.1.47-.08.46-.1.52-.1-.01h-.41q.11-.4.23-.93l.24-1.08.22-1.06q.1-.5.16-.9l.56.02.48.01h.44l.35-.02-.05.16v.16l-.3-.03-.36-.03h-.66l-.21.82-.15.68h.7l.36-.01.3-.02-.03.15q-.02.05-.02.14l-.4-.03h-.95zm3.87 1.57q-.07.1-.17.18l-.22.15q-.12.06-.27.1-.15.04-.33.04-.15 0-.3-.04-.14-.03-.26-.11-.11-.09-.19-.21-.07-.13-.07-.3 0-.1.05-.33l.13-.58.05-.22.06-.32.07-.35.05-.35q.1.03.26.03.15 0 .25-.03l-.14.52-.15.58-.12.53q-.05.24-.05.36 0 .28.15.42.15.14.42.14.16 0 .3-.05.14-.06.25-.16.12-.09.2-.21.07-.12.11-.26.04-.1.08-.28l.08-.37.08-.4.07-.38.05-.29.03-.15q.11.03.23.03.15 0 .24-.03l-.08.3-.11.44-.13.53-.11.56-.1.51-.06.4h-.43l.1-.37zm2.53-3.06l-.1.4-.1.4h.3l.31-.02q-.03.12-.03.24l-.32-.02h-.3l-.23 1.09-.04.2-.04.23-.04.21-.01.17q0 .12.04.2.04.08.1.13.06.05.13.07.08.03.14.03.1 0 .2-.03l.19-.09-.01.15q-.12.1-.29.13-.16.03-.3.03-.12 0-.24-.03-.1-.03-.2-.1-.08-.06-.14-.16-.05-.1-.05-.24l.02-.24.06-.27.1-.49q.05-.18.07-.33l.07-.3.07-.37h-.18l-.2.01q.02-.04.02-.09.02-.05.02-.13l.19.01.18.01.1-.62.5-.18zm2.53 3.06q-.07.1-.17.18-.09.08-.21.15-.12.06-.27.1-.15.04-.34.04-.14 0-.29-.04-.14-.03-.26-.11-.12-.09-.2-.21-.06-.13-.06-.3 0-.1.05-.33l.13-.58.05-.22.06-.32.06-.35.06-.35q.09.03.25.03.15 0 .25-.03l-.14.52-.14.58-.12.53q-.05.24-.05.36 0 .28.14.42.16.14.42.14.17 0 .31-.05.14-.06.25-.16.11-.09.19-.21.07-.12.12-.26.04-.1.08-.28l.08-.37.07-.4.07-.38.06-.29.02-.15q.12.03.24.03.14 0 .24-.03l-.09.3-.1.44-.13.53-.11.56-.1.51-.06.4h-.43l.1-.37zm3.04-1.88l-.1-.03q-.06-.02-.13-.02-.2 0-.4.18-.2.17-.3.51l-.03.14-.06.27-.08.33-.07.36-.06.32-.04.23-.1-.01h-.35l.09-.3.1-.46q.07-.26.12-.54.07-.29.11-.56l.1-.5.06-.38q.04.02.1.02h.12q.13 0 .22-.02l-.04.1-.04.16-.04.19-.03.18h.03l.18-.24q.1-.12.2-.21.12-.1.25-.16t.3-.06l-.04.26-.01.22-.06.02zm1.8-.33q-.11 0-.26.04-.14.04-.28.16-.13.11-.25.3-.11.2-.18.5.18.02.4.02h.87q.17 0 .29-.02l.02-.12.01-.2q0-.18-.06-.32-.05-.13-.14-.21-.09-.08-.2-.12-.1-.03-.23-.03zm.62 2.43q-.22.13-.46.18-.24.06-.5.06-.18 0-.38-.05t-.38-.18q-.17-.14-.28-.37-.11-.23-.11-.58t.1-.65q.11-.3.31-.52.2-.23.47-.36.28-.13.61-.13.21 0 .4.05.19.05.33.16.15.11.23.3.09.18.09.44 0 .17-.03.28l-.04.2-.22-.02h-.4q-.1-.02-.23-.02h-.61l-.28.01h-.25l-.02.15v.2q0 .28.08.45.09.18.2.28.14.1.28.13.15.04.28.04.17 0 .3-.04.14-.03.24-.08l.19-.1.13-.1h.02z"/><path fill="#e32736" d="M74.3 7.3q-.76 0-1.3.55-.54.54-.54 1.31t.54 1.32q.54.54 1.3.54.78 0 1.32-.54.53-.55.53-1.32t-.53-1.3q-.55-.55-1.31-.55zm2.16 1.86q0 .9-.63 1.53t-1.52.63q-.9 0-1.52-.63-.63-.63-.63-1.53 0-.89.63-1.52.63-.62 1.52-.62t1.52.62q.63.63.63 1.52zm-1.6-.47q0-.26-.15-.34-.15-.1-.5-.1h-.36v.86h.38q.26 0 .4-.05.24-.1.24-.37zm-.6-.72q.44 0 .65.09.37.15.37.6 0 .31-.24.46-.12.08-.34.12.28.04.4.23.14.19.14.36v.35q0 .1.02.13l.02.03h-.4v-.05l-.01-.08v-.19q0-.4-.22-.54-.14-.08-.47-.08h-.33v.94h-.41V7.97z"/></svg>