<svg xmlns="http://www.w3.org/2000/svg" width="200" height="45" viewBox="0 0 52.92 11.91"><path fill="#fff" d="M4.24 3.49h47.41v6.48H7.98z"/><path fill="none" stroke="#fff" stroke-linejoin="round" stroke-width="1.98" d="M1.4 1.32l1.7 5.24.47-2.1 4.75 5.8 2-1.9-5.68-4.74 2.08-.23z"/><path fill-rule="evenodd" d="M1.4 1.32l1.7 5.24.47-2.1 4.75 5.8 2-1.9-5.68-4.74 2.08-.23z"/><g stroke-width=".26" aria-label="YOU ARE HERE" font-family="Optima" font-size="5.64" font-style="italic" font-weight="700" letter-spacing="0" style="line-height:125%;-inkscape-font-specification:'Helvetica, Normal';text-align:start" word-spacing="0"><path d="M12.65 6.69l.4-.57.38-.55.3-.45.16-.26.13.02h.33l.15-.02-.48.59-.48.62-.4.57q-.2.26-.3.42l-.18.83q-.08.4-.14.82l-.2-.01h-.49l-.2.01.1-.36.1-.43.09-.43.07-.38-.17-.52-.22-.65-.22-.63-.16-.45.2.02h.52l.21-.02.08.35.1.37.13.48.2.63zM15.21 7.34q0 .25.06.46.07.21.2.36t.32.23q.2.08.45.08.26 0 .48-.1.22-.11.4-.29.18-.18.31-.4.14-.24.23-.49t.13-.5q.05-.25.05-.47 0-.25-.07-.46-.07-.2-.2-.35-.14-.15-.34-.23-.2-.08-.44-.08-.28 0-.5.1-.23.1-.4.28-.18.17-.3.4-.13.22-.22.48-.08.24-.12.5-.04.25-.04.48zm-.84-.27q0-.47.17-.89.17-.42.48-.73.32-.3.75-.49.44-.18.96-.18.4 0 .75.1.35.12.62.33.27.22.42.54.16.32.16.75 0 .44-.17.86-.16.4-.47.72-.31.32-.76.5-.44.2-1 .2-.4 0-.75-.1-.34-.12-.6-.33-.26-.22-.41-.54-.15-.32-.15-.74zM19.78 4.86l.22.02h.49l.22-.02-.11.4-.12.42-.1.37-.1.45-.1.44-.07.32-.05.3v.22q0 .19.05.3.07.13.19.21.1.08.25.11.16.03.33.03.37 0 .6-.11.24-.12.38-.31.15-.19.22-.41l.15-.45.11-.47.15-.64.13-.66.1-.52.13.02h.13l.25-.02-.11.39-.12.46-.11.5-.1.46q-.1.46-.23.85-.13.39-.35.67-.21.28-.56.43-.35.15-.9.15-.26 0-.53-.04-.26-.04-.48-.17-.22-.12-.36-.32-.14-.21-.14-.52 0-.22.05-.47l.14-.6.2-.9q.09-.44.15-.9zM25.92 7.2l.28.02h.56l.24-.01-.06-.35-.07-.31-.06-.32-.1-.34-.4.65-.39.67zm2.26 1.51l-.22-.01h-.52l-.2.01-.03-.29-.05-.4-.03-.1-.02-.14-.02-.14-.02-.1h-1.34l-.26.48-.36.69-.24-.01h-.15l-.12.01.56-.92.56-.95.35-.6.25-.44.18-.32.13-.24.11-.2.12-.23q.1.03.21.03.13 0 .22-.03l.04.25q.05.21.1.54l.16.72.19.83.2.83.2.73zM29.95 6.67l.11.01h.12q.2 0 .35-.07.15-.07.25-.2t.15-.3q.05-.17.05-.36 0-.18-.06-.3-.05-.1-.13-.17-.09-.07-.19-.1l-.2-.01h-.14l-.07.27-.08.36-.08.42-.08.45zm-.06.26l-.11.53-.1.5-.09.43-.06.32-.21-.01h-.48l-.18.01.14-.5.16-.7.17-.78q.1-.4.17-.77l.12-.66.08-.44.21.02h.61q.19-.02.43-.02.23 0 .43.05.2.05.33.17.15.1.23.28.08.18.08.43 0 .23-.09.42-.08.19-.22.32t-.33.22q-.2.08-.4.1l.1.25.13.33.15.38.16.38.14.31.1.21-.24-.01h-.48l-.2.01-.3-.9-.34-.88zM32.93 4.86q.26.02.58.02H34.69l.45-.02q-.07.14-.09.23-.02.08 0 .2l-.22-.02-.24-.01q-.14-.02-.34-.02h-.5l-.17.68-.12.56H34.4l.2-.02h.17q-.08.16-.09.25v.18q-.3-.03-.64-.04h-.65l-.15.74q-.07.38-.11.75H34.02l.2-.01.2-.03-.08.26v.15l-.63-.01H32.6l-.48.01q.06-.16.13-.46l.16-.67.17-.78.15-.77.12-.68q.06-.31.08-.5zM37.44 4.86l.22.02h.5l.2-.02q-.08.22-.14.46l-.12.47-.1.4-.05.26.46.01h1.26l.06-.3.1-.43.08-.46.08-.41.22.02h.49l.2-.02q-.1.28-.2.69l-.22.9-.22 1.08-.21 1.18-.24-.01h-.47l-.21.01.11-.4.11-.42q.06-.22.1-.47l.13-.55h-.31l-.52-.01h-.61l-.27.01-.13.55-.08.42-.07.4-.07.47-.24-.01h-.49l-.2.01q.09-.26.18-.6.1-.33.18-.69l.15-.74.14-.7.12-.64.08-.48zM41.82 4.86q.25.02.57.02H43.57l.46-.02q-.08.14-.1.23v.2l-.21-.02-.25-.01q-.14-.02-.34-.02h-.49q-.1.34-.17.68l-.12.56H43.28l.19-.02h.18q-.08.16-.1.25v.18q-.29-.03-.63-.04h-.65l-.15.74-.12.75H42.9l.2-.01.21-.03q-.07.17-.09.26v.15l-.63-.01h-1.1L41 8.7l.13-.46.16-.67.16-.78.16-.77.12-.68q.06-.31.08-.5zM45.21 6.67l.12.01h.12q.2 0 .35-.07.15-.07.25-.2t.15-.3q.05-.17.05-.36 0-.18-.06-.3-.05-.1-.14-.17-.08-.07-.18-.1l-.2-.01h-.14l-.07.27-.08.36-.08.42-.09.45zm-.05.26l-.12.53-.1.5-.08.43-.06.32-.21-.01h-.48l-.18.01.14-.5.16-.7.17-.78q.1-.4.16-.77l.13-.66.08-.44.21.02h.61q.19-.02.43-.02.23 0 .42.05.2.05.34.17.15.1.23.28.08.18.08.43 0 .23-.09.42-.08.19-.22.32t-.34.22q-.18.08-.4.1l.1.25.13.33.16.38.16.38.14.31.1.21-.24-.01h-.48l-.2.01-.3-.9-.34-.88zM48.2 4.86q.26.02.58.02H49.96l.45-.02-.1.23v.2l-.21-.02-.24-.01q-.15-.02-.34-.02h-.5l-.17.68-.12.56H49.66l.19-.02h.18q-.08.16-.09.25v.18q-.3-.03-.64-.04h-.65l-.15.74q-.07.38-.11.75H49.29l.2-.01.2-.03q-.07.17-.08.26v.15l-.64-.01h-1.1l-.48.01q.06-.16.13-.46l.16-.67.17-.78.15-.77.12-.68q.06-.31.08-.5z" style="-inkscape-font-specification:'Optima, Bold Italic';font-variant-ligatures:normal;font-variant-caps:normal;font-variant-numeric:normal;font-feature-settings:normal;text-align:start"/></g></svg>