<?xml version="1.0" encoding="UTF-8" standalone="no"?>
<!-- Created with Inkscape (http://www.inkscape.org/) -->

<svg
   xmlns:dc="http://purl.org/dc/elements/1.1/"
   xmlns:cc="http://creativecommons.org/ns#"
   xmlns:rdf="http://www.w3.org/1999/02/22-rdf-syntax-ns#"
   xmlns:svg="http://www.w3.org/2000/svg"
   xmlns="http://www.w3.org/2000/svg"
   xmlns:sodipodi="http://sodipodi.sourceforge.net/DTD/sodipodi-0.dtd"
   xmlns:inkscape="http://www.inkscape.org/namespaces/inkscape"
   width="104.19948mm"
   height="81.249931mm"
   viewBox="0 0 369.21075 287.89346"
   id="svg2"
   version="1.1"
   inkscape:version="0.91 r13725"
   sodipodi:docname="ffe.svg">
  <defs
     id="defs4" />
  <sodipodi:namedview
     id="base"
     pagecolor="#ffffff"
     bordercolor="#666666"
     borderopacity="1.0"
     inkscape:pageopacity="0.0"
     inkscape:pageshadow="2"
     inkscape:zoom="0.7"
     inkscape:cx="-91.485787"
     inkscape:cy="217.24429"
     inkscape:document-units="px"
     inkscape:current-layer="layer1"
     showgrid="false"
     inkscape:window-width="1440"
     inkscape:window-height="852"
     inkscape:window-x="0"
     inkscape:window-y="1"
     inkscape:window-maximized="0"
     fit-margin-top="0"
     fit-margin-left="0"
     fit-margin-right="0"
     fit-margin-bottom="0" />
  <metadata
     id="metadata7">
    <rdf:RDF>
      <cc:Work
         rdf:about="">
        <dc:format>image/svg+xml</dc:format>
        <dc:type
           rdf:resource="http://purl.org/dc/dcmitype/StillImage" />
        <dc:title></dc:title>
      </cc:Work>
    </rdf:RDF>
  </metadata>
  <g
     inkscape:label="Layer 1"
     inkscape:groupmode="layer"
     id="layer1"
     transform="translate(-267.18533,-80.090378)">
    <path
       inkscape:connector-curvature="0"
       id="rect3504"
       d="m 267.18533,80.090378 369.21076,0 0,287.893462 -369.21076,0 z"
       style="fill:#000000;fill-opacity:1;stroke:none" />
    <path
       inkscape:connector-curvature="0"
       id="rect4306"
       d="m 278.04449,92.212212 347.49247,0 0,47.477168 -347.49247,0 z"
       style="fill:#ffffff;fill-opacity:1;stroke:none" />
    <path
       inkscape:connector-curvature="0"
       id="rect4306-5"
       d="m 278.04449,149.79089 347.49247,0 0,154.55335 -347.49247,0 z"
       style="fill:#ffffff;fill-opacity:1;stroke:none" />
    <g
       id="g4339"
       transform="translate(-0.14353455,0)">
      <path
         sodipodi:nodetypes="ccccccccccc"
         inkscape:connector-curvature="0"
         id="path3466-7"
         d="m 406.46013,286.52189 0,-128.79445 95.83822,0 0,26.01144 -51.13897,0 0,24.24365 51.13897,0 -11.99556,24.4962 -39.14341,0 0,54.04316 z"
         style="fill:#000000;fill-opacity:1;fill-rule:evenodd;stroke:none;stroke-width:1px;stroke-linecap:butt;stroke-linejoin:miter;stroke-opacity:1" />
      <path
         sodipodi:nodetypes="ccccccccccccc"
         inkscape:connector-curvature="0"
         id="path3466-2"
         d="m 522.62767,286.26937 0,-128.54193 82.6431,0 0,26.51652 -40.72177,0 0,24.74873 40.72177,0 -12.4375,23.73858 -28.28427,0 0,28.59995 40.72177,0 0,24.93815 z"
         style="fill:#000000;fill-opacity:1;fill-rule:evenodd;stroke:none;stroke-width:1px;stroke-linecap:butt;stroke-linejoin:miter;stroke-opacity:1" />
      <path
         sodipodi:nodetypes="ccccccccccc"
         inkscape:connector-curvature="0"
         id="path3466-7-1"
         d="m 298.59772,286.26935 1.01015,-128.54191 89.27223,0 0,25.7589 -51.13897,0 0,24.24365 51.13897,0 -11.99556,24.4962 -39.14341,0 0,54.04316 z"
         style="fill:#000000;fill-opacity:1;fill-rule:evenodd;stroke:none;stroke-width:1px;stroke-linecap:butt;stroke-linejoin:miter;stroke-opacity:1" />
    </g>
    <g
       id="text4331"
       style="font-style:normal;font-variant:normal;font-weight:bold;font-stretch:normal;font-size:64.31749725px;line-height:125%;font-family:Arial;-inkscape-font-specification:'Arial, Bold';text-align:start;letter-spacing:25.28999901px;word-spacing:0px;writing-mode:lr-tb;text-anchor:start;fill:#ffffff;fill-opacity:1;stroke:none;stroke-width:1px;stroke-linecap:butt;stroke-linejoin:miter;stroke-opacity:1">
      <path
         inkscape:connector-curvature="0"
         id="path4400"
         style="font-style:normal;font-variant:normal;font-weight:bold;font-stretch:normal;font-size:64.31749725px;line-height:125%;font-family:Arial;-inkscape-font-specification:'Arial, Bold';text-align:start;letter-spacing:25.28999901px;writing-mode:lr-tb;text-anchor:start"
         d="m 309.4138,342.90243 0,-7.75704 20.03641,0 0,18.34054 q -2.92067,2.82645 -8.47936,4.9934 -5.52728,2.13554 -11.21159,2.13554 -7.22316,0 -12.59342,-3.01488 -5.37026,-3.04629 -8.07109,-8.66779 -2.70083,-5.65291 -2.70083,-12.27937 0,-7.19175 3.01488,-12.78184 3.01488,-5.5901 8.82481,-8.57358 4.42811,-2.29256 11.02317,-2.29256 8.57357,0 13.37854,3.61157 4.83637,3.58018 6.21819,9.92399 l -9.23307,1.72728 q -0.97356,-3.39174 -3.67439,-5.33886 -2.66943,-1.97851 -6.68927,-1.97851 -6.09258,0 -9.70416,3.86282 -3.58017,3.86281 -3.58017,11.46283 0,8.19671 3.64298,12.31077 3.64299,4.08266 9.54713,4.08266 2.92067,0 5.84134,-1.13058 2.95207,-1.16199 5.05621,-2.79505 l 0,-5.84134 -10.64631,0 z" />
      <path
         inkscape:connector-curvature="0"
         id="path4402"
         style="font-style:normal;font-variant:normal;font-weight:bold;font-stretch:normal;font-size:64.31749725px;line-height:125%;font-family:Arial;-inkscape-font-specification:'Arial, Bold';text-align:start;letter-spacing:25.28999901px;writing-mode:lr-tb;text-anchor:start"
         d="m 404.79982,359.82974 -10.11242,0 -4.01984,-10.45787 -18.40335,0 -3.8,10.45787 -9.86118,0 17.93227,-46.03977 9.82977,0 18.43475,46.03977 z m -17.11574,-18.21491 -6.34381,-17.08434 -6.2182,17.08434 12.56201,0 z" />
      <path
         inkscape:connector-curvature="0"
         id="path4404"
         style="font-style:normal;font-variant:normal;font-weight:bold;font-stretch:normal;font-size:64.31749725px;line-height:125%;font-family:Arial;-inkscape-font-specification:'Arial, Bold';text-align:start;letter-spacing:25.28999901px;writing-mode:lr-tb;text-anchor:start"
         d="m 434.9262,359.82974 0,-46.03977 13.91242,0 8.35374,31.40503 8.25952,-31.40503 13.94384,0 0,46.03977 -8.63639,0 0,-36.2414 -9.13886,36.2414 -8.95043,0 -9.10746,-36.2414 0,36.2414 -8.63638,0 z" />
      <path
         inkscape:connector-curvature="0"
         id="path4406"
         style="font-style:normal;font-variant:normal;font-weight:bold;font-stretch:normal;font-size:64.31749725px;line-height:125%;font-family:Arial;-inkscape-font-specification:'Arial, Bold';text-align:start;letter-spacing:25.28999901px;writing-mode:lr-tb;text-anchor:start"
         d="m 513.85598,359.82974 0,-46.03977 34.13727,0 0,7.78845 -24.84138,0 0,10.20663 23.1141,0 0,7.75704 -23.1141,0 0,12.53061 25.72072,0 0,7.75704 -35.01661,0 z" />
      <path
         inkscape:connector-curvature="0"
         id="path4408"
         style="font-style:normal;font-variant:normal;font-weight:bold;font-stretch:normal;font-size:64.31749725px;line-height:125%;font-family:Arial;-inkscape-font-specification:'Arial, Bold';text-align:start;letter-spacing:25.28999901px;writing-mode:lr-tb;text-anchor:start"
         d="m 579.75268,344.84954 9.04465,-0.87934 q 0.81653,4.55373 3.29753,6.68927 2.5124,2.13555 6.75208,2.13555 4.49092,0 6.75208,-1.88431 2.29257,-1.9157 2.29257,-4.45951 0,-1.63306 -0.97356,-2.76364 -0.94215,-1.16199 -3.32893,-2.00992 -1.63306,-0.56529 -7.44299,-2.00993 -7.4744,-1.85289 -10.48928,-4.55372 -4.23968,-3.80001 -4.23968,-9.26449 0,-3.51736 1.97852,-6.56365 2.00992,-3.07769 5.74712,-4.67935 3.7686,-1.60165 9.07605,-1.60165 8.66779,0 13.03309,3.8 4.3967,3.80001 4.61654,10.14383 l -9.29589,0.40826 q -0.5967,-3.54876 -2.57522,-5.08761 -1.94711,-1.57025 -5.87274,-1.57025 -4.05124,0 -6.34381,1.66446 -1.47604,1.06778 -1.47604,2.85786 0,1.63306 1.38182,2.79505 1.75869,1.47604 8.54217,3.07769 6.78349,1.60166 10.01821,3.32893 3.26612,1.69588 5.08761,4.67935 1.8529,2.95208 1.8529,7.31738 0,3.95703 -2.19836,7.41158 -2.19835,3.45456 -6.21819,5.15043 -4.01984,1.66446 -10.01821,1.66446 -8.73059,0 -13.40994,-4.01984 -4.67935,-4.05125 -5.5901,-11.77689 z" />
    </g>
    <g
       id="text4335"
       style="font-style:normal;font-variant:normal;font-weight:bold;font-stretch:normal;font-size:40px;line-height:125%;font-family:Arial;-inkscape-font-specification:'Arial, Bold';text-align:start;letter-spacing:0.89999998px;word-spacing:0px;writing-mode:lr-tb;text-anchor:start;fill:#000000;fill-opacity:1;stroke:none;stroke-width:1px;stroke-linecap:butt;stroke-linejoin:miter;stroke-opacity:1">
      <path
         inkscape:connector-curvature="0"
         id="path4411"
         style="font-style:normal;font-variant:normal;font-weight:bold;font-stretch:normal;font-size:40px;line-height:125%;font-family:Arial;-inkscape-font-specification:'Arial, Bold';text-align:start;letter-spacing:0.89999998px;writing-mode:lr-tb;text-anchor:start"
         d="m 300.13171,129.12338 0,-28.63281 12.16797,0 q 4.58985,0 6.66016,0.78125 2.08984,0.76172 3.33984,2.73438 1.25,1.97265 1.25,4.51171 0,3.22266 -1.89453,5.33204 -1.89453,2.08984 -5.66406,2.63671 1.875,1.09375 3.08594,2.40235 1.23047,1.30859 3.30078,4.64844 l 3.49609,5.58593 -6.91406,0 -4.17969,-6.23047 q -2.22656,-3.33984 -3.04687,-4.19921 -0.82032,-0.87891 -1.73828,-1.19141 -0.91797,-0.33203 -2.91016,-0.33203 l -1.17188,0 0,11.95312 -5.78125,0 z m 5.78125,-16.52343 4.27735,0 q 4.16015,0 5.19531,-0.35157 1.03516,-0.35156 1.62109,-1.21093 0.58594,-0.85938 0.58594,-2.14844 0,-1.44531 -0.78125,-2.32422 -0.76172,-0.89844 -2.16797,-1.13281 -0.70312,-0.0977 -4.21875,-0.0977 l -4.51172,0 0,7.26563 z" />
      <path
         inkscape:connector-curvature="0"
         id="path4413"
         style="font-style:normal;font-variant:normal;font-weight:bold;font-stretch:normal;font-size:40px;line-height:125%;font-family:Arial;-inkscape-font-specification:'Arial, Bold';text-align:start;letter-spacing:0.89999998px;writing-mode:lr-tb;text-anchor:start"
         d="m 328.74656,114.98276 q 0,-4.375 1.30859,-7.34375 0.97656,-2.1875 2.65625,-3.92578 1.69922,-1.73828 3.71094,-2.57813 2.67578,-1.13281 6.17187,-1.13281 6.32813,0 10.11719,3.92578 3.80859,3.92578 3.80859,10.91797 0,6.93359 -3.76953,10.85937 -3.76953,3.90625 -10.07812,3.90625 -6.38672,0 -10.15625,-3.88671 -3.76953,-3.90625 -3.76953,-10.74219 z m 5.95703,-0.19531 q 0,4.86328 2.24609,7.38281 2.2461,2.5 5.70313,2.5 3.45703,0 5.66406,-2.48047 2.22656,-2.5 2.22656,-7.48047 0,-4.92187 -2.16797,-7.34375 -2.14843,-2.42187 -5.72265,-2.42187 -3.57422,0 -5.76172,2.46093 -2.1875,2.44141 -2.1875,7.38282 z" />
      <path
         inkscape:connector-curvature="0"
         id="path4415"
         style="font-style:normal;font-variant:normal;font-weight:bold;font-stretch:normal;font-size:40px;line-height:125%;font-family:Arial;-inkscape-font-specification:'Arial, Bold';text-align:start;letter-spacing:0.89999998px;writing-mode:lr-tb;text-anchor:start"
         d="m 362.14656,129.12338 0,-28.39843 5.78125,0 0,23.57421 14.375,0 0,4.82422 -20.15625,0 z" />
      <path
         inkscape:connector-curvature="0"
         id="path4417"
         style="font-style:normal;font-variant:normal;font-weight:bold;font-stretch:normal;font-size:40px;line-height:125%;font-family:Arial;-inkscape-font-specification:'Arial, Bold';text-align:start;letter-spacing:0.89999998px;writing-mode:lr-tb;text-anchor:start"
         d="m 387.34343,129.12338 0,-28.63281 21.23047,0 0,4.84375 -15.44922,0 0,6.34766 14.375,0 0,4.82422 -14.375,0 0,7.79296 15.99609,0 0,4.82422 -21.77734,0 z" />
      <path
         inkscape:connector-curvature="0"
         id="path4419"
         style="font-style:normal;font-variant:normal;font-weight:bold;font-stretch:normal;font-size:40px;line-height:125%;font-family:Arial;-inkscape-font-specification:'Arial, Bold';text-align:start;letter-spacing:0.89999998px;writing-mode:lr-tb;text-anchor:start"
         d="m 414.29812,121.48666 0,-5.48828 10.78125,0 0,5.48828 -10.78125,0 z" />
      <path
         inkscape:connector-curvature="0"
         id="path4421"
         style="font-style:normal;font-variant:normal;font-weight:bold;font-stretch:normal;font-size:40px;line-height:125%;font-family:Arial;-inkscape-font-specification:'Arial, Bold';text-align:start;letter-spacing:0.89999998px;writing-mode:lr-tb;text-anchor:start"
         d="m 429.22156,129.12338 0,-28.63281 9.27734,0 q 5.27344,0 6.875,0.42969 2.46094,0.64453 4.1211,2.8125 1.66015,2.14844 1.66015,5.5664 0,2.63672 -0.95703,4.4336 -0.95703,1.79687 -2.44141,2.83203 -1.46484,1.01562 -2.98828,1.34766 -2.07031,0.41015 -5.99609,0.41015 l -3.76953,0 0,10.80078 -5.78125,0 z m 5.78125,-23.78906 0,8.125 3.16406,0 q 3.41797,0 4.57031,-0.44922 1.15235,-0.44922 1.79688,-1.40625 0.66406,-0.95703 0.66406,-2.22656 0,-1.5625 -0.91797,-2.57813 -0.91797,-1.01562 -2.32422,-1.26953 -1.03515,-0.19531 -4.16015,-0.19531 l -2.79297,0 z" />
      <path
         inkscape:connector-curvature="0"
         id="path4423"
         style="font-style:normal;font-variant:normal;font-weight:bold;font-stretch:normal;font-size:40px;line-height:125%;font-family:Arial;-inkscape-font-specification:'Arial, Bold';text-align:start;letter-spacing:0.89999998px;writing-mode:lr-tb;text-anchor:start"
         d="m 456.99655,129.12338 0,-28.39843 5.78125,0 0,23.57421 14.375,0 0,4.82422 -20.15625,0 z" />
      <path
         inkscape:connector-curvature="0"
         id="path4425"
         style="font-style:normal;font-variant:normal;font-weight:bold;font-stretch:normal;font-size:40px;line-height:125%;font-family:Arial;-inkscape-font-specification:'Arial, Bold';text-align:start;letter-spacing:0.89999998px;writing-mode:lr-tb;text-anchor:start"
         d="m 508.01375,129.12338 -6.28906,0 -2.5,-6.5039 -11.44532,0 -2.36328,6.5039 -6.13281,0 11.15234,-28.63281 6.11328,0 11.46485,28.63281 z m -10.64453,-11.32812 -3.94532,-10.625 -3.86718,10.625 7.8125,0 z" />
      <path
         inkscape:connector-curvature="0"
         id="path4427"
         style="font-style:normal;font-variant:normal;font-weight:bold;font-stretch:normal;font-size:40px;line-height:125%;font-family:Arial;-inkscape-font-specification:'Arial, Bold';text-align:start;letter-spacing:0.89999998px;writing-mode:lr-tb;text-anchor:start"
         d="m 515.84734,129.12338 0,-12.05078 -10.48829,-16.58203 6.77735,0 6.73828,11.32813 6.60156,-11.32813 6.66016,0 -10.52735,16.62109 0,12.01172 -5.76171,0 z" />
      <path
         inkscape:connector-curvature="0"
         id="path4429"
         style="font-style:normal;font-variant:normal;font-weight:bold;font-stretch:normal;font-size:40px;line-height:125%;font-family:Arial;-inkscape-font-specification:'Arial, Bold';text-align:start;letter-spacing:0.89999998px;writing-mode:lr-tb;text-anchor:start"
         d="m 535.69266,129.12338 0,-28.63281 5.78125,0 0,28.63281 -5.78125,0 z" />
      <path
         inkscape:connector-curvature="0"
         id="path4431"
         style="font-style:normal;font-variant:normal;font-weight:bold;font-stretch:normal;font-size:40px;line-height:125%;font-family:Arial;-inkscape-font-specification:'Arial, Bold';text-align:start;letter-spacing:0.89999998px;writing-mode:lr-tb;text-anchor:start"
         d="m 547.92078,129.12338 0,-28.63281 5.625,0 11.71875,19.12109 0,-19.12109 5.37109,0 0,28.63281 -5.80078,0 -11.54297,-18.67187 0,18.67187 -5.37109,0 z" />
      <path
         inkscape:connector-curvature="0"
         id="path4433"
         style="font-style:normal;font-variant:normal;font-weight:bold;font-stretch:normal;font-size:40px;line-height:125%;font-family:Arial;-inkscape-font-specification:'Arial, Bold';text-align:start;letter-spacing:0.89999998px;writing-mode:lr-tb;text-anchor:start"
         d="m 590.98874,118.59604 0,-4.82422 12.46094,0 0,11.40625 q -1.81641,1.75781 -5.27344,3.10547 -3.4375,1.32812 -6.97266,1.32812 -4.49218,0 -7.83203,-1.875 -3.33984,-1.89453 -5.01953,-5.39062 -1.67969,-3.51563 -1.67969,-7.63672 0,-4.47266 1.875,-7.94922 1.875,-3.47656 5.48828,-5.33203 2.75391,-1.42578 6.85547,-1.42578 5.33203,0 8.32032,2.24609 3.00781,2.22657 3.86718,6.17188 l -5.74218,1.07422 q -0.60547,-2.10938 -2.28516,-3.32032 -1.66016,-1.23046 -4.16016,-1.23046 -3.78906,0 -6.03515,2.40234 -2.22657,2.40234 -2.22657,7.12891 0,5.09765 2.26563,7.65625 2.26562,2.53906 5.9375,2.53906 1.81641,0 3.63281,-0.70313 1.83594,-0.72265 3.14453,-1.73828 l 0,-3.63281 -6.62109,0 z" />
    </g>
  </g>
</svg>
