<svg xmlns="http://www.w3.org/2000/svg" width="393.8248" height="307.0864" viewBox="0 0 369.2108 287.8935"><path d="M0 0h369.2108v287.8935H0z"/><path d="M10.8592 12.1218h347.4924V59.599H10.8592zM10.8592 69.7005h347.4924V224.254H10.8592z" fill="#fff"/><g fill-rule="evenodd"><path d="M139.1313 206.4315V77.6371h95.8382v26.0114h-51.139v24.2437h51.139l-11.9956 24.4962h-39.1434v54.0431zM255.2988 206.179V77.637h82.6431v26.5166h-40.7218v24.7487h40.7218l-12.4375 23.7386h-28.2843v28.6h40.7218v24.938zM31.2689 206.179L32.279 77.637h89.2722v25.759h-51.139v24.2436h51.139l-11.9955 24.4962H70.4123v54.0432z"/></g><g style="line-height:125%;-inkscape-font-specification:'Arial, Bold';text-align:start" font-weight="700" font-size="64.3175" font-family="Arial" letter-spacing="25.29" word-spacing="0" fill="#fff"><path style="line-height:125%;-inkscape-font-specification:'Arial, Bold';text-align:start" d="M42.2285 262.812v-7.757h20.0364v18.3406q-2.9207 2.8264-8.4794 4.9934-5.5273 2.1355-11.2116 2.1355-7.2231 0-12.5934-3.0149-5.3703-3.0463-8.071-8.6678-2.701-5.6529-2.701-12.2793 0-7.1918 3.015-12.7819 3.0148-5.59 8.8248-8.5736 4.428-2.2925 11.0231-2.2925 8.5736 0 13.3786 3.6115 4.8364 3.5802 6.2182 9.924l-9.233 1.7273q-.9737-3.3917-3.6745-5.3388-2.6694-1.9786-6.6893-1.9786-6.0925 0-9.7041 3.8629-3.5802 3.8628-3.5802 11.4628 0 8.1967 3.643 12.3108 3.643 4.0826 9.5471 4.0826 2.9207 0 5.8414-1.1306 2.952-1.162 5.0562-2.795v-5.8413H42.2285zM137.6145 279.7394H127.502l-4.0199-10.458H105.079l-3.8 10.458h-9.8612l17.9323-46.0398h9.8297l18.4348 46.0398zm-17.1158-18.215l-6.3438-17.0843-6.2182 17.0844h12.562zM167.7409 279.7394v-46.0398h13.9124l8.3537 31.405 8.2595-31.405h13.9439v46.0398h-8.6364V243.498l-9.1389 36.2414h-8.9504l-9.1075-36.2414v36.2414h-8.6363zM246.6707 279.7394v-46.0398h34.1372v7.7884h-24.8414v10.2067h23.1141v7.757h-23.114v12.5306h25.7207v7.757h-35.0166zM312.5674 264.7592l9.0446-.8794q.8165 4.5538 3.2975 6.6893 2.5124 2.1355 6.7521 2.1355 4.491 0 6.752-1.8843 2.2927-1.9157 2.2927-4.4595 0-1.633-.9736-2.7636-.9422-1.162-3.329-2.01-1.633-.5652-7.443-2.0099-7.4743-1.8529-10.4892-4.5537-4.2397-3.8-4.2397-9.2645 0-3.5173 1.9785-6.5636 2.01-3.0777 5.7472-4.6794 3.7686-1.6016 9.076-1.6016 8.6678 0 13.0331 3.8 4.3967 3.8 4.6165 10.1438l-9.2959.4083q-.5967-3.5488-2.5752-5.0876-1.947-1.5703-5.8727-1.5703-4.0513 0-6.3438 1.6645-1.476 1.0677-1.476 2.8578 0 1.633 1.3818 2.795 1.7586 1.4761 8.5421 3.0778 6.7835 1.6016 10.0182 3.3289 3.2662 1.6959 5.0876 4.6793 1.853 2.9521 1.853 7.3174 0 3.957-2.1984 7.4116t-6.2182 5.1504q-4.0198 1.6645-10.0182 1.6645-8.7306 0-13.41-4.0198-4.6793-4.0513-5.59-11.777z"/></g><g style="line-height:125%;-inkscape-font-specification:'Arial, Bold';text-align:start" font-weight="700" font-size="40" font-family="Arial" letter-spacing=".9" word-spacing="0"><path style="line-height:125%;-inkscape-font-specification:'Arial, Bold';text-align:start" d="M32.9464 49.033V20.4002h12.168q4.5898 0 6.6601.7812 2.0898.7618 3.3398 2.7344 1.25 1.9727 1.25 4.5117 0 3.2227-1.8945 5.332-1.8945 2.09-5.664 2.6368 1.875 1.0937 3.0859 2.4023 1.2305 1.3086 3.3008 4.6485l3.496 5.5859h-6.914l-4.1797-6.2305q-2.2265-3.3398-3.0469-4.1992-.8203-.8789-1.7382-1.1914-.918-.332-2.9102-.332h-1.1719V49.033h-5.7812zm5.7812-16.5234h4.2774q4.1601 0 5.1953-.3516 1.0351-.3516 1.621-1.211.586-.8593.586-2.1484 0-1.4453-.7812-2.3242-.7618-.8984-2.168-1.1328-.7031-.0977-4.2188-.0977h-4.5117v7.2656zM61.5612 34.8924q0-4.375 1.3086-7.3438.9766-2.1875 2.6563-3.9257 1.6992-1.7383 3.711-2.5782 2.6757-1.1328 6.1718-1.1328 6.3281 0 10.1172 3.9258 3.8086 3.9258 3.8086 10.918 0 6.9336-3.7696 10.8593-3.7695 3.9063-10.078 3.9063-6.3868 0-10.1563-3.8867-3.7696-3.9063-3.7696-10.7422zm5.957-.1953q0 4.8633 2.2461 7.3828 2.2461 2.5 5.7032 2.5 3.457 0 5.664-2.4805 2.2266-2.5 2.2266-7.4805 0-4.9218-2.168-7.3437-2.1484-2.4219-5.7226-2.4219t-5.7617 2.461q-2.1875 2.4414-2.1875 7.3828zM94.9612 49.033V20.6346h5.7813v23.5742h14.375v4.8242H94.9612zM120.1581 49.033V20.4002h21.2305v4.8437h-15.4493v6.3477h14.375v4.8242h-14.375v7.793h15.9961v4.8242h-21.7773zM147.1128 41.3963V35.908h10.7812v5.4883h-10.7812zM162.0362 49.033V20.4002h9.2774q5.2734 0 6.875.4297 2.461.6445 4.121 2.8125 1.6602 2.1484 1.6602 5.5664 0 2.6367-.957 4.4336-.957 1.7969-2.4414 2.832-1.4649 1.0156-2.9883 1.3477-2.0703.4101-5.996.4101h-3.7696V49.033h-5.7813zm5.7813-23.789v8.125h3.164q3.418 0 4.5703-.4493 1.1524-.4492 1.797-1.4062.664-.957.664-2.2266 0-1.5625-.918-2.5781t-2.3242-1.2695q-1.0352-.1954-4.1601-.1954h-2.793zM189.8112 49.033V20.6346h5.7813v23.5742h14.375v4.8242h-20.1563zM240.8284 49.033h-6.289l-2.5-6.5039H220.594l-2.3632 6.5039h-6.1329l11.1524-28.6328h6.1133l11.4648 28.6328zM230.184 37.7049l-3.9453-10.625-3.8672 10.625h7.8125zM248.662 49.033V36.9822l-10.4883-16.582h6.7774l6.7383 11.3281 6.6015-11.3281h6.6602l-10.5274 16.621V49.033h-5.7617zM268.5073 49.033V20.4002h5.7813V49.033h-5.7813zM280.7355 49.033V20.4002h5.625l11.7187 19.121v-19.121h5.371V49.033h-5.8007l-11.543-18.6719V49.033h-5.371zM323.8034 38.5057v-4.8243h12.461v11.4063q-1.8165 1.7578-5.2735 3.1055-3.4375 1.328-6.9727 1.328-4.4921 0-7.832-1.875-3.3398-1.8944-5.0195-5.3905-1.6797-3.5157-1.6797-7.6368 0-4.4726 1.875-7.9492 1.875-3.4765 5.4883-5.332 2.7539-1.4258 6.8554-1.4258 5.332 0 8.3204 2.2461 3.0078 2.2266 3.8672 6.1719l-5.7422 1.0742q-.6055-2.1094-2.2852-3.3203-1.6602-1.2305-4.1602-1.2305-3.789 0-6.0351 2.4024-2.2266 2.4023-2.2266 7.1289 0 5.0976 2.2657 7.6562 2.2656 2.539 5.9375 2.539 1.8164 0 3.6328-.703 1.836-.7227 3.1445-1.7383v-3.6328h-6.621z"/></g></svg>