<?xml version="1.0" encoding="UTF-8" standalone="no"?>
<svg
   xmlns:dc="http://purl.org/dc/elements/1.1/"
   xmlns:cc="http://creativecommons.org/ns#"
   xmlns:rdf="http://www.w3.org/1999/02/22-rdf-syntax-ns#"
   xmlns:svg="http://www.w3.org/2000/svg"
   xmlns="http://www.w3.org/2000/svg"
   version="1.1"
   id="svg2"
   viewBox="0 0 277.94356 269.9287"
   height="76.179878mm"
   width="78.441849mm">
  <defs
     id="defs4" />
  <metadata
     id="metadata7">
    <rdf:RDF>
      <cc:Work
         rdf:about="">
        <dc:format>image/svg+xml</dc:format>
        <dc:type
           rdf:resource="http://purl.org/dc/dcmitype/StillImage" />
        <dc:title></dc:title>
      </cc:Work>
    </rdf:RDF>
  </metadata>
  <g
     transform="translate(-365.20776,-559.36828)"
     id="layer1">
    <path
       id="path4250"
       d="m 514.17383,559.375 c -3.56973,0.2616 -2.5125,8.08 -5.19922,10.54688 -4.90479,4.40831 -6.05982,13.85253 -11.40625,16.1914 -5.62417,-3.35131 -10.40258,-8.94429 -15.70313,-13.15234 -4.0391,-2.26173 -5.36424,5.60772 -6.72461,8.58789 -3.08127,3.38339 0.86428,9.47782 -3.20117,11.58203 -3.07169,-3.69798 -5.79096,-7.78826 -10.24804,-9.94336 -5.35463,-2.52388 -9.62182,-8.68143 -15.91407,-8.07422 -0.37504,11.30256 3.08768,22.26082 3.58789,33.50977 0.0157,5.22385 -6.75251,-0.14007 -9.35156,-0.86133 -4.52034,-3.37854 -7.39881,-10.34249 -13.91211,-9.3711 -13.64232,-3.88673 0.69871,13.51621 -0.20898,19.94141 5.13701,10.45727 -3.91976,10.09066 -10.90039,6.29883 -8.75789,-1.61072 -18.33404,1.07914 -26.50196,4.22266 5.3766,3.43095 11.68946,5.56839 16.32227,10.02734 3.4621,2.96435 7.43354,5.70519 5.96484,10.83398 -10.86673,2.53067 -21.69542,5.2485 -32.3125,8.69532 6.33613,5.05238 15.14412,7.87791 21.28907,12.32812 -1.27549,4.14753 -7.26489,4.38436 -10.52735,6.88281 -4.46564,3.0058 -9.35094,4.11666 -14.67187,3.25977 -6.1485,-0.86303 -13.09999,-0.90854 -6.9668,7.19726 6.71703,5.79 16.31437,7.50272 24.54883,10.75586 5.92059,-0.015 5.93399,5.4648 4.41406,9.74805 -5.42591,9.94121 -15.10247,16.07708 -23.27344,23.5625 8.16947,-0.11526 16.64074,-1.3727 24.62305,-0.77734 4.84369,1.82538 7.05447,5.10333 5.88672,10.24609 L 388.25,756.25781 c 0.30555,4.40772 7.72923,2.76093 11.44141,2.79883 4.34816,0.32714 10.45276,-1.3153 13.64843,0.30469 1.91476,7.11562 -2.09261,13.4289 -3.9082,20.10547 -5.98129,11.22589 4.31761,6.17921 10.30274,2.97851 3.69927,-0.26443 8.66208,-2.98251 11.70117,-0.20117 3.07465,7.11701 -3.87941,16.66681 -2.65625,24.86914 8.33284,-1.58907 15.5917,-6.18673 21.74218,-11.92383 2.78429,3.40381 0.54077,8.8903 1.25782,13.15039 -2.46079,11.82244 5.09515,5.56304 10.27929,-0.72265 3.7409,-4.81395 10.94636,-8.1606 10.26563,0.63281 2.49488,5.21106 -0.32823,20.90669 6.30469,18.79883 9.63436,-5.48037 13.27518,-16.6157 20.96289,-23.9375 5.26216,5.6168 10.59453,11.18594 13.35937,18.51953 5.62501,14.03155 6.34536,5.96328 11.35742,-1.76758 4.9378,-5.84479 7.00204,-17.27469 14.19141,-19.7832 4.27063,2.63344 7.40993,7.88801 11.25586,11.5039 4.17277,2.59542 9.29606,3.51114 7.04297,-3.21289 0.67315,-6.43443 -2.15096,-14.05336 1.82422,-19.62695 12.04827,6.29299 25.27085,9.99424 38.88086,10.40234 -1.53313,-2.81595 -10.56115,-7.95106 -14.48438,-12.16796 -3.39252,-4.06261 -4.01395,-8.91269 -3.68164,-14.03516 1.51444,-5.589 14.2443,0.1331 19.94727,-1.51172 6.64062,1.37604 12.35918,-2.1521 18.28711,-4.56445 12.40114,-2.55038 2.07702,-6.86025 -5.63672,-8.83789 -4.5284,-0.32013 -13.12525,-7.20982 -6.53711,-9.77539 8.71276,-0.91884 16.94595,-3.64808 23.92383,-9.18946 4.35913,-6.51146 -17.85584,-2.8041 -19.67969,-11.74609 6.1395,-5.4596 12.19267,-13.68559 21.33594,-12.1875 3.57743,-0.18009 15.43042,6.92799 11.3164,0.0781 -8.85508,-7.42989 -20.19242,-12.41535 -28.49804,-20.5957 9.80155,-8.12375 18.1454,-17.84589 25.98046,-27.83203 -8.01878,-1.48433 -16.41586,-0.43994 -24.05468,-3.77734 -2.06475,-2.98271 -8.30942,-4.49824 -6.58008,-8.8125 3.26954,-4.78077 10.01747,-7.04955 12.95117,-12.39258 8.70411,-10.65293 -8.34846,-2.52299 -13.77539,-3.81836 -4.4595,0.69762 -14.44321,0.84126 -9.26563,-6.39063 3.70827,-5.83219 3.18666,-12.6617 3.64844,-19.26953 3.13494,-11.03498 -7.14274,-2.46873 -12.33398,0.22657 -3.19898,3.10185 -11.00325,4.28374 -9.33985,-2.25196 -1.56318,-8.4058 4.64403,-15.59428 4.89258,-23.97656 -7.59724,-2.40578 -15.37015,8.09434 -22.83398,10.37109 -8.41891,7.89172 -8.05875,0.0155 -7.14649,-6.54687 -0.93653,-3.71343 3.30793,-14.90425 -2.26953,-12.29688 -5.56552,3.98424 -10.15927,9.59234 -17.39258,10.25586 -3.92661,-0.49922 -9.78864,0.98918 -12.51953,-0.73828 -2.30611,-9.32584 0.1005,-21.05721 -8.31836,-27.8125 -0.4776,-0.14896 -0.89634,-0.20284 -1.26562,-0.17578 z m -8.25391,40.05664 a 98.232231,98.232231 0 0 1 98.23242,98.23242 98.232231,98.232231 0 0 1 -98.23242,98.23242 98.232231,98.232231 0 0 1 -98.23242,-98.23242 98.232231,98.232231 0 0 1 98.23242,-98.23242 z m 0,15.14844 a 83.085052,83.085052 0 0 0 -83.08594,83.08398 83.085052,83.085052 0 0 0 83.08594,83.08594 83.085052,83.085052 0 0 0 83.08399,-83.08594 83.085052,83.085052 0 0 0 -83.08399,-83.08398 z"
       style="fill:#ff0000" />
    <path
       id="path4203"
       d=""
       style="fill:#000000" />
    <path
       id="path4201"
       d=""
       style="fill:#000000" />
    <path
       d="m 505.03118,707.66538 9.62306,0 0,-20.53695 -9.62306,-0.0893 0,-7.76785 19.34038,-0.21883 0,-20.88503 -39.10025,0 0,76.961 19.75987,0 z m 63.53109,5.44775 -18.89098,0 0,-7 10.10716,0 0,-20 -10.10716,0 0,-6.96927 18.89098,0 0,-20.85014 -38.91456,0 0,76.26232 38.91456,0 z m -107.02367,-5.46308 9.62306,0 0,-20.53695 -9.62306,-0.0893 0,-7.76785 19.34038,-0.21883 0,-20.88503 -39.10025,0 0,76.961 19.75987,0 z"
       style="fill:#ffffff"
       id="path4244-9" />
  </g>
</svg>
