<svg xmlns="http://www.w3.org/2000/svg" viewBox="0 0 277.94 269.93" height="287.92" width="296.47"><path d="M148.97 0c-3.57.27-2.52 8.09-5.2 10.55-4.9 4.41-6.06 13.86-11.4 16.2-5.63-3.36-10.41-8.95-15.71-13.16-4.04-2.26-5.37 5.61-6.73 8.6-3.08 3.37.87 9.47-3.2 11.57-3.07-3.7-5.79-7.79-10.25-9.94-5.35-2.52-9.62-8.68-15.91-8.07-.38 11.3 3.09 22.26 3.59 33.5.01 5.23-6.75-.14-9.35-.86-4.52-3.38-7.4-10.34-13.92-9.37-13.64-3.88.7 13.52-.2 19.94 5.13 10.46-3.92 10.1-10.9 6.3-8.76-1.6-18.34 1.08-26.5 4.23 5.37 3.43 11.68 5.56 16.31 10.02 3.47 2.97 7.44 5.7 5.97 10.84-10.87 2.53-21.7 5.25-32.31 8.7 6.33 5.04 15.14 7.87 21.29 12.32-1.28 4.15-7.27 4.38-10.53 6.88-4.47 3-9.35 4.12-14.67 3.26-6.15-.86-13.1-.9-6.97 7.2 6.72 5.79 16.31 7.5 24.55 10.76 5.92-.02 5.93 5.46 4.41 9.74-5.42 9.94-15.1 16.08-23.27 23.57 8.17-.12 16.64-1.38 24.62-.78 4.85 1.82 7.06 5.1 5.89 10.24L23.04 196.9c.3 4.4 7.73 2.76 11.44 2.8 4.35.33 10.46-1.32 13.65.3 1.92 7.12-2.1 13.43-3.9 20.1-5.99 11.23 4.31 6.19 10.3 2.99 3.7-.27 8.66-2.99 11.7-.2 3.07 7.11-3.88 16.66-2.66 24.87 8.33-1.6 15.6-6.2 21.74-11.93 2.79 3.4.54 8.9 1.26 13.15-2.46 11.82 5.1 5.56 10.28-.72 3.74-4.82 10.95-8.16 10.27.63 2.5 5.21-.33 20.9 6.3 18.8 9.64-5.48 13.28-16.62 20.96-23.94 5.27 5.62 10.6 11.19 13.36 18.52 5.63 14.03 6.35 5.97 11.36-1.76 4.94-5.85 7-17.28 14.2-19.79 4.26 2.64 7.4 7.89 11.25 11.5 4.17 2.6 9.3 3.52 7.04-3.2.67-6.44-2.15-14.06 1.83-19.63a89.83 89.83 0 0 0 38.88 10.4c-1.54-2.82-10.57-7.95-14.49-12.17-3.4-4.06-4.01-8.91-3.68-14.03 1.51-5.6 14.24.13 19.95-1.52 6.64 1.38 12.36-2.15 18.28-4.56 12.4-2.55 2.08-6.86-5.63-8.84-4.53-.32-13.13-7.2-6.54-9.77 8.71-.92 16.95-3.65 23.92-9.2 4.36-6.5-17.85-2.8-19.68-11.74 6.14-5.46 12.2-13.69 21.34-12.19 3.58-.18 15.43 6.93 11.32.08-8.86-7.43-20.2-12.41-28.5-20.6 9.8-8.12 18.14-17.84 25.98-27.83-8.02-1.48-16.42-.44-24.06-3.77-2.06-2.99-8.3-4.5-6.58-8.82 3.27-4.78 10.02-7.05 12.96-12.39 8.7-10.65-8.35-2.52-13.78-3.82-4.46.7-14.44.84-9.27-6.39 3.71-5.83 3.2-12.66 3.65-19.27 3.14-11.03-7.14-2.47-12.33.23-3.2 3.1-11 4.28-9.34-2.25-1.56-8.4 4.64-15.6 4.9-23.98-7.6-2.4-15.38 8.1-22.84 10.37-8.42 7.9-8.06.02-7.15-6.55-.93-3.7 3.31-14.9-2.27-12.3-5.56 4-10.16 9.6-17.39 10.26-3.93-.5-9.79 1-12.52-.73-2.3-9.33.1-21.06-8.32-27.82-.48-.15-.9-.2-1.26-.17zm-8.26 40.06a98.23 98.23 0 0 1 98.23 98.24 98.23 98.23 0 0 1-98.23 98.23 98.23 98.23 0 0 1-98.23-98.23 98.23 98.23 0 0 1 98.23-98.24zm0 15.15a83.08 83.08 0 0 0-83.08 83.09 83.08 83.08 0 0 0 83.08 83.08 83.08 83.08 0 0 0 83.09-83.08A83.08 83.08 0 0 0 140.7 55.2z" fill="red"/><path d="M139.82 148.3h9.63v-20.54l-9.63-.09v-7.77l19.34-.22V98.8h-39.1v76.96h19.76zm63.53 5.44h-18.89v-7h10.11v-20h-10.1v-6.96h18.88V98.93h-38.91v76.26h38.91zm-107.02-5.46h9.62v-20.54l-9.62-.08v-7.77l19.34-.22V98.78h-39.1v76.96h19.76z" fill="#fff"/></svg>