<?xml version="1.0" standalone="no"?>
<!DOCTYPE svg PUBLIC "-//W3C//DTD SVG 20010904//EN"
 "http://www.w3.org/TR/2001/REC-SVG-20010904/DTD/svg10.dtd">
<svg version="1.0" xmlns="http://www.w3.org/2000/svg" viewBox="0 0 618.000000 618.000000">
<g transform="translate(0.000000,618.000000) scale(0.100000,-0.100000)"
fill="#000000" stroke="none">
<path d="M3256 5973 c-8 -16 -19 -48 -26 -73 -14 -52 -64 -142 -123 -220 -23
-30 -64 -99 -92 -155 -27 -55 -57 -101 -65 -103 -17 -3 -188 135 -292 235 -90
86 -107 85 -160 -12 -51 -94 -78 -183 -85 -282 -3 -46 -10 -83 -14 -83 -4 0
-32 26 -61 57 -110 118 -123 128 -355 266 -76 45 -123 67 -144 67 l-32 0 6
-117 c4 -65 18 -174 32 -243 28 -141 48 -315 43 -375 l-3 -40 -42 2 c-62 3
-97 25 -214 138 -119 115 -150 130 -280 141 l-78 7 -11 -27 c-8 -23 -2 -47 44
-159 75 -182 86 -226 93 -349 l6 -108 -44 0 c-25 0 -88 15 -144 35 -151 53
-231 48 -502 -26 -85 -24 -113 -35 -113 -48 0 -10 49 -44 138 -94 157 -90 283
-189 312 -247 20 -39 27 -95 12 -104 -4 -2 -86 -23 -182 -45 -171 -41 -471
-124 -499 -140 -8 -4 -17 -13 -19 -19 -2 -6 77 -52 180 -103 239 -119 292
-153 279 -177 -5 -10 -93 -58 -196 -106 l-187 -89 -182 7 -183 7 8 -49 c9 -62
28 -98 71 -139 78 -74 166 -114 398 -182 167 -48 184 -55 210 -81 78 -78 -85
-327 -340 -518 -93 -69 -160 -132 -160 -149 0 -18 92 -17 195 1 164 29 237 30
314 7 42 -13 85 -34 106 -52 30 -27 35 -37 35 -75 0 -84 -57 -156 -230 -295
-106 -84 -118 -101 -96 -133 22 -34 62 -38 311 -30 l222 7 6 -33 c14 -68 6
-121 -34 -232 -64 -178 -76 -219 -84 -285 l-7 -63 31 0 c17 0 67 18 110 39
121 61 189 81 279 81 47 0 83 -5 90 -12 20 -20 14 -129 -14 -234 -39 -149 -42
-163 -49 -241 l-7 -73 33 6 c38 7 178 58 224 82 41 21 156 114 187 150 19 23
29 27 41 20 15 -8 17 -34 17 -233 0 -209 1 -225 18 -225 9 0 65 48 122 106 94
95 233 204 259 204 5 0 13 -4 16 -10 6 -9 105 -513 105 -532 0 -15 55 -8 81
10 100 67 186 167 326 376 60 90 91 126 109 126 21 0 141 -137 193 -221 28
-46 82 -146 119 -221 37 -75 73 -137 80 -137 7 -1 24 18 38 41 14 24 61 104
106 178 44 74 97 169 118 211 48 97 99 176 138 212 40 38 48 33 171 -107 105
-120 158 -156 245 -172 l39 -7 -7 59 c-24 229 -12 444 25 467 12 8 39 -1 110
-36 191 -93 406 -148 643 -163 131 -9 140 5 39 61 -137 75 -250 181 -298 279
-31 64 -56 227 -38 254 13 20 81 19 211 -3 112 -20 287 -19 366 1 50 13 322
123 376 153 8 4 15 17 15 27 0 15 -29 28 -150 69 -214 72 -303 127 -320 197
-9 35 3 40 150 63 98 15 124 24 240 81 148 73 240 132 240 153 0 11 -31 21
-110 37 -115 22 -214 53 -274 84 -37 18 -91 67 -91 80 0 5 46 52 102 104 135
128 199 161 313 161 70 0 90 -5 155 -34 41 -19 94 -36 118 -39 36 -4 42 -2 42
14 0 48 -52 92 -339 284 -219 147 -291 200 -291 215 0 12 17 32 41 49 94 66
172 142 262 253 52 65 129 155 171 200 42 44 76 88 76 96 0 11 -28 15 -142 20
-231 10 -364 53 -468 153 -88 83 -83 105 35 184 76 52 202 177 225 224 11 23
20 54 20 67 0 25 -1 25 -52 18 -29 -4 -78 -14 -108 -23 -37 -11 -101 -17 -190
-18 -141 -3 -193 7 -223 40 -15 16 -14 21 13 62 37 56 67 143 80 235 14 101
13 355 -2 355 -6 0 -92 -45 -190 -100 -98 -55 -189 -100 -202 -100 -13 0 -35
9 -50 21 -21 17 -26 29 -26 67 0 80 20 173 52 246 38 86 46 114 57 192 11 75
5 111 -21 120 -27 8 -165 -61 -323 -161 -145 -92 -292 -168 -300 -155 -3 5 1
118 10 250 9 132 13 245 10 250 -14 22 -45 6 -130 -71 -104 -93 -199 -144
-295 -159 -94 -14 -255 -13 -267 3 -6 6 -15 48 -22 92 -6 44 -18 128 -26 186
-8 59 -27 139 -41 179 -47 127 -133 190 -168 123z m90 -864 c149 -14 333 -52
462 -95 242 -80 526 -244 719 -414 345 -303 589 -748 669 -1220 25 -151 30
-468 9 -630 -56 -448 -255 -864 -571 -1199 -263 -279 -657 -498 -1044 -579
-162 -35 -278 -46 -470 -46 -344 0 -611 61 -915 209 -227 110 -416 246 -590
426 -321 332 -519 741 -575 1189 -15 125 -12 421 5 557 48 363 189 716 403
1002 72 97 235 266 332 344 323 261 729 424 1145 460 93 8 320 6 421 -4z"/>
<path d="M2945 4774 c-255 -30 -473 -96 -677 -207 -537 -289 -898 -847 -937
-1445 -21 -327 34 -608 174 -897 183 -377 474 -668 840 -841 810 -383 1765
-109 2255 647 407 628 380 1416 -68 2029 -71 97 -235 265 -337 345 -257 202
-569 328 -897 364 -90 10 -284 13 -353 5z"/>
</g>
</svg>
